<ttFont>
          <CharString index="0">
            18 callsubr
            hintmask 10100011
            197 549 rmoveto
            4 38 14 35 34 19 -4 14 rcurveline
            -3 -23 -31 -1 -32 hhcurveto
            hintmask 10010011
            -50 -54 3 5 -37 hvcurveto
            -4 -25 22 -7 51 -11 -7 callgsubr
            6 -18 1 -18 -19 -39 -14 -179 -99 vvcurveto
            -156 46 -100 156 vhcurveto
            51 20 58 38 37 41 -4 -54 -2 -8 -7 -9 3 -14 rcurveline
            hintmask 01010011
            1 18 22 0 18 hhcurveto
            29 callsubr
            136 6 34 vhcurveto
            -70 callgsubr
            21 rcurveline
            hintmask 10100011
            -5 -40 -78 -3 -40 hhcurveto
            hintmask 10010011
            -7 callsubr
            -22 22 -7 51 -11 -7 callgsubr
            3 -31 8 -111 -150 vvcurveto
            -88 -3 -72 -2 -52 vhcurveto
            -31 -34 -48 -17 -45 hhcurveto
            -122 -21 90 122 72 6 129 8 72 hvcurveto
            hintmask 00001100
            return
          </CharString>
          <CharString index="1">
            170 485 rmoveto
            -48 -11 -39 -6 -48 -2 rrcurveto
            -21 vlineto
            15 24 -3 -5 15 hvcurveto
            -5 -281 rlineto
            -85 -2 8 -86 85 hhcurveto
            64 21 84 -17 callgsubr
            -58 71 callsubr
            -2 -92 callgsubr
            61 -1 49 -87 callgsubr
            return
          </CharString>
          <CharString index="2">
            -20 57 callgsubr
            0 77 hintmask 1010100100000000
            98 662 -74 callgsubr
            hintmask 0111000100000000
            5 37 54 3 50 hhcurveto
            32 41 -1 -3 23 hvcurveto
            4 14 rlineto
            -35 20 -8 32 39 vvcurveto
            38 14 71 10 41 vhcurveto
            5 36 37 1 36 hhcurveto
            35 41 -2 -4 35 hvcurveto
            -2 -91 -5 -88 -4 -34 -23 -3 -51 -11 -22 -7 rrcurveto
            hintmask 1011000100000000
            53 callgsubr
            -70 callsubr
            hintmask 1010100010000000
            -95 callsubr
            -5 37 -8 112 170 vvcurveto
            94 8 131 5 37 -53 callgsubr
            hintmask 1011000100000000
            21 callsubr
            hintmask 1010100100000000
            -84 callsubr
            hintmask 1011000100000000
            -83 callsubr
            hintmask 0000011000000000
            return
          </CharString>
          <CharString index="3">
            42 265 rmoveto
            -165 102 -115 157 vhcurveto
            166 64 93 158 180 vvcurveto
            174 -81 105 -166 vhcurveto
            -166 -45 -105 -176 -180 vvcurveto
            238 329 rmoveto
            147 44 -137 -147 -70 -14 -82 -36 -66 hvcurveto
            -23 -26 -40 -12 -33 hhcurveto
            -132 -59 150 132 72 13 82 38 67 hvcurveto
            23 26 39 11 33 hhcurveto
            return
          </CharString>
          <CharString index="4">
            45 190 rmoveto
            -117 82 -88 117 vhcurveto
            116 46 83 125 124 vvcurveto
            127 -62 78 -127 vhcurveto
            -128 -33 -81 -130 -132 vvcurveto
            182 233 rmoveto
            99 37 -99 -99 -50 -8 -57 -24 -46 hvcurveto
            -16 -18 -28 -9 -24 hhcurveto
            -88 -48 110 88 50 9 58 24 46 hvcurveto
            16 18 27 8 24 hhcurveto
            return
          </CharString>
          <CharString index="5">
            -4 -34 -34 -2 -34 hhcurveto
            -35 -35 3 5 -35 hvcurveto
            -2 -19 17 -6 29 -9 17 -4 rlinecurve
            9 -72 2 -32 -129 vvcurveto
            -51 -22 -86 -89 -55 hhcurveto
            -49 3 85 49 1 hvcurveto
            2 105 9 125 8 50 rrcurveto
            return
          </CharString>
          <CharString index="6">
            238 57 rmoveto
            -94 -14 87 94 hvcurveto
            136 29 89 5 56 -1 1 21 rcurveline
            -16 -17 2 6 -16 hvcurveto
            6 16 4 32 17 vvcurveto
            89 -32 31 -89 vhcurveto
            -126 -35 -76 -130 -130 vvcurveto
            -121 55 -84 121 vhcurveto
            57 24 53 42 36 49 -11 10 rcurveline
            -29 -33 -47 -24 -43 hhcurveto
            -79 342 rmoveto
            return
          </CharString>
          <CharString index="7">
            53 185 rmoveto
            -68 34 -93 66 -18 vhcurveto
            -4 vlineto
            -74 -80 -27 -49 -11 -38 rrcurveto
            -19 vlineto
            -20 55 62 -11 61 hhcurveto
            78 25 96 81 30 75 rrcurveto
            -5 54 -2 73 117 vvcurveto
            94 7 76 6 56 -46 callsubr
            -29 -9 -18 -4 -30 -6 rrcurveto
            52 callsubr
            -42 -73 -127 -131 vvcurveto
            80 44 rmoveto
            56 9 63 21 51 vhcurveto
            19 21 23 5 28 hhcurveto
            34 39 -10 -14 31 hvcurveto
            5 -30 2 -20 -123 vvcurveto
            -45 -18 -80 -99 -48 hhcurveto
            -48 -19 99 48 hvcurveto
            213 -59 rmoveto
            -153 -1 -60 -33 -86 vhcurveto
            -20 -21 -21 -4 -27 hhcurveto
            -41 -45 9 19 -37 hvcurveto
            16 127 150 53 56 116 rrcurveto
            return
          </CharString>
          <CharString index="8">
            rmoveto
            -148 -164 26 -63 hhcurveto
            -3 -22 16 -4 17 -5 14 -8 rlinecurve
            7 -28 2 -28 -29 vvcurveto
            -19 -1 -20 -1 -19 vhcurveto
            24 -4 11 26 9 38 5 27 rlinecurve
            15 35 34 4 38 hhcurveto
            135 hlineto
            3 -3 -284 -469 -26 -44 -44 -54 -20 -20 rlinecurve
            21 -17 rlineto
            31 26 47 7 40 hhcurveto
            107 127 -6 -17 105 hvcurveto
            7 -5 7 -6 6 -7 19 15 rcurveline
            -53 55 -21 56 -5 76 rrcurveto
            -26 hlineto
            -32 -1 -29 -5 -32 vhcurveto
            -16 -21 -34 -3 -28 hhcurveto
            -144 hlineto
            -4 3 268 476 33 58 27 35 19 18 rlinecurve
            hintmask 11101000
            -21 16 rlineto
            -28 -31 -20 -8 -41 hhcurveto
            return
          </CharString>
          <CharString index="9">
            rmoveto
            -59 26 86 -51 64 hhcurveto
            59 20 52 48 28 56 -18 11 rcurveline
            -41 -22 -36 -28 -49 hhcurveto
            -50 -45 24 45 -19 hvcurveto
            -4 hlineto
            -18 -9 -29 -6 -24 -1 rrcurveto
            return
          </CharString>
          <CharString index="10">
            -107 callgsubr
            endchar
          </CharString>
          <CharString index="11">
            95 64 rmoveto
            -1 -2 40 58 callgsubr
            -42 -13 -30 -27 -33 rrcurveto
            -14 vlineto
            -15 47 42 -6 49 hhcurveto
            68 20 100 84 87 81 -210 53 56 vvcurveto
            -54 callgsubr
            12 -45 -33 4 -46 hhcurveto
            -59 -13 -104 -81 -77 -81 210 -52 -56 vvcurveto
            -61 -50 -17 -43 -28 -35 7 10 -27 vhcurveto
            return
          </CharString>
          <CharString index="12">
            -76 callgsubr
            -29 -79 callgsubr
            return
          </CharString>
          <CharString index="13">
            rmoveto
            -14 -3 -22 -7 -14 -6 2 -17 rcurveline
            5 28 30 2 28 hhcurveto
            29 27 -2 -4 27 hvcurveto
            3 17 -13 6 -19 7 -13 4 rlinecurve
            -3 23 -3 63 41 vvcurveto
            67 vlineto
            43 5 83 6 44 vhcurveto
            -3 2 rlineto
            -8 -12 -1 -1 -6 hvcurveto
            -31 -32 -37 -16 -42 -12 rrcurveto
            -1 -3 -1 -10 -4 vvcurveto
            2 -2 rlineto
            60 hlineto
            2 -31 1 -28 -32 vvcurveto
            -67 vlineto
            -41 -5 -62 -3 -26 vhcurveto
            return
          </CharString>
          <CharString index="14">
            485 rmoveto
            -47 -11 -38 -6 -48 -2 rrcurveto
            -21 vlineto
            15 24 -3 -5 15 hvcurveto
            -5 -281 rlineto
            -85 -2 8 -86 82 hhcurveto
            60 21 83 87 35 53 4 -1 rcurveline
            -138 -1 -50 -33 -86 vhcurveto
            -18 -19 -20 -6 -26 hhcurveto
            -41 -51 11 20 -36 hvcurveto
            -2 22 0 17 22 vvcurveto
            -21 hlineto
            -3 -40 -13 -41 -26 -31 rrcurveto
            -13 vlineto
            -19 50 64 -10 54 hhcurveto
            75 26 99 79 27 76 rrcurveto
            -6 61 -1 116 -87 callgsubr
            return
          </CharString>
          <CharString index="15">
            42 61 -31 42 hhcurveto
            42 18 31 30 31 34 -18 11 rcurveline
            -20 -17 -22 -4 -26 hhcurveto
            -41 -42 12 19 -36 hvcurveto
            -51 -15 -43 -30 -34 -37 rrcurveto
            endchar
          </CharString>
          <CharString index="16">
            hmoveto
            -97 callsubr
          </CharString>
          <CharString index="17">
            rmoveto
            7 -13 5 -13 4 -15 17 5 rcurveline
            -3 17 -2 17 17 vvcurveto
            15 1 13 6 17 vhcurveto
            -8 6 -45 -10 -64 -5 -46 -2 rlinecurve
            hintmask 11001010
            -3 6 -2 5 -2 7 -19 -3 rcurveline
            2 -14 1 -23 -2 -35 -6 -122 rcurveline
            8 -6 rlineto
            8 15 21 4 17 hhcurveto
            59 30 -41 -59 -20 -2 -13 -7 -19 hvcurveto
            -10 -8 -17 -2 -12 hhcurveto
            -28 -40 13 14 -25 hvcurveto
            -1 15 0 13 14 vvcurveto
            -18 hlineto
            -4 -30 -8 -28 -18 -25 rrcurveto
            -12 vlineto
            -15 34 60 -11 36 hhcurveto
            52 19 59 54 18 50 rrcurveto
            hintmask 10101100
            92 -52 50 -92 vhcurveto
            -15 -5 -17 -9 -14 -11 9 99 rcurveline
            3 3 rlineto
            0 11 -5 8 -2 vhcurveto
            32 34 2 3 31 hvcurveto
            endchar
          </CharString>
          <CharString index="18">
            rmoveto
            1 14 -9 36 -7 12 -11 4 -19 4 -12 1 -40 -48 -60 -53 -57 -25 8 -20 rcurveline
            return
          </CharString>
          <CharString index="19">
            rmoveto
            134 -90 13 17 -58 49 -43 53 -36 66 rlinecurve
            -20 hlineto
            -36 -66 -43 -53 -58 -49 13 -17 rcurveline
            return
          </CharString>
          <CharString index="20">
            -95 -95 -66 -95 -134 115 -66 134 hvcurveto
            83 27 100 84 87 vvcurveto
            16 -11 14 -16 1 vhcurveto
            -16 -17 -16 -14 -18 -11 -1 -7 rcurveline
            9 -10 1 -16 -13 vvcurveto
            -11 -2 -25 -5 -10 vhcurveto
            -19 -29 -31 -5 -34 hhcurveto
            -92 -77 48 102 95 87 35 95 hvcurveto
            12 hlineto
            5 37 rlineto
            return
          </CharString>
          <CharString index="21">
            vhcurveto
            7 -4 -92 callgsubr
            50 -1 60 50 vvcurveto
            return
          </CharString>
          <CharString index="22">
            rmoveto
            -41 -10 -64 -45 -24 -34 rrcurveto
            -47 30 -31 35 -24 vhcurveto
            hintmask 11100100
            -37 -24 -43 -51 -41 vvcurveto
            -60 63 -39 60 vhcurveto
            56 17 59 54 21 52 rrcurveto
            58 -45 31 -43 25 vhcurveto
            hintmask 11101000
            30 22 44 45 34 vvcurveto
            48 -50 20 -51 vhcurveto
            44 -301 rmoveto
            -16 -3 -12 -7 -15 vhcurveto
            -12 -10 -15 -3 -15 hhcurveto
            -38 -38 31 38 34 13 33 25 20 hvcurveto
            37 -23 51 -32 -43 vvcurveto
            hintmask 11011000
            -102 220 rmoveto
            7 2 9 2 5 vhcurveto
            9 9 18 4 12 hhcurveto
            30 24 -9 -30 -28 -14 -23 -20 -20 hvcurveto
            -30 17 -33 25 34 vvcurveto
            endchar
          </CharString>
          <CharString index="23">
            -83 -61 3 8 -83 hvcurveto
            183 -368 rmoveto
            -32 -34 2 5 -32 hvcurveto
            0 6 24 10 42 vhcurveto
            59 244 rlineto
            return
          </CharString>
          <CharString index="24">
            2 21 22 1 21 hhcurveto
            21 18 -1 -2 21 hvcurveto
            5 -34 5 -121 -155 vvcurveto
            -6 -35 -41 -1 -35 hhcurveto
            return
          </CharString>
          <CharString index="25">
            40 64 81 callgsubr
            -22 7 -51 11 -23 3 rlinecurve
            -5 34 -6 132 121 -4 callgsubr
            88 38 -44 -88 -94 -56 -46 -94 hvcurveto
            -12 hlineto
            -3 -22 rlineto
            20 18 -1 -4 20 hvcurveto
            71 -132 23 -78 -45 vvcurveto
            -30 -8 -18 -9 -9 vhcurveto
            4 -14 rlineto
            return
          </CharString>
          <CharString index="26">
            -1 -2 25 hvcurveto
            2 -20 11 -51 7 -18 23 4 rcurveline
            -4 29 -2 29 29 vvcurveto
            26 2 26 7 25 vhcurveto
            -20 4 rlineto
            return
          </CharString>
          <CharString index="27">
            -74 callgsubr
            hintmask 0111000010000000
            5 37 54 3 50 hhcurveto
            32 41 -1 -3 23 hvcurveto
            4 14 rlineto
            -35 20 -8 32 39 vvcurveto
            38 14 71 10 41 vhcurveto
            5 36 37 1 36 hhcurveto
            35 41 -2 -4 35 hvcurveto
            -2 -91 -5 -88 -4 -34 -23 -3 -51 -11 -22 -7 rrcurveto
            hintmask 1011000010000000
            4 -25 rlineto
            hintmask 0111000010000000
            -70 callsubr
            hintmask 1010100001000000
            -95 callsubr
            -5 37 -8 112 170 vvcurveto
            94 8 131 5 37 -53 callgsubr
            hintmask 1011000010000000
            21 callsubr
            hintmask 1010100010000000
            -84 callsubr
            hintmask 1011000010000000
            -83 callsubr
            return
          </CharString>
          <CharString index="28">
            -4 -14 -5 -12 -7 -13 rrcurveto
            -12 25 37 -9 26 hhcurveto
            38 13 39 33 19 36 rrcurveto
            58 -45 26 -58 vhcurveto
            -4 3 24 62 -29 -2 -38 -107 rlineto
            endchar
          </CharString>
          <CharString index="29">
            54 callsubr
            -199 hlineto
            -129 -4 -156 -8 -144 vhcurveto
            18 -1 10 55 16 52 19 35 rlinecurve
            11 1 13 -1 11 -2 rrcurveto
            -4 44 -8 157 89 vvcurveto
            198 vlineto
            -3 callgsubr
            3 14 7 19 66 callsubr
            45 3 44 14 43 vhcurveto
            return
          </CharString>
          <CharString index="30">
            263 rmoveto
            22 51 79 89 55 10 rrcurveto
            17 -12 10 -40 -20 vvcurveto
            -70 -47 -37 -70 -4 vhcurveto
            -21 vlineto
            12 12 1 1 12 hvcurveto
            56 -145 1 -43 -30 vvcurveto
            9 -5 47 11 47 7 70 callgsubr
            -39 6 2 hvcurveto
            -20 25 -10 32 -33 70 -30 64 rcurveline
            58 25 42 48 70 vvcurveto
            50 -31 51 -49 13 vhcurveto
            -65 -23 -75 -83 -39 -55 -4 2 rcurveline
            183 6 100 10 55 -46 callsubr
            return
          </CharString>
          <CharString index="31">
            18 callsubr
            hintmask 1010000110000000
            197 549 rmoveto
            4 38 14 35 34 19 -4 14 rcurveline
            -3 -23 -31 -1 -32 hhcurveto
            hintmask 1001000110000000
            -50 -54 3 5 -37 hvcurveto
            -4 -25 22 -7 51 -11 -7 callgsubr
            6 -18 1 -18 -19 -39 -14 -179 -99 vvcurveto
            -156 46 -100 156 vhcurveto
            51 20 58 38 37 41 -4 -54 -2 -8 -7 -9 3 -14 rcurveline
            hintmask 0101000110000000
            1 18 22 0 18 hhcurveto
            29 callsubr
            136 6 34 vhcurveto
            -70 callgsubr
            21 rcurveline
            hintmask 1010000110000000
            -5 -40 -78 -3 -40 hhcurveto
            hintmask 1001000110000000
            -7 callsubr
            -22 22 -7 51 -11 -7 callgsubr
            3 -31 8 -111 -150 vvcurveto
            -88 -3 -72 -2 -52 vhcurveto
            -31 -34 -48 -17 -45 hhcurveto
            -122 -21 90 122 72 6 129 8 72 hvcurveto
            return
          </CharString>
          <CharString index="32">
            rmoveto
            -161 75 -10 -19 64 -40 52 -50 45 -61 rlinecurve
            20 hlineto
            45 61 52 50 64 40 -10 19 rcurveline
            return
          </CharString>
          <CharString index="33">
            680 445 rmoveto
            19 10 14 7 15 11 -4 18 rcurveline
            -25 -100 -98 -5 -103 hhcurveto
            -44 -58 1 3 -44 hvcurveto
            -21 vlineto
            15 24 -3 -5 15 hvcurveto
            14 -29 4 -33 -32 38 callgsubr
            21 2 16 6 21 vhcurveto
            -7 4 -48 -11 -46 -7 -48 -2 rlinecurve
            -21 vlineto
            15 24 -3 -5 15 hvcurveto
            8 -30 7 -41 5 -31 45 -291 33 -51 30 -7 19 6 20 8 17 9 44 48 44 64 32 68 32 -164 27 -33 24 -6 19 6 20 8 17 9 rrcurveto
            89 95 84 160 132 vvcurveto
            16 -3 18 -5 16 vhcurveto
            -93 -11 rmoveto
            15 -30 6 -29 -33 38 callgsubr
            12 19 57 8 37 hhcurveto
            16 24 -4 -5 16 hvcurveto
            return
          </CharString>
          <CharString index="34">
            16 0 37 -27 -21 325 -10 callsubr
            267 -20 28 -20 hstemhm
            128 77 hintmask 10000110
            477 9 -49 callsubr
            37 -5 106 43 callsubr
            8 126 5 34 vhcurveto
            63 callgsubr
            hintmask 10001010
            -33 callsubr
            hintmask 10000110
            -59 callsubr
            hintmask 01000110
            73 76 -3 -8 73 hvcurveto
            hintmask 00110000
            -47 365 rmoveto
            -97 callsubr
          </CharString>
          <CharString index="35">
            -80 40 -111 80 vhcurveto
            63 25 72 81 39 55 4 -1 rcurveline
            return
          </CharString>
          <CharString index="36">
            -20 hstemhm
            42 89 272 37 -37 66 hintmask 1011001100000000
            303 64 -84 callgsubr
            hintmask 0111001010000000
            -67 callgsubr
            hintmask 1011001100000000
            80 callgsubr
            hintmask 0000110000000000
            return
          </CharString>
          <CharString index="37">
            6 40 64 2 40 hhcurveto
            return
          </CharString>
          <CharString index="38">
            17 18 28 7 24 hhcurveto
            17 19 -4 -8 13 hvcurveto
            2 -22 0 -17 -22 vvcurveto
            22 hlineto
            3 42 13 40 27 33 rrcurveto
            14 vlineto
            10 -29 -31 6 -30 hhcurveto
            -98 -38 -81 -98 -13 -105 -17 -5 -21 -6 -15 -6 rrcurveto
            -19 callgsubr
            return
          </CharString>
          <CharString index="39">
            57 23 50 44 34 48 -10 10 rcurveline
            -28 -31 -42 -25 -41 hhcurveto
            return
          </CharString>
          <CharString index="40">
            -5 -37 -49 -3 -50 60 callgsubr
            3 -23 83 callgsubr
            59 -21 18 -120 -214 vvcurveto
            -144 vlineto
            -4 -2 rlineto
            -240 374 -35 65 31 vvcurveto
            14 21 13 13 4 vhcurveto
            -5 16 rlineto
            -3 -22 -35 -3 -36 hhcurveto
            return
          </CharString>
          <CharString index="41">
            398 rmoveto
            8 -20 5 -19 5 -21 22 5 rcurveline
            -3 18 -2 18 18 vvcurveto
            27 3 26 9 26 vhcurveto
            -11 9 -68 -15 -92 -9 -69 -2 rlinecurve
            -4 10 -2 7 -3 10 -21 -4 rcurveline
            3 -21 2 -33 -3 -53 -10 -175 rcurveline
            12 -9 rlineto
            12 22 23 5 25 hhcurveto
            92 49 -60 -92 -60 callgsubr
            129 -77 72 -129 4 vhcurveto
            -26 -6 -16 -11 -23 -13 11 155 rcurveline
            4 5 rlineto
            0 14 -7 9 -3 vhcurveto
            50 53 2 5 50 hvcurveto
            endchar
          </CharString>
          <CharString index="42">
            rmoveto
            38 45 -7 -38 -14 -4 -10 -5 -7 hvcurveto
            -3 -5 -11 -2 -10 hhcurveto
            -25 -25 11 14 -18 hvcurveto
            -4 -2 rlineto
            return
          </CharString>
          <CharString index="43">
            77 callsubr
            37 -8 113 43 callsubr
            return
          </CharString>
          <CharString index="44">
            rmoveto
            97 52 84 80 55 vhcurveto
            -10 15 rlineto
            -103 -44 -91 -119 -110 vvcurveto
            -83 43 -51 83 vhcurveto
            50 14 68 56 22 46 rrcurveto
            93 -46 40 -93 vhcurveto
            -13 -15 -8 -7 -15 -12 rrcurveto
            -8 vlineto
            2 7 7 1 7 hhcurveto
            58 26 -42 -58 -16 -3 -18 -7 -14 hvcurveto
            -10 -11 -18 -4 -16 hhcurveto
            -55 -14 53 55 hvcurveto
            endchar
          </CharString>
          <CharString index="45">
            13 -21 29 21 callgsubr
            return
          </CharString>
          <CharString index="46">
            -4 -34 -34 -2 -34 hhcurveto
            -35 -35 3 5 -35 hvcurveto
            -2 -19 17 -6 29 -9 17 -4 rlinecurve
            9 -72 2 -32 -129 vvcurveto
            -48 -18 -87 -92 -51 hhcurveto
            -43 0 83 51 1 hvcurveto
            2 105 9 125 8 50 rrcurveto
            return
          </CharString>
          <CharString index="47">
            397 566 rmoveto
            2 -30 1 -33 -30 vvcurveto
            25 hlineto
            5 75 25 60 51 56 -19 13 rcurveline
            -13 -12 -13 -10 -16 -8 rrcurveto
            return
          </CharString>
          <CharString index="48">
            -25 callgsubr
            4 -30 7 -90 -138 vvcurveto
            -59 vlineto
            -94 -7 -134 -4 -30 vhcurveto
            -24 -4 -49 -11 -23 -8 3 callsubr
            9 80 64 1 80 hhcurveto
            return
          </CharString>
          <CharString index="49">
            90 119 hvcurveto
            43 vlineto
            4 27 19 1 32 hhcurveto
            35 -13 callsubr
            -39 -18 -48 -4 -43 hhcurveto
            -27 -23 1 6 -27 hvcurveto
            3 69 4 63 6 52 3 24 3 18 6 18 rrcurveto
            return
          </CharString>
          <CharString index="50">
            46 -7 51 -16 34 -22 3 3 rcurveline
            8 -7 18 -1 7 vhcurveto
            14 5 31 9 4 8 -5 9 -30 9 -14 4 rrcurveto
            1 7 7 18 8 vvcurveto
            -3 3 -34 -22 -50 -16 -46 -7 rlinecurve
            4 51 15 61 25 39 -3 3 rcurveline
            -8 -18 -7 -1 -7 hvcurveto
            -4 14 -10 31 -8 4 -8 -4 -10 -31 -4 -14 rrcurveto
            1 -7 -18 7 -8 hhcurveto
            -3 -3 25 -39 15 -61 4 -51 rlinecurve
            -46 7 -51 16 -33 22 -3 -3 rcurveline
            -8 7 -18 1 -7 vhcurveto
            -14 -4 -30 -9 -5 -9 4 -8 31 -9 14 -5 rrcurveto
            -1 -7 -7 -18 -8 vvcurveto
            3 -3 34 22 51 16 46 7 rlinecurve
            -1 return
          </CharString>
          <CharString index="51">
            69 callsubr
            rrcurveto
            21 vlineto
            -15 -24 3 5 -15 hvcurveto
            -27 callsubr
            return
          </CharString>
          <CharString index="52">
            -89 callsubr
            endchar
          </CharString>
          <CharString index="53">
            585 rmoveto
            -56 -15 -91 -67 -31 -49 rrcurveto
            -70 44 -45 51 -37 vhcurveto
            hintmask 11100100
            -54 -37 -63 -74 -61 vvcurveto
            -85 86 -60 85 vhcurveto
            77 25 83 80 29 76 rrcurveto
            85 -66 46 -64 40 vhcurveto
            hintmask 11101000
            44 31 65 67 50 vvcurveto
            70 -69 30 -70 vhcurveto
            72 -439 rmoveto
            -25 -5 -27 -10 -23 vhcurveto
            -20 -17 -22 -4 -26 hhcurveto
            -61 -57 48 61 50 22 51 40 31 hvcurveto
            66 -45 70 -36 -61 vvcurveto
            hintmask 11011000
            -163 320 rmoveto
            11 4 18 3 5 vhcurveto
            12 11 27 11 25 hhcurveto
            48 38 -16 -48 -44 -23 -35 -33 -30 hvcurveto
            -53 33 -47 32 51 vvcurveto
            endchar
          </CharString>
          <CharString index="54">
            188 417 rmoveto
            1 93 3 99 10 55 16 8 17 10 14 11 -5 18 rcurveline
            -67 -19 -55 -9 -69 -5 rrcurveto
            -21 vlineto
            16 22 -3 -5 16 hvcurveto
            6 -61 2 -78 -1 -93 return
          </CharString>
          <CharString index="55">
            rmoveto
            -127 24 75 -65 73 hhcurveto
            56 88 62 152 26 hvcurveto
            128 -26 -71 65 -73 hhcurveto
            -56 -92 -62 -153 -24 hvcurveto
            172 187 rmoveto
            57 -20 30 -86 -69 vvcurveto
            -70 -30 -86 -57 -19 vhcurveto
            -57 19 -31 86 70 vvcurveto
            69 31 86 57 20 vhcurveto
            endchar
          </CharString>
          <CharString index="56">
            39 55 4 -1 rcurveline
            -50 -3 return
          </CharString>
          <CharString index="57">
            50 36 81 callgsubr
            -25 7 -43 8 -28 57 callsubr
            133 94 vvcurveto
            59 vlineto
            138 9 93 4 30 vhcurveto
            30 3 40 10 29 7 -3 23 rcurveline
            return
          </CharString>
          <CharString index="58">
            rmoveto
            -26 46 -5 56 -2 56 rrcurveto
            -25 hlineto
            -3 -32 -6 -49 -10 -31 rrcurveto
            -14 -31 -46 -4 -34 hhcurveto
            -22 -32 2 3 -20 hvcurveto
            -5 return
          </CharString>
          <CharString index="59">
            616 rmoveto
            -70 callgsubr
            24 rcurveline
            return
          </CharString>
          <CharString index="60">
            -64 callgsubr
            2 24 -28 -79 callgsubr
            -32 65 -5 157 108 vvcurveto
            168 vlineto
            4 2 rlineto
            229 -357 72 -137 -44 vvcurveto
            return
          </CharString>
          <CharString index="61">
            vhcurveto
            16 8 17 10 14 11 -5 18 rcurveline
            return
          </CharString>
          <CharString index="62">
            12 28 38 6 34 hhcurveto
            12 21 -2 -3 10 hvcurveto
            5 -58 8 -104 -92 vvcurveto
            -59 vlineto
            -138 -7 -90 -4 -30 vhcurveto
            -23 -3 -51 -11 -22 -7 3 callsubr
            return
          </CharString>
          <CharString index="63">
            rmoveto
            -10 17 -30 24 -14 9 -17 -9 -28 -24 -9 -17 return
          </CharString>
          <CharString index="64">
            -95 callsubr
            -5 34 -7 106 -1 153 rrcurveto
            5 53 43 2 53 hhcurveto
            53 39 -2 -5 53 hvcurveto
            -1 -153 -7 -106 -3 -31 -23 -3 -51 -11 -22 -7 3 callsubr
            return
          </CharString>
          <CharString index="65">
            -88 callgsubr
            endchar
          </CharString>
          <CharString index="66">
            -20 16 -13 9 -12 23 rrcurveto
            -8 hlineto
            -12 -23 -14 -9 -20 -16 rrcurveto
            -6 vlineto
            20 -15 14 -15 12 -23 rrcurveto
            8 hlineto
            11 23 14 15 20 16 rrcurveto
            return
          </CharString>
          <CharString index="67">
            14 -51 -38 5 -52 hhcurveto
            -94 -25 -83 -77 -46 -82 rrcurveto
            -84 75 -43 84 -5 vhcurveto
            -4 vlineto
            return
          </CharString>
          <CharString index="68">
            372 -15 rmoveto
            -56 callsubr
            185 5 99 10 55 vhcurveto
            16 8 17 10 14 11 -5 18 rcurveline
            -35 -10 -36 -8 -36 -6 -9 14 -9 22 -5 17 -21 -6 rcurveline
            21 -83 3 -103 -172 11 callgsubr
            return
          </CharString>
          <CharString index="69">
            rmoveto
            -143 -30 132 143 72 13 84 38 65 hvcurveto
            -105 callgsubr
            endchar
          </CharString>
          <CharString index="70">
            vhcurveto
            -21 6 -5 -17 -9 -22 -9 -14 rlinecurve
            return
          </CharString>
          <CharString index="71">
            215 rmoveto
            145 79 130 118 77 vhcurveto
            -13 18 rlineto
            -153 -65 -120 -172 -166 vvcurveto
            -122 52 -75 122 vhcurveto
            71 20 93 84 29 67 rrcurveto
            129 -63 65 -129 vhcurveto
            -20 -19 -15 -13 -22 -16 rrcurveto
            -7 vlineto
            2 10 10 1 10 hhcurveto
            92 39 -60 -92 -30 -4 -17 -11 -28 hvcurveto
            -20 -17 -26 -4 -26 hhcurveto
            -84 -22 84 84 hvcurveto
            endchar
          </CharString>
          <CharString index="72">
            -77 43 -25 77 vhcurveto
            14 20 14 12 21 14 rrcurveto
            return
          </CharString>
          <CharString index="73">
            rmoveto
            -101 callgsubr
            hintmask 01100100
            -55 callgsubr
            hintmask 10100100
            -99 callgsubr
            -4 30 -3 81 49 vvcurveto
            return
          </CharString>
          <CharString index="74">
            -5 -46 -64 -3 -46 hhcurveto
            return
          </CharString>
          <CharString index="75">
            -5 -10 -25 -2 -11 hhcurveto
            -13 -16 1 9 -10 hvcurveto
            -7 -1 -11 -18 -14 -16 -17 -16 rlinecurve
            -16 1 14 -11 16 hhcurveto
            return
          </CharString>
          <CharString index="76">
            -45 3 -9 -50 9 -6 256 3 rlineto
            endchar
          </CharString>
          <CharString index="77">
            5 vlineto
            -4 9 -3 12 -2 10 -25 -3 -34 -1 -25 -1 return
          </CharString>
          <CharString index="78">
            3 24 -29 7 return
          </CharString>
          <CharString index="79">
            -6 -15 31 hvcurveto
            -24 4 -61 5 -24 vhcurveto
            25 hlineto
            return
          </CharString>
          <CharString index="80">
            5 281 rlineto
            85 2 -8 86 -85 hhcurveto
            -64 -21 -84 -85 58 callsubr
            return
          </CharString>
          <CharString index="81">
            -96 -74 0 11 -96 hvcurveto
            -6 -20 26 -46 5 -60 2 -52 rlinecurve
            25 hlineto
            3 32 7 49 10 31 rrcurveto
            return
          </CharString>
          <CharString index="82">
            rmoveto
            56 10 69 23 53 vhcurveto
            return
          </CharString>
          <CharString index="83">
            176 263 rmoveto
            43 15 52 95 45 15 callgsubr
            return
          </CharString>
          <CharString index="84">
            221 rmoveto
            -156 30 91 -80 88 hhcurveto
            68 108 76 187 30 hvcurveto
            156 -30 -88 81 -88 hhcurveto
            -68 -111 -77 -187 -30 hvcurveto
            209 232 rmoveto
            71 -24 39 -107 -87 vvcurveto
            -87 -39 -107 -71 -24 vhcurveto
            -71 24 -39 107 87 vvcurveto
            87 39 107 71 24 vhcurveto
            endchar
          </CharString>
          <CharString index="85">
            66 88 -66 66 hhcurveto
            56 16 68 49 27 52 -18 11 rcurveline
            -37 -31 -38 -21 -49 hhcurveto
            -62 -78 34 36 -53 hvcurveto
            -60 -7 -72 -57 -29 -53 rrcurveto
            return
          </CharString>
          <CharString index="86">
            38 39 -2 -6 38 hvcurveto
            2 19 -20 7 -43 9 -21 3 51 callsubr
            return
          </CharString>
          <CharString index="87">
            -47 callgsubr
            485 -20 return
          </CharString>
          <CharString index="88">
            -2 32 129 vvcurveto
            return
          </CharString>
          <CharString index="89">
            -20 -22 -23 -4 -29 hhcurveto
            -34 -39 10 14 -31 hvcurveto
            -5 31 -19 callsubr
            47 18 82 93 50 hhcurveto
            49 19 -105 -49 hvcurveto
            endchar
          </CharString>
          <CharString index="90">
            155 46 -146 -155 -81 -12 -77 -39 -71 hvcurveto
            -23 -26 -38 -11 -34 hhcurveto
            -39 -58 10 18 -35 hvcurveto
            -4 70 -1 92 78 vvcurveto
            return
          </CharString>
          <CharString index="91">
            vhcurveto
            -62 -134 -9 -92 hhcurveto
            -25 vlineto
            29 39 -6 -10 30 hvcurveto
            4 -34 7 -114 -135 vvcurveto
            -117 -2 -125 -22 -100 vhcurveto
            return
          </CharString>
          <CharString index="92">
            -99 callgsubr
            -4 30 -3 81 1 89 return
          </CharString>
          <CharString index="93">
            3 14 4 17 6 16 -4 4 rcurveline
            return
          </CharString>
          <CharString index="94">
            23 -81 callsubr
            return
          </CharString>
          <CharString index="95">
            9 -15 callgsubr
            return
          </CharString>
          <CharString index="96">
            34 66 -1 -2 34 hvcurveto
            -14 callsubr
            return
          </CharString>
          <CharString index="97">
            -21 111 -20 return
          </CharString>
          <CharString index="98">
            40 76 -3 -5 40 hvcurveto
            3 24 -29 -79 callgsubr
            -6 34 -7 89 return
          </CharString>
          <CharString index="99">
            -10 callsubr
            hstemhm
            return
          </CharString>
          <CharString index="100">
            -46 -50 2 6 -46 hvcurveto
            -4 return
          </CharString>
          <CharString index="101">
            -10 -123 -119 -1 -83 hhcurveto
            -113 -40 rmoveto
            2 11 14 1 11 hhcurveto
            9 14 -1 -2 9 hvcurveto
            3 -16 0 -18 -19 vvcurveto
            -27 -7 -77 -4 -89 vhcurveto
            -6 -21 -30 -1 -21 hhcurveto
            -21 -20 1 5 -19 hvcurveto
            endchar
          </CharString>
          <CharString index="102">
            471 rmoveto
            2 32 5 34 5 31 -4 2 rcurveline
            -9 -11 -1 -2 -8 hvcurveto
            return
          </CharString>
          <CharString index="103">
            rcurveline
            -1 -11 -3 -11 -3 -10 3 -4 rcurveline
            return
          </CharString>
          <CharString index="104">
            94 callsubr
            77 return
          </CharString>
          <CharString index="105">
            729 0 callsubr
            return
          </CharString>
          <CharString index="106">
            71 280 37 -23 23 100 -20 141 72 return
          </CharString>
          <CharString index="107">
            263 rmoveto
            35 2 69 7 37 vhcurveto
            -6 2 -22 -8 -24 -6 -25 -3 rlinecurve
            -50 -98 -70 -85 -71 -83 4 -12 rcurveline
            189 hlineto
            -24 -1 -25 -4 -23 vhcurveto
            -15 -3 -25 -8 -14 -6 2 -17 rcurveline
            return
          </CharString>
          <CharString index="108">
            74 -15 82 50 callsubr
            return
          </CharString>
          <CharString index="109">
            -105 -21 222 31 callsubr
            -3 -38 -23 -44 -30 -29 10 -11 rcurveline
            62 36 52 67 69 vvcurveto
            return
          </CharString>
          <CharString index="110">
            4 -25 rcurveline
            return
          </CharString>
          <CharString index="111">
            rmoveto
            -4 15 -12 23 -9 11 -8 2 -16 0 -9 -1 -30 -54 -51 -62 -51 -35 11 -18 rcurveline
            return
          </CharString>
          <CharString index="112">
            29 callsubr
            133 6 34 vhcurveto
            -70 callgsubr
            24 rcurveline
            return
          </CharString>
          <CharString index="113">
            41 26 -2 -2 24 hvcurveto
            3 21 -15 4 -20 7 -11 6 rlinecurve
            return
          </CharString>
          <CharString index="114">
            rmoveto
            -10 -16 -19 -4 -18 hhcurveto
            -86 -41 81 86 103 34 66 63 hvcurveto
            48 -10 45 -33 26 -42 rrcurveto
            5 -19 2 -22 -19 vvcurveto
            -60 -8 -68 -35 -49 vhcurveto
            endchar
          </CharString>
          <CharString index="115">
            -96 callgsubr
            -55 callgsubr
            return
          </CharString>
          <CharString index="116">
            rmoveto
            3 -31 7 -104 1 -97 rrcurveto
            -7 -53 -39 -2 -53 hhcurveto
            -53 -43 3 7 -53 hvcurveto
            1 96 5 106 5 32 -70 callgsubr
            24 rcurveline
            return
          </CharString>
          <CharString index="117">
            rmoveto
            30 2 7 64 12 85 27 70 rlinecurve
            -12 13 -18 1 -43 -10 -16 -8 rlinecurve
            return
          </CharString>
          <CharString index="118">
            -20 hstemhm
            42 89 340 89 return
          </CharString>
          <CharString index="119">
            rmoveto
            -6 6 rlineto
            -2 -26 -94 -1 -26 hhcurveto
            hintmask 01000000
            -113 -236 3 6 -113 hvcurveto
            -8 -44 rlineto
            hintmask 10000000
            8 -7 rlineto
            606 hlineto
            endchar
          </CharString>
          <CharString index="120">
            436 rmoveto
            9 -17 28 -33 17 -11 17 11 28 33 9 17 -9 17 -28 24 -17 9 -14 -9 -30 -24 -10 -17 rrcurveto
            67 -135 rmoveto
            -26 -2 return
          </CharString>
          <CharString index="121">
            -187 rcurveline
            -1 90 callgsubr
            -17 -4 -26 -9 -16 -7 3 -19 rcurveline
            return
          </CharString>
          <CharString index="122">
            3 19 -16 7 -26 9 -17 4 rlinecurve
            return
          </CharString>
          <CharString index="123">
            -5 hlineto
            -18 29 -29 28 -34 8 rrcurveto
            -120 -26 -87 -89 -123 vvcurveto
            -99 51 -81 98 -16 vhcurveto
            153 19 82 114 154 vvcurveto
            return
          </CharString>
          <CharString index="124">
            -62 callsubr
            hstemhm
            return
          </CharString>
          <CharString index="125">
            33 callsubr
            77 return
          </CharString>
          <CharString index="126">
            72 13 84 38 65 hvcurveto
            26 31 37 10 40 hhcurveto
            return
          </CharString>
          <CharString index="127">
            hstemhm
            86 72 208 70 return
          </CharString>
          <CharString index="128">
            -8 -83 -83 -3 -83 hhcurveto
            return
          </CharString>
          <CharString index="129">
            620 rmoveto
            -107 callgsubr
            return
          </CharString>
          <CharString index="130">
            26 callgsubr
            53 callsubr
            78 67 209 35 -35 66 hintmask 0000110000000000
            return
          </CharString>
          <CharString index="131">
            -6 -14 -5 -1 -6 hvcurveto
            -4 11 -8 25 -6 3 -7 -4 -7 -24 -4 -11 rrcurveto
            1 -6 -14 5 -6 hhcurveto
            -2 -2 return
          </CharString>
          <CharString index="132">
            294 rmoveto
            80 -40 111 -80 vhcurveto
            -63 -25 return
          </CharString>
          <CharString index="133">
            58 -15 79 414 95 callgsubr
            return
          </CharString>
          <CharString index="134">
            hstemhm
            45 80 238 80 return
          </CharString>
          <CharString index="135">
            -15 62 376 62 return
          </CharString>
          <CharString index="136">
            0 callgsubr
            94 7 return
          </CharString>
          <CharString index="137">
            rlinecurve
            12 -26 10 -30 9 -28 rrcurveto
            118 -368 15 -82 -38 18 callgsubr
            return
          </CharString>
          <CharString index="138">
            -20 hstem
            160 46 -72 callgsubr
            return
          </CharString>
          <CharString index="139">
            12 8 rlineto
            -5 21 -2 return
          </CharString>
          <CharString index="140">
            -20 hstemhm
            103 80 275 return
          </CharString>
          <CharString index="141">
            -98 -38 -81 -98 -13 -105 -17 -5 -21 -6 -15 -6 rrcurveto
            56 callsubr
            return
          </CharString>
          <CharString index="142">
            hhcurveto
            -47 -77 -52 -129 -20 hvcurveto
            return
          </CharString>
          <CharString index="143">
            -21 185 -20 return
          </CharString>
          <CharString index="144">
            58 callsubr
            185 5 99 10 55 -46 callsubr
            return
          </CharString>
          <CharString index="145">
            25 40 41 11 47 hhcurveto
            28 28 -5 -16 24 hvcurveto
            return
          </CharString>
          <CharString index="146">
            -5 -37 -54 -3 -50 hhcurveto
            -32 -31 1 3 -23 hvcurveto
            return
          </CharString>
          <CharString index="147">
            3 5 -46 hvcurveto
            -3 -24 29 -7 51 return
          </CharString>
          <CharString index="148">
            413 hmoveto
            32 32 -2 -4 32 hvcurveto
            return
          </CharString>
          <CharString index="149">
            20 22 23 4 29 hhcurveto
            return
          </CharString>
          <CharString index="150">
            170 vvcurveto
            101 return
          </CharString>
          <CharString index="151">
            -79 -21 106 -21 518 37 30 -20 48 -20 hstem
            106 143 248 143 return
          </CharString>
          <CharString index="152">
            -13 callgsubr
            -105 -9 -125 -8 -50 return
          </CharString>
          <CharString index="153">
            96 6 -39 47 -96 hhcurveto
            -81 -76 -64 -78 -35 hvcurveto
            4 -28 9 -32 14 -24 rrcurveto
            return
          </CharString>
          <CharString index="154">
            -142 -47 callgsubr
            657 -20 74 -20 return
          </CharString>
          <CharString index="155">
            hvcurveto
            32 callsubr
            return
          </CharString>
          <CharString index="156">
            5 119 5 34 vhcurveto
            3 return
          </CharString>
          <CharString index="157">
            356 62 32 -20 return
          </CharString>
          <CharString index="158">
            rlinecurve
            -9 72 -19 callsubr
            return
          </CharString>
          <CharString index="159">
            15 -52 -34 6 -54 hhcurveto
            -128 return
          </CharString>
          <CharString index="160">
            70 36 callgsubr
            return
          </CharString>
          <CharString index="161">
            2 -2 rlineto
            54 return
          </CharString>
          <CharString index="162">
            22 -22 23 -22 -22 -23 -23 -22 -22 23 -24 22 22 22 24 22 vhcurveto
            return
          </CharString>
          <CharString index="163">
            -19 callgsubr
            54 callsubr
            return
          </CharString>
          <CharString index="164">
            3 rlinecurve
            -6 34 -7 return
          </CharString>
          <CharString index="165">
            -39 60 callsubr
            return
          </CharString>
          <CharString index="166">
            rmoveto
            -72 callsubr
            return
          </CharString>
          <CharString index="167">
            -55 -4 1 rcurveline
            return
          </CharString>
          <CharString index="168">
            -21 33 -21 657 -20 74 -20 hstemhm
            111 70 183 80 return
          </CharString>
          <CharString index="169">
            62 -47 71 102 57 -57 71 hintmask 11011000
            return
          </CharString>
          <CharString index="170">
            4 67 9 41 46 50 rrcurveto
            return
          </CharString>
          <CharString index="171">
            78 callgsubr
            108 return
          </CharString>
          <CharString index="172">
            -20 hstemhm
            43 callgsubr
            return
          </CharString>
          <CharString index="173">
            -4 4 rcurveline
            -142 -5 rlineto
            return
          </CharString>
          <CharString index="174">
            -179 -21 221 -21 return
          </CharString>
          <CharString index="175">
            -20 hstemhm
            91 98 -86 74 return
          </CharString>
          <CharString index="176">
            48 11 39 6 48 2 return
          </CharString>
          <CharString index="177">
            -21 170 -20 return
          </CharString>
          <CharString index="178">
            -8 -50 vhcurveto
            7 return
          </CharString>
          <CharString index="179">
            hvcurveto
            -6 vlineto
            hintmask 10101001
            31 -37 42 -8 -41 vvcurveto
            hintmask 10101010
            return
          </CharString>
          <CharString index="180">
            -100 212 -203 -21 171 53 373 -20 hstemhm
            return
          </CharString>
          <CharString index="181">
            10 -115 62 261 250 -60 60 27 -20 hstemhm
            return
          </CharString>
          <CharString index="182">
            97 -8 callsubr
            42 89 return
          </CharString>
          <CharString index="183">
            94 callsubr
            53 345 48 return
          </CharString>
          <CharString index="184">
            -12 callsubr
            -5 return
          </CharString>
          <CharString index="185">
            -115 62 261 63 120 68 27 -20 hstem
            return
          </CharString>
          <CharString index="186">
            4 38 37 2 38 hhcurveto
            return
          </CharString>
          <CharString index="187">
            -20 150 37 11 -20 return
          </CharString>
          <CharString index="188">
            hstemhm
            68 56 154 56 return
          </CharString>
          <CharString index="189">
            1 15 19 1 15 hhcurveto
            return
          </CharString>
          <CharString index="190">
            hvcurveto
            6 vlineto
            hintmask 10101010
            -32 37 -43 8 42 vvcurveto
            return
          </CharString>
          <CharString index="191">
            82 -56 44 0 166 72 -20 hstemhm
            103 74 return
          </CharString>
          <CharString index="192">
            -21 355 52 hstem
            229 81 vstem
            182 return
          </CharString>
          <CharString index="193">
            4 11 rrcurveto
            -1 6 14 -5 6 hhcurveto
            2 2 return
          </CharString>
          <CharString index="194">
            2 -2 rcurveline
            6 14 5 1 6 hvcurveto
            4 -11 return
          </CharString>
          <CharString index="195">
            22 callgsubr
            30 3 return
          </CharString>
          <CharString index="196">
            hstemhm
            144 77 211 94 return
          </CharString>
          <CharString index="197">
            -215 51 149 return
          </CharString>
          <CharString index="198">
            9 26 25 4 27 hhcurveto
            92 37 -50 -92 return
          </CharString>
          <CharString index="199">
            4 34 vhcurveto
            10 30 39 6 29 hhcurveto
            25 return
          </CharString>
          <CharString index="200">
            hhcurveto
            76 26 58 53 49 65 -14 13 rcurveline
            return
          </CharString>
          <CharString index="201">
            -20 hstemhm
            130 return
          </CharString>
        <CharString name=".notdef">
          -260 endchar
        </CharString>
        <CharString name=".null">
          -440 endchar
        </CharString>
        <CharString name="A">
          -40 callgsubr
          57 callgsubr
          0 77 hintmask 10101100
          98 662 -74 callgsubr
          hintmask 01110100
          5 37 54 3 50 hhcurveto
          32 41 -1 -3 23 hvcurveto
          4 14 rlineto
          -35 20 -8 32 39 vvcurveto
          38 14 71 10 41 vhcurveto
          5 36 37 1 36 hhcurveto
          35 41 -2 -4 35 hvcurveto
          -2 -91 -5 -88 -4 -34 -23 -3 -51 -11 -22 -7 rrcurveto
          hintmask 10110100
          4 -25 rlineto
          hintmask 01110100
          -70 callsubr
          hintmask 10101010
          -95 callsubr
          -5 37 -8 112 170 vvcurveto
          94 8 131 5 37 -53 callgsubr
          hintmask 10110100
          21 callsubr
          hintmask 10101100
          -84 callsubr
          hintmask 10110100
          -9 callgsubr
        </CharString>
        <CharString name="AE">
          55 callgsubr
          hstemhm
          143 199 0 82 hintmask 10111010
          398 651 rmoveto
          hintmask 01110110
          -31 callgsubr
          hintmask 10111001
          -157 -2 42 -110 157 93 callsubr
          -42 -41 -50 -36 -57 hhcurveto
          -119 -17 -58 callsubr
          4 22 32 1 22 hhcurveto
          34 43 -28 callsubr
          hintmask 10110110
          4 58 14 58 41 42 -4 20 rcurveline
          hintmask 10111010
          -6 callsubr
        </CharString>
        <CharString name="AEacute">
          55 callgsubr
          101 -21 146 -20 hstemhm
          143 199 0 82 hintmask 0000001100000000
          614 797 -89 callsubr
          hintmask 1011100010000000
          -10 -71 rmoveto
          hintmask 0111010010000000
          -31 callgsubr
          hintmask 1011100001000000
          -157 -2 42 -110 157 93 callsubr
          -42 -41 -50 -36 -57 hhcurveto
          -119 -17 -58 callsubr
          4 22 32 1 22 hhcurveto
          34 43 -28 callsubr
          hintmask 1011010010000000
          4 58 14 58 41 42 -4 20 rcurveline
          hintmask 1011100010000000
          -6 callsubr
        </CharString>
        <CharString name="Aacute">
          -40 callgsubr
          101 -21 146 -105 callsubr
          248 503 -55 callsubr
        </CharString>
        <CharString name="Abreve">
          -40 callgsubr
          77 66 69 -20 57 callgsubr
          0 77 hintmask 0000011000000000
          191 829 -98 callsubr
          hintmask 1010100100000000
          -94 -176 -74 callgsubr
          hintmask 0111000100000000
          5 37 54 3 50 hhcurveto
          32 41 -1 -3 23 hvcurveto
          4 14 rlineto
          -35 20 -8 32 39 vvcurveto
          38 14 71 10 41 vhcurveto
          5 36 37 1 36 hhcurveto
          35 41 -2 -4 35 hvcurveto
          -2 -91 -5 -88 -4 -34 -23 -3 -51 -11 -22 -7 rrcurveto
          hintmask 1011000100000000
          53 callgsubr
          -70 callsubr
          hintmask 1010100010000000
          -95 callsubr
          -5 37 -8 112 170 vvcurveto
          94 8 131 5 37 -53 callgsubr
          hintmask 1011000100000000
          21 callsubr
          hintmask 1010100100000000
          -84 callsubr
          hintmask 1011000100000000
          -9 callgsubr
        </CharString>
        <CharString name="Acircumflex">
          -40 callgsubr
          94 -21 170 -105 callsubr
          228 421 -42 callsubr
        </CharString>
        <CharString name="Adieresis">
          -40 callgsubr
          121 -21 111 -105 callsubr
          29 509 -104 callgsubr
        </CharString>
        <CharString name="Agrave">
          -40 callgsubr
          110 -21 146 -105 callsubr
          89 437 -48 callgsubr
        </CharString>
        <CharString name="Amacron">
          -40 callgsubr
          132 28 callgsubr
          148 244 0 77 hintmask 0000010000000000
          485 822 72 callgsubr
          -3 -34 -40 -1 -34 60 callgsubr
          2 -33 hvcurveto
          hintmask 0000001100000000
          -45 3 -9 -50 9 -6 256 3 rlineto
          hintmask 1010100010000000
          -378 -114 -80 callsubr
          endchar
        </CharString>
        <CharString name="Aogonek">
          159 -215 51 185 -21 257 37 320 37 11 -20 57 callgsubr
          -154 66 88 77 hintmask 11101100
          98 662 rmoveto
          -3 -24 29 -7 53 -9 29 -3 rlinecurve
          -164 25 callgsubr
          -35 20 -8 32 39 vvcurveto
          38 14 71 10 41 vhcurveto
          5 36 37 1 36 hhcurveto
          35 41 -2 -4 35 hvcurveto
          -2 -91 -5 -88 -4 -34 -48 -41 rcurveline
          hintmask 11101011
          -39 -33 -40 -36 -16 -41 -27 callgsubr
          62 67 40 62 -95 callsubr
          -5 37 -8 112 170 vvcurveto
          94 8 131 5 37 -53 callgsubr
          hintmask 11110100
          21 callsubr
          hintmask 11101100
          -84 callsubr
          hintmask 11110100
          -9 callgsubr
        </CharString>
        <CharString name="Aring">
          -40 callgsubr
          62 35 111 35 57 callgsubr
          -149 47 99 47 -44 77 hintmask 1010100100000000
          98 662 -74 callgsubr
          hintmask 0111000100000000
          5 37 54 3 50 hhcurveto
          32 41 -1 -3 23 hvcurveto
          4 14 rlineto
          -35 20 -8 32 39 vvcurveto
          38 14 71 10 41 vhcurveto
          5 36 37 1 36 hhcurveto
          35 41 -2 -4 35 hvcurveto
          -2 -91 -5 -88 -4 -34 -23 -3 -51 -11 -22 -7 rrcurveto
          hintmask 1011000100000000
          53 callgsubr
          -70 callsubr
          hintmask 1010100000100000
          -95 callsubr
          -5 37 -8 112 170 vvcurveto
          94 8 131 5 37 -53 callgsubr
          hintmask 1011000100000000
          21 callsubr
          hintmask 1010100100000000
          -84 callsubr
          hintmask 1011000100000000
          -83 callsubr
          hintmask 0000011011000000
          -38 483 rmoveto
          -89 callgsubr
        </CharString>
        <CharString name="Atilde">
          -40 callgsubr
          95 34 callgsubr
          148 244 0 77 hintmask 1010100010000000
          98 662 -80 callsubr
          hintmask 0000001100000000
          -80 450 -6 callgsubr
          hintmask 0000010100000000
          -92 callsubr
        </CharString>
        <CharString name="B">
          136 -1 -21 28 -21 360 23 253 37 hstemhm
          125 77 204 94 -64 64 -64 92 hintmask 01111001
          292 -15 rmoveto
          109 29 127 111 112 vvcurveto
          91 -71 40 -91 vhcurveto
          4 vlineto
          hintmask 10111010
          69 29 65 64 74 vvcurveto
          109 -87 10 -109 -16 callsubr
          41 callgsubr
          hintmask 01111010
          -19 42 66 -19 39 hhcurveto
          -46 360 rmoveto
          115 75 -39 -115 -33 -9 -47 -14 -30 hvcurveto
          -16 -23 -37 -8 -28 hhcurveto
          -39 -44 9 19 -35 hvcurveto
          -4 70 -1 92 78 -4 callgsubr
          hintmask 10111100
          77 42 -35 -77 -40 -10 -37 -26 -29 hvcurveto
          -20 -31 -40 -1 -36 hhcurveto
          -12 hlineto
          endchar
        </CharString>
        <CharString name="C">
          26 callsubr
          hstem
          42 89 vstem
          304 64 -38 callsubr
        </CharString>
        <CharString name="CR">
          -260 endchar
        </CharString>
        <CharString name="Cacute">
          26 callsubr
          77 -21 146 -20 hstemhm
          42 89 hintmask 00011000
          477 797 -89 callsubr
          hintmask 11100100
          33 -658 -38 callsubr
        </CharString>
        <CharString name="Ccaron">
          26 callsubr
          52 callgsubr
          hintmask 00011000
          304 810 -75 callsubr
          hintmask 11100100
          -161 -821 -38 callsubr
        </CharString>
        <CharString name="Ccedilla">
          58 50 callgsubr
          79 -48 -20 482 95 callgsubr
          hstemhm
          42 89 167 61 hintmask 00101110
          304 64 rmoveto
          -143 -30 132 143 72 13 84 38 65 hvcurveto
          -105 callgsubr
          hintmask 01010001
          -89 -161 -65 callsubr
          hintmask 10010001
          -79 callsubr
        </CharString>
        <CharString name="Ccircumflex">
          26 callsubr
          52 callgsubr
          hintmask 00011000
          465 715 -88 callgsubr
          hintmask 11100100
          -726 vmoveto
          -143 -30 132 143 72 13 84 38 65 hvcurveto
          -105 callgsubr
          endchar
        </CharString>
        <CharString name="Cdotaccent">
          26 callsubr
          75 callsubr
          hintmask 11100100
          304 64 rmoveto
          -143 -30 132 143 72 13 84 38 65 hvcurveto
          -105 callgsubr
          hintmask 00011000
          54 739 rmoveto
          -97 callsubr
        </CharString>
        <CharString name="D">
          179 -15 72 -58 -21 643 37 hstemhm
          125 77 286 89 hintmask 10111000
          306 -15 rmoveto
          172 49 99 174 178 vvcurveto
          179 -94 93 -179 -16 callsubr
          hintmask 01111000
          41 callgsubr
          hintmask 10111000
          -21 49 59 -17 53 hhcurveto
          -19 636 rmoveto
          -17 callsubr
          174 2 36 7 73 vhcurveto
          9 25 25 4 26 hhcurveto
          endchar
        </CharString>
        <CharString name="Dcaron">
          179 -15 72 -58 -21 643 37 78 36 callgsubr
          125 77 286 89 hintmask 00011000
          308 810 -75 callsubr
          hintmask 10100110
          -163 -900 rmoveto
          172 49 99 174 178 vvcurveto
          179 -94 93 -179 -16 callsubr
          hintmask 01100110
          41 callgsubr
          hintmask 10100110
          -21 49 59 -17 53 hhcurveto
          -19 636 rmoveto
          -17 callsubr
          174 2 36 7 73 vhcurveto
          9 25 25 4 26 hhcurveto
          endchar
        </CharString>
        <CharString name="Delta">
          0 53 613 -20 hstem
          552 46 rmoveto
          -108 222 -70 164 -77 234 -47 -15 rcurveline
          -65 -197 -110 -255 -98 -192 8 -7 rcurveline
          558 hlineto
          -282 549 rmoveto
          5 1 201 -491 rlineto
          -5 -18 -37 -1 -38 hhcurveto
          -153 -119 5 6 -43 hvcurveto
          endchar
        </CharString>
        <CharString name="E">
          7 callgsubr
          hstem
          42 89 vstem
          304 64 rmoveto
          -138 -33 122 137 -2 hvcurveto
          4 32 39 1 42 hhcurveto
          45 36 -81 callsubr
          -35 -17 -47 -8 -68 hhcurveto
          -42 -38 2 6 -32 hvcurveto
          3 63 15 69 32 55 rrcurveto
          -105 callgsubr
          endchar
        </CharString>
        <CharString name="Eacute">
          7 callgsubr
          77 -21 146 -20 hstemhm
          42 89 hintmask 11110010
          304 64 rmoveto
          -138 -33 122 137 -2 hvcurveto
          4 32 39 1 42 hhcurveto
          45 36 -81 callsubr
          -35 -17 -47 -8 -68 hhcurveto
          -42 -38 2 6 -32 hvcurveto
          3 63 15 69 32 55 rrcurveto
          -105 callgsubr
          hintmask 00001100
          152 733 -55 callsubr
        </CharString>
        <CharString name="Ealternate">
          73 -15 -1 callsubr
          11 -20 hstemhm
          50 94 -63 63 -63 92 224 28 hintmask 1101011001000000
          -60 callsubr
          hintmask 1011100101000000
          -40 callsubr
          hintmask 1101101001000000
          -87 callsubr
          hintmask 1101100011000000
          -38 callgsubr
          endchar
        </CharString>
        <CharString name="Ebreve">
          73 -15 -1 callsubr
          11 -20 62 66 69 -20 hstemhm
          50 94 -63 63 -63 92 224 28 hintmask 1101010010010000
          -60 callsubr
          hintmask 1011100001010000
          -40 callsubr
          hintmask 1101100010010000
          -87 callsubr
          hintmask 1101100000110000
          -38 callgsubr
          hintmask 0000001100000000
          -250 263 -98 callsubr
          endchar
        </CharString>
        <CharString name="Ecaron">
          73 -15 -1 callsubr
          219 -20 hstemhm
          50 94 -63 63 -63 92 224 28 hintmask 1011110101000000
          -60 callsubr
          -40 callsubr
          hintmask 1101111001000000
          -87 callsubr
          hintmask 1101110011000000
          -38 callgsubr
          -94 244 -75 callsubr
          endchar
        </CharString>
        <CharString name="Ecircumflex">
          7 callgsubr
          52 callgsubr
          hintmask 11110010
          304 64 rmoveto
          -138 -33 122 137 -2 hvcurveto
          4 32 39 1 42 hhcurveto
          45 36 -81 callsubr
          -35 -17 -47 -8 -68 hhcurveto
          -42 -38 2 6 -32 hvcurveto
          3 63 15 69 32 55 rrcurveto
          -105 callgsubr
          hintmask 00001100
          168 651 -42 callsubr
        </CharString>
        <CharString name="Edieresis">
          7 callgsubr
          75 callsubr
          hintmask 11110010
          304 64 rmoveto
          -138 -33 122 137 -2 hvcurveto
          4 32 39 1 42 hhcurveto
          45 36 -81 callsubr
          -35 -17 -47 -8 -68 hhcurveto
          -42 -38 2 6 -32 hvcurveto
          3 63 15 69 32 55 rrcurveto
          -105 callgsubr
          hintmask 00001100
          -32 739 -104 callgsubr
        </CharString>
        <CharString name="Edotaccent">
          73 -15 -1 callsubr
          11 -20 106 -8 callsubr
          50 94 -63 63 -63 92 224 28 hintmask 1101010010010000
          -60 callsubr
          hintmask 1011100001010000
          -40 callsubr
          hintmask 1101100010010000
          -87 callsubr
          hintmask 1101100000110000
          -38 callgsubr
          hintmask 0000001100000000
          -39 237 rmoveto
          -97 callsubr
        </CharString>
        <CharString name="Egrave">
          7 callgsubr
          86 -21 146 -20 hstemhm
          42 89 hintmask 11110010
          304 64 rmoveto
          -138 -33 122 137 -2 hvcurveto
          4 32 39 1 42 hhcurveto
          45 36 -81 callsubr
          -35 -17 -47 -8 -68 hhcurveto
          -42 -38 2 6 -32 hvcurveto
          3 63 15 69 32 55 rrcurveto
          -105 callgsubr
          hintmask 00001100
          58 667 -48 callgsubr
        </CharString>
        <CharString name="Emacron">
          73 -15 -1 callsubr
          11 -20 117 28 callgsubr
          50 94 -63 63 -63 92 224 28 hintmask 1101010001001000
          -60 callsubr
          hintmask 1011100000101000
          -40 callsubr
          hintmask 1101100001001000
          -87 callsubr
          hintmask 1101100000011000
          -38 callgsubr
          hintmask 0000001000000000
          44 256 72 callgsubr
          -3 -34 -40 -1 -34 60 callgsubr
          2 -33 hvcurveto
          hintmask 0000000110000000
          -31 callsubr
        </CharString>
        <CharString name="Eogonek">
          73 90 callsubr
          -1 callsubr
          11 -20 hstemhm
          50 94 -63 63 -63 92 27 66 131 28 hintmask 1110101100110000
          -60 callsubr
          hintmask 1101110010110000
          -40 callsubr
          hintmask 1110110100110000
          -95 -95 -66 -95 -130 107 -65 128 -5 hvcurveto
          -36 -26 -35 -36 -14 -36 -27 callgsubr
          43 47 34 50 39 hvcurveto
          57 44 62 50 75 vvcurveto
          16 -11 14 -16 1 vhcurveto
          -16 -17 -16 -14 -18 -11 -1 -7 rcurveline
          9 -10 1 -16 -13 vvcurveto
          -11 -2 -25 -5 -10 vhcurveto
          -19 -29 -31 -5 -34 hhcurveto
          -92 -77 48 102 95 87 35 95 hvcurveto
          12 hlineto
          5 37 rlineto
          hintmask 1110110001110000
          -38 callgsubr
          endchar
        </CharString>
        <CharString name="Eth">
          179 -15 72 -58 -21 349 25 269 37 hstemhm
          125 77 286 89 hintmask 10111100
          306 -15 -16 callgsubr
          3 -32 7 -100 1 -122 -102 -3 -4 callsubr
          22 3 43 4 41 2 rrcurveto
          -117 -2 -125 -22 -99 vhcurveto
          hintmask 01111100
          41 callgsubr
          hintmask 10111100
          -21 49 59 -17 53 hhcurveto
          -71 341 rmoveto
          122 2 rlineto
          -30 callsubr
          -62 -2 rcurveline
          144 2 39 7 68 vhcurveto
          9 25 25 4 26 hhcurveto
          -17 callsubr
          endchar
        </CharString>
        <CharString name="Euro">
          16 -16 73 155 29 51 29 152 65 hstem
          75 81 vstem
          256 211 rmoveto
          122 2 rlineto
          -30 callsubr
          -131 -5 rcurveline
          -1 11 1 10 11 vvcurveto
          17 vlineto
          102 3 122 2 rlineto
          -30 callsubr
          -128 -5 rcurveline
          6 44 13 47 17 36 rrcurveto
          21 24 21 6 32 hhcurveto
          36 24 -6 -8 24 hvcurveto
          3 -24 0 -15 -25 vvcurveto
          22 hlineto
          4 46 10 30 29 37 rrcurveto
          14 vlineto
          13 -49 -32 3 -50 hhcurveto
          -102 -30 -71 -88 -29 -103 -53 -2 -4 callsubr
          12 2 18 2 20 1 -3 -16 -3 -16 -1 -16 -39 -1 -4 callsubr
          43 5 rlineto
          -126 2 53 -94 127 hhcurveto
          63 26 56 47 37 53 -10 10 rcurveline
          -32 -35 -47 -31 -46 hhcurveto
          -89 -24 67 84 -6 hvcurveto
          endchar
        </CharString>
        <CharString name="F">
          48 13 -21 29 79 callgsubr
          hstemhm
          130 77 hintmask 10110110
          498 662 rmoveto
          hintmask 10111010
          -7 -63 -81 -4 -63 hhcurveto
          -83 -100 2 8 -83 hvcurveto
          -4 -25 22 -7 51 -13 -7 callgsubr
          5 -57 8 -107 -94 vvcurveto
          -59 vlineto
          -138 -7 -90 -4 -30 vhcurveto
          -23 -3 -51 -11 -22 -7 3 callsubr
          hintmask 01111010
          -70 callsubr
          hintmask 10111010
          59 callgsubr
          33 -7 93 -1 155 rrcurveto
          4 32 20 1 32 hhcurveto
          25 -13 callsubr
          -35 -17 -34 -8 -48 hhcurveto
          -32 -20 2 6 -32 hvcurveto
          90 49 callsubr
          20 32 2 22 hhcurveto
          34 53 -28 callsubr
          hintmask 10110110
          4 58 14 58 41 42 rrcurveto
          endchar
        </CharString>
        <CharString name="G">
          20 callgsubr
          hstemhm
          42 89 272 37 -37 66 hintmask 10111100
          303 64 -84 callgsubr
          hintmask 01111010
          -67 callgsubr
          hintmask 10111100
          80 callgsubr
          endchar
        </CharString>
        <CharString name="Gbreve">
          20 callgsubr
          53 66 69 -71 callsubr
          -156 765 -98 callsubr
          endchar
        </CharString>
        <CharString name="Gcircumflex">
          20 callgsubr
          52 callgsubr
          272 37 -37 66 hintmask 0000110000000000
          465 715 -88 callgsubr
          hintmask 1011001100000000
          -1 -726 -84 callgsubr
          hintmask 0111001010000000
          -67 callgsubr
          hintmask 1011001100000000
          80 callgsubr
          endchar
        </CharString>
        <CharString name="Gdotaccent">
          20 callgsubr
          97 -21 111 -71 callsubr
          55 739 rmoveto
          -97 callsubr
        </CharString>
        <CharString name="H">
          268 -47 callgsubr
          335 37 279 -20 28 -3 callsubr
          294 77 hintmask 10101110
          490 613 9 callsubr
          hintmask 10110110
          -33 callsubr
          hintmask 10101110
          -40 -64 2 6 -40 -103 callgsubr
          hintmask 01101110
          -70 callsubr
          hintmask 10101110
          -43 callsubr
          hintmask 01101110
          6 46 52 2 46 hhcurveto
          hintmask 10101110
          5 callsubr
          hintmask 10110110
          -5 -40 -78 -3 -40 hhcurveto
          hintmask 10101110
          -7 callsubr
          -25 22 -7 51 -11 -7 callgsubr
          endchar
        </CharString>
        <CharString name="Hbar">
          268 -47 callgsubr
          335 37 119 33 -33 160 8 -20 hstemhm
          126 81 294 77 hintmask 10110111
          490 613 rmoveto
          1 -16 3 -34 2 -42 rrcurveto
          -74 -111 1 2 -100 hvcurveto
          2 42 2 34 3 16 -70 callgsubr
          24 rcurveline
          hintmask 10101011
          -33 callsubr
          hintmask 10110111
          -25 callgsubr
          2 -16 3 -32 2 -38 -71 3 rcurveline
          -5 -32 8 -7 rlineto
          70 hlineto
          2 -45 2 -49 -42 vvcurveto
          -59 vlineto
          -138 -7 -90 -4 -30 vhcurveto
          -23 -3 -51 -11 -22 -7 3 callsubr
          hintmask 01110111
          -70 callsubr
          hintmask 10110111
          -43 callsubr
          hintmask 01110111
          6 46 52 2 46 hhcurveto
          hintmask 10110111
          0 callgsubr
          41 1 50 2 45 vhcurveto
          84 hlineto
          5 27 -6 6 -81 -3 2 43 3 36 3 16 rlinecurve
          -70 callgsubr
          24 rcurveline
          hintmask 10101011
          -5 -40 -78 -3 -40 hhcurveto
          hintmask 10110111
          -7 callsubr
          -25 22 -7 51 -11 -7 callgsubr
          11 -232 rmoveto
          -7 -53 -39 -2 -53 hhcurveto
          -53 -43 3 7 -53 hvcurveto
          36 1 38 1 35 vhcurveto
          289 hlineto
          endchar
        </CharString>
        <CharString name="Hcircumflex">
          268 -47 callgsubr
          335 37 279 -20 28 -20 97 -21 170 -3 callsubr
          294 77 hintmask 0000011000000000
          521 715 -88 callgsubr
          hintmask 1010100110000000
          130 -177 9 callsubr
          hintmask 1011000110000000
          -33 callsubr
          hintmask 1010100110000000
          -40 -64 2 6 -40 -103 callgsubr
          hintmask 0110100110000000
          -70 callsubr
          hintmask 1010100110000000
          -43 callsubr
          hintmask 0110100110000000
          6 46 52 2 46 hhcurveto
          hintmask 1010100110000000
          5 callsubr
          hintmask 1011000110000000
          -5 -40 -78 -3 -40 hhcurveto
          hintmask 1010100110000000
          -7 callsubr
          -25 22 -7 51 -11 -7 callgsubr
          endchar
        </CharString>
        <CharString name="I">
          -103 17 callsubr
          130 77 hintmask 10011000
          218 -48 callsubr
          hintmask 10101000
          -33 callsubr
          hintmask 10011000
          -40 -64 2 6 -40 -103 callgsubr
          hintmask 01011000
          -70 callsubr
          hintmask 10011000
          -95 callsubr
          -5 37 -8 113 170 vvcurveto
          101 16 callgsubr
          endchar
        </CharString>
        <CharString name="IJ">
          234 -159 -21 193 -21 29 21 callgsubr
          hstemhm
          130 77 260 77 hintmask 01001100
          218 -48 callsubr
          hintmask 01010100
          -33 callsubr
          hintmask 01001100
          -40 -64 2 6 -40 -103 callgsubr
          hintmask 00101100
          -70 callsubr
          hintmask 01001100
          -95 callsubr
          -5 37 -8 113 170 vvcurveto
          101 16 callgsubr
          hintmask 10001010
          238 hmoveto
          -43 callgsubr
          hintmask 10010010
          -6 -40 -64 -2 -40 hhcurveto
          hintmask 10001010
          -46 -64 40 callsubr
          -9 30 -3 rlinecurve
          endchar
        </CharString>
        <CharString name="Iacute">
          -103 -62 callsubr
          104 -21 146 -102 callgsubr
          97 181 -55 callsubr
        </CharString>
        <CharString name="Ibreve">
          -103 -62 callsubr
          80 66 69 -102 callgsubr
          -202 213 -98 callsubr
          endchar
        </CharString>
        <CharString name="Icircumflex">
          -103 -62 callsubr
          97 -21 170 -102 callgsubr
          117 99 -42 callsubr
        </CharString>
        <CharString name="Idieresis">
          -103 -62 callsubr
          124 -21 111 -102 callgsubr
          -83 187 -104 callgsubr
        </CharString>
        <CharString name="Idotaccent">
          -103 -62 callsubr
          124 -21 111 -102 callgsubr
          9 187 rmoveto
          -97 callsubr
        </CharString>
        <CharString name="Igrave">
          -103 -62 callsubr
          113 -21 146 -102 callgsubr
          25 115 -48 callgsubr
        </CharString>
        <CharString name="Imacron">
          -103 -62 callsubr
          135 28 callgsubr
          130 77 hintmask 10010001
          218 -48 callsubr
          hintmask 10100001
          -33 callsubr
          hintmask 10010001
          -40 -64 2 6 -40 -103 callgsubr
          hintmask 01010001
          -70 callsubr
          hintmask 10010001
          -95 callsubr
          -5 37 -8 113 170 vvcurveto
          101 16 callgsubr
          hintmask 00001000
          92 206 72 callgsubr
          -3 -34 -40 -1 -34 60 callgsubr
          2 -33 hvcurveto
          hintmask 00000110
          -31 callsubr
        </CharString>
        <CharString name="Iogonek">
          -103 -215 51 181 -21 25 21 callgsubr
          hstemhm
          130 77 hintmask 11001100
          299 -160 rmoveto
          -24 callgsubr
          51 46 47 37 17 17 -2 -2 14 hvcurveto
          3 24 -29 7 -51 -64 callsubr
          6 126 5 34 vhcurveto
          -70 callgsubr
          24 rcurveline
          hintmask 11010100
          -33 callsubr
          hintmask 11001100
          -40 -64 2 6 -40 -103 callgsubr
          hintmask 10101100
          -70 callsubr
          16 23 0 -1 16 hvcurveto
          -37 -24 -41 -46 -18 -42 rrcurveto
          -35 callsubr
          endchar
        </CharString>
        <CharString name="Itilde">
          -103 -62 callsubr
          98 34 callgsubr
          130 77 hintmask 10010001
          218 -48 callsubr
          hintmask 10100001
          -33 callsubr
          hintmask 10010001
          -40 -64 2 6 -40 -103 callgsubr
          hintmask 01010001
          -70 callsubr
          hintmask 10010001
          -95 callsubr
          -5 37 -8 113 170 vvcurveto
          101 16 callgsubr
          hintmask 00000110
          -191 128 -6 callgsubr
          hintmask 00001010
          -92 callsubr
        </CharString>
        <CharString name="J">
          -103 -159 -21 831 -20 28 -3 callsubr
          hintmask 10110000
          119 616 rmoveto
          -43 callgsubr
          hintmask 11010000
          -6 -40 -64 -2 -40 hhcurveto
          hintmask 10110000
          -46 -64 40 callsubr
          -9 30 -3 rlinecurve
          endchar
        </CharString>
        <CharString name="Jcircumflex">
          -103 -159 -21 831 -20 28 -20 97 -21 170 -3 callsubr
          hintmask 00011000
          325 715 -88 callgsubr
          hintmask 10100100
          -45 -174 rmoveto
          -43 callgsubr
          hintmask 11000100
          -6 -40 -64 -2 -40 hhcurveto
          hintmask 10100100
          -46 -64 40 callsubr
          -9 30 -3 rlinecurve
          endchar
        </CharString>
        <CharString name="K">
          166 17 callsubr
          129 77 0 204 hintmask 10011000
          510 613 rmoveto
          23 3 51 11 22 7 -4 25 rcurveline
          hintmask 10100100
          -5 -37 -49 -3 -50 hhcurveto
          -23 -23 1 3 -23 83 callgsubr
          13 -13 4 -15 -18 vvcurveto
          -42 -16 -61 -188 -198 vhcurveto
          56 vlineto
          106 6 88 callsubr
          41 9 29 7 rrcurveto
          hintmask 10011000
          -3 24 rlineto
          hintmask 10101000
          -5 -46 -54 -3 -46 hhcurveto
          hintmask 10011000
          -40 -64 2 6 -40 -103 callgsubr
          hintmask 01011000
          -70 callsubr
          hintmask 10011000
          46 67 -3 -5 46 hvcurveto
          -29 callsubr
          -54 -12 callsubr
          -4 29 -6 79 -2 114 34 28 34 30 32 29 rrcurveto
          75 -144 27 -89 -44 vvcurveto
          -30 -8 -18 -9 -9 vhcurveto
          4 -14 rlineto
          hintmask 01011000
          54 callgsubr
          hintmask 10011000
          50 54 -3 -5 37 hvcurveto
          4 25 -22 7 -51 11 -23 3 rlinecurve
          -167 359 113 108 28 61 5 47 rlinecurve
          endchar
        </CharString>
        <CharString name="L">
          16 0 37 -27 -21 662 -20 28 -20 hstemhm
          128 77 hintmask 10011000
          477 9 -49 callsubr
          37 -5 106 43 callsubr
          8 126 5 34 vhcurveto
          63 callgsubr
          hintmask 10101000
          -33 callsubr
          hintmask 10011000
          -59 callsubr
          hintmask 01011000
          73 76 -3 -8 73 hvcurveto
          endchar
        </CharString>
        <CharString name="Lacute.may">
          16 0 37 -27 -21 662 -20 28 -20 104 -21 146 -20 hstemhm
          128 77 hintmask 00001100
          313 797 -89 callsubr
          hintmask 10010010
          370 -713 -49 callsubr
          37 -5 106 43 callsubr
          8 126 5 34 vhcurveto
          63 callgsubr
          hintmask 10100010
          -5 -46 -64 -3 -46 hhcurveto
          hintmask 10010010
          -59 callsubr
          hintmask 01010010
          73 76 -3 -8 73 hvcurveto
          endchar
        </CharString>
        <CharString name="Ldotaccent">
          -73 callsubr
        </CharString>
        <CharString name="Ldotaccent.001">
          -73 callsubr
        </CharString>
        <CharString name="Lslash">
          16 0 37 -27 -21 662 -20 28 -20 hstemhm
          128 77 hintmask 10011000
          477 9 -49 callsubr
          36 -5 103 165 vvcurveto
          51 25 110 55 62 callgsubr
          -64 -33 rcurveline
          1 96 7 108 5 31 63 callgsubr
          hintmask 10101000
          -33 callsubr
          hintmask 10011000
          -25 callgsubr
          4 -30 7 -90 -138 vvcurveto
          -13 vlineto
          -106 -54 4 -10 1 -11 2 -11 rlinecurve
          4 -3 19 14 37 22 39 19 rlinecurve
          -12 vlineto
          -94 -7 -134 -4 -30 vhcurveto
          -24 -4 -49 -11 -23 -8 3 callsubr
          9 80 64 1 80 hhcurveto
          hintmask 01011000
          73 76 -3 -8 73 hvcurveto
          endchar
        </CharString>
        <CharString name="M">
          424 17 callsubr
          176 186 hintmask 10011000
          362 70 rmoveto
          -12 -1 -10 -1 -11 vhcurveto
          12 -8 26 30 36 25 35 21 rlinecurve
          4 50 20 97 125 346 3 -1 rcurveline
          24 -170 16 -275 -114 vvcurveto
          -23 -3 -51 -11 -22 -7 3 callsubr
          hintmask 01011000
          6 40 63 2 40 hhcurveto
          hintmask 10011000
          -95 callsubr
          -20 86 -27 327 94 vvcurveto
          19 1 33 4 19 vhcurveto
          23 3 51 11 23 7 -5 25 rcurveline
          hintmask 10101000
          -6 -39 -84 -2 -39 hhcurveto
          -25 -64 2 2 -25 hvcurveto
          -3 -14 rlineto
          14 -4 20 -14 -14 vvcurveto
          -117 -372 -6 -23 -1 -17 -7 -2 rcurveline
          -31 98 rlineto
          -70 222 -9 64 31 vvcurveto
          14 20 12 14 5 vhcurveto
          -2 14 rlineto
          -3 -30 -44 -1 -30 hhcurveto
          hintmask 10011000
          -46 -84 40 callsubr
          -8 30 -3 rlinecurve
          -116 -579 -23 -3 -51 -11 -22 -7 rlinecurve
          4 -25 rlineto
          hintmask 01011000
          5 37 54 3 50 hhcurveto
          32 43 -1 -3 23 hvcurveto
          4 14 rlineto
          -38 20 -5 37 42 vvcurveto
          42 5 109 15 107 vhcurveto
          32 233 4 1 rlineto
          53 -162 77 -257 -112 vvcurveto
          endchar
        </CharString>
        <CharString name="N">
          266 17 callsubr
          130 53 345 48 hintmask 10101100
          185 651 rmoveto
          hintmask 10011100
          -54 -62 1 7 -44 -103 callgsubr
          hintmask 01011100
          -70 callsubr
          hintmask 10011100
          -47 callsubr
          hintmask 01011100
          2 22 23 1 22 hhcurveto
          hintmask 10011100
          -50 callsubr
          hintmask 10101100
          -67 callsubr
          endchar
        </CharString>
        <CharString name="Nacute">
          266 -62 callsubr
          104 -21 146 76 callsubr
          hintmask 00001100
          554 797 -89 callsubr
          hintmask 10100011
          -163 -71 -78 callgsubr
        </CharString>
        <CharString name="Ncaron">
          266 -62 callsubr
          97 -21 170 76 callsubr
          hintmask 00001100
          360 810 -75 callsubr
          hintmask 10100011
          -336 -234 -78 callgsubr
        </CharString>
        <CharString name="Ntilde">
          266 -62 callsubr
          98 69 -38 38 31 76 callsubr
          hintmask 1010000110000000
          185 651 rmoveto
          hintmask 1001000110000000
          -54 -62 1 7 -44 -103 callgsubr
          hintmask 0101000110000000
          -70 callsubr
          hintmask 1001000110000000
          -47 callsubr
          hintmask 0101000110000000
          2 22 23 1 22 hhcurveto
          hintmask 1001000110000000
          -50 callsubr
          hintmask 1010000110000000
          -67 callsubr
          hintmask 0000011000000000
          34 93 -6 callgsubr
          hintmask 0000101000000000
          -92 callsubr
        </CharString>
        <CharString name="O">
          12 callgsubr
          hstem
          42 89 340 89 vstem
          -104 callsubr
          endchar
        </CharString>
        <CharString name="OE">
          385 -15 79 257 37 126 -20 136 51 -37 37 11 -20 hstemhm
          42 99 278 82 hintmask 11101011
          547 651 rmoveto
          hintmask 11100111
          -73 -27 11 -53 hhcurveto
          -203 -22 -149 -190 -203 vvcurveto
          -133 78 -106 134 -23 vhcurveto
          69 13 70 33 49 50 rrcurveto
          4 hlineto
          -64 31 54 -32 85 93 callsubr
          -41 -41 -49 -37 -57 hhcurveto
          -119 -18 -58 callsubr
          hintmask 11101011
          4 22 32 1 22 hhcurveto
          34 43 -28 callsubr
          hintmask 11100111
          4 58 14 58 41 42 -4 20 rcurveline
          hintmask 11101011
          -6 -63 -127 -5 -63 hhcurveto
          -116 -74 rmoveto
          -60 -12 -117 -148 vvcurveto
          -112 -4 -36 -25 -33 vhcurveto
          -15 -21 -30 -6 -26 hhcurveto
          -115 -57 116 115 109 22 111 78 77 hvcurveto
          hintmask 11110011
          16 22 35 6 27 hhcurveto
          39 30 -7 -16 37 hvcurveto
          endchar
        </CharString>
        <CharString name="Oacute">
          12 callgsubr
          77 -21 146 11 callsubr
          hintmask 11001100
          -104 callsubr
          hintmask 00110000
          205 203 -55 callsubr
        </CharString>
        <CharString name="Obreve">
          12 callgsubr
          53 66 69 11 callsubr
          hintmask 11001100
          -104 callsubr
          hintmask 00110000
          -116 235 -98 callsubr
          endchar
        </CharString>
        <CharString name="Ocircumflex">
          12 callgsubr
          52 callgsubr
          340 89 hintmask 11001100
          -104 callsubr
          hintmask 00110000
          202 121 -42 callsubr
        </CharString>
        <CharString name="Odieresis">
          12 callgsubr
          75 callsubr
          340 89 hintmask 11001100
          -104 callsubr
          hintmask 00110000
          3 209 -104 callgsubr
        </CharString>
        <CharString name="Ograve">
          12 callgsubr
          86 -21 146 11 callsubr
          hintmask 11001100
          -104 callsubr
          hintmask 00110000
          105 137 -48 callgsubr
        </CharString>
        <CharString name="Ohungarumlaut">
          12 callgsubr
          77 -21 146 11 callsubr
          hintmask 11001100
          -104 callsubr
          hintmask 00110000
          122 213 -44 callgsubr
          360 85 -44 callgsubr
          endchar
        </CharString>
        <CharString name="Omacron">
          12 callgsubr
          108 49 -29 -21 56 11 callsubr
          hintmask 11000110
          -104 callsubr
          hintmask 00100000
          178 228 72 callgsubr
          -3 -34 -40 -1 -34 60 callgsubr
          2 -33 hvcurveto
          hintmask 00011000
          -31 callsubr
        </CharString>
        <CharString name="Omega">
          261 0 66 -56 -21 677 -20 hstemhm
          59 118 -93 93 355 93 -93 110 hintmask 10101100
          387 666 rmoveto
          -156 -13 -147 -113 -176 vvcurveto
          -111 59 -111 86 -71 vhcurveto
          -5 -7 vlineto
          -34 -61 4 14 -31 hvcurveto
          -5 24 -4 27 -3 32 rrcurveto
          hintmask 01110100
          -25 hlineto
          -2 -56 -5 -56 -26 -46 6 -20 rcurveline
          hintmask 10110010
          8 63 76 3 63 hhcurveto
          21 21 0 -1 21 hvcurveto
          1 42 rlineto
          -89 67 -32 124 111 vvcurveto
          90 27 101 72 60 vhcurveto
          11 24 26 5 26 hhcurveto
          133 47 -134 -133 -111 -32 -124 -89 -67 hvcurveto
          1 -42 rlineto
          1 21 11 0 21 hhcurveto
          hintmask 01110010
          63 78 -3 -8 63 hvcurveto
          6 20 -26 46 -5 56 -2 56 rlinecurve
          -25 hlineto
          -3 -32 -4 -27 -5 -24 rrcurveto
          hintmask 10110100
          -14 -31 -53 -4 -34 hhcurveto
          -8 5 hlineto
          84 74 62 128 111 vvcurveto
          158 -80 111 -158 13 vhcurveto
          endchar
        </CharString>
        <CharString name="Oslash">
          86 callgsubr
          hstem
          42 89 340 89 vstem
          42 265 -61 callgsubr
        </CharString>
        <CharString name="Oslashacute">
          86 callgsubr
          24 -21 146 11 callsubr
          hintmask 00001100
          485 797 -89 callsubr
          hintmask 11110011
          -237 -457 -61 callgsubr
        </CharString>
        <CharString name="Otilde">
          12 callgsubr
          71 69 -38 38 31 11 callsubr
          hintmask 11000110
          -104 callsubr
          hintmask 00011000
          -105 150 -6 callgsubr
          hintmask 00101000
          -92 callsubr
        </CharString>
        <CharString name="P">
          72 -47 callgsubr
          295 33 293 37 hstemhm
          130 77 216 94 hintmask 10111100
          118 38 rmoveto
          -23 -3 -51 -11 -22 -7 3 callsubr
          hintmask 01111100
          -70 callsubr
          hintmask 10111100
          -95 callsubr
          -5 37 -7 132 121 vvcurveto
          174 2 36 7 73 vhcurveto
          91 callsubr
          -100 -55 -51 -100 hvcurveto
          -12 hlineto
          -4 -32 rlineto
          45 callgsubr
          hvcurveto
          -62 -136 -9 -92 hhcurveto
          -25 vlineto
          29 39 -6 -10 30 hvcurveto
          4 -34 7 -114 -135 vvcurveto
          -121 -7 -132 -5 -34 vhcurveto
          endchar
        </CharString>
        <CharString name="Q">
          162 -181 -21 129 69 -10 71 537 72 hstemhm
          42 89 340 89 hintmask 11011100
          601 -99 rmoveto
          19 -80 -107 76 -88 hhcurveto
          150 70 84 150 171 vvcurveto
          174 -81 105 -166 vhcurveto
          -166 -45 -105 -176 -180 vvcurveto
          hintmask 10111100
          -158 93 -112 146 -9 vhcurveto
          -44 -19 -50 -32 -25 -26 17 -16 rcurveline
          hintmask 11011100
          25 32 34 9 41 hhcurveto
          90 105 -56 -53 74 hvcurveto
          28 -20 27 51 40 46 48 30 rlinecurve
          -11 17 -26 -15 -31 -15 -29 -11 rlinecurve
          -321 693 rmoveto
          147 44 -137 -147 -70 -14 -82 -36 -66 hvcurveto
          hintmask 10111100
          -23 -26 -40 -12 -33 hhcurveto
          -132 -59 150 132 72 13 82 38 67 hvcurveto
          23 26 39 11 33 hhcurveto
          endchar
        </CharString>
        <CharString name="R">
          179 -47 callgsubr
          621 37 89 callsubr
          hintmask 10111000
          74 callgsubr
          hintmask 01111000
          5 46 64 3 46 hhcurveto
          hintmask 10111000
          -82 callsubr
          hintmask 01111000
          54 callgsubr
          hintmask 10111000
          -75 callgsubr
          endchar
        </CharString>
        <CharString name="Racute">
          179 -47 callgsubr
          621 37 85 -21 146 -20 89 callsubr
          hintmask 10100110
          74 callgsubr
          hintmask 01100110
          5 46 64 3 46 hhcurveto
          hintmask 10100110
          -82 callsubr
          hintmask 01100110
          54 callgsubr
          hintmask 10100110
          -75 callgsubr
          hintmask 00011000
          356 762 -55 callsubr
        </CharString>
        <CharString name="Rcaron">
          179 -47 callgsubr
          621 37 78 -21 170 -20 89 callsubr
          hintmask 00011000
          306 810 -75 callsubr
          hintmask 10100110
          -336 -850 32 callgsubr
          hintmask 01100110
          5 46 64 3 46 hhcurveto
          hintmask 10100110
          -82 callsubr
          hintmask 01100110
          54 callgsubr
          hintmask 10100110
          -75 callgsubr
          endchar
        </CharString>
        <CharString name="Rcommaaccent">
          179 -194 -21 181 -20 67 -21 29 -21 621 37 89 callsubr
          hintmask 00101110
          74 callgsubr
          hintmask 00011110
          5 46 64 3 46 hhcurveto
          hintmask 00101110
          -82 callsubr
          hintmask 00011110
          54 callgsubr
          hintmask 00101110
          -75 callgsubr
          hintmask 11000000
          248 -119 -72 callgsubr
          -5 -29 -19 -21 -24 -18 10 -13 rcurveline
          54 28 48 43 4 60 rrcurveto
          endchar
        </CharString>
        <CharString name="S">
          26 callgsubr
          hstemhm
          78 67 209 35 -35 66 hintmask 01111100
          116 87 rmoveto
          -2 -3 65 30 vvcurveto
          -25 hlineto
          -5 -77 -19 -60 -53 -56 15 -14 rcurveline
          13 12 13 10 16 8 rrcurveto
          hintmask 10111010
          -13 49 43 -5 55 hhcurveto
          95 37 110 114 102 96 -275 84 91 vvcurveto
          58 55 27 58 32 41 -7 -13 28 vhcurveto
          4 -32 1 -29 -32 vvcurveto
          hintmask 10111100
          25 hlineto
          3 54 17 59 38 35 rrcurveto
          20 vlineto
          12 -54 -52 5 -57 hhcurveto
          -95 -29 -111 -96 -99 -96 276 -87 -91 vvcurveto
          -70 -51 -34 -73 -39 -38 8 15 -37 vhcurveto
          endchar
        </CharString>
        <CharString name="Sacute">
          26 callgsubr
          77 -21 146 -20 hstemhm
          78 67 209 35 -35 66 hintmask 0000110000000000
          417 797 -89 callsubr
          hintmask 0111001100000000
          -95 -635 -80 callgsubr
        </CharString>
        <CharString name="Scaron">
          23 callsubr
          273 810 -75 callsubr
          hintmask 0111001100000000
          -318 -798 -80 callgsubr
        </CharString>
        <CharString name="Scedilla">
          25 50 callgsubr
          79 -70 -21 43 -20 485 -20 133 72 hstemhm
          78 67 104 61 44 35 -35 66 hintmask 0001011101000000
          116 87 rmoveto
          -2 -3 65 30 vvcurveto
          -25 hlineto
          -5 -77 -19 -60 -53 -56 15 -14 rcurveline
          13 12 13 10 16 8 rrcurveto
          hintmask 0010011100100000
          -13 49 43 -5 55 hhcurveto
          95 37 110 114 102 96 -275 84 91 vvcurveto
          58 55 27 58 32 41 -7 -13 28 vhcurveto
          4 -32 1 -29 -32 vvcurveto
          hintmask 0010011101000000
          25 hlineto
          3 54 17 59 38 35 rrcurveto
          20 vlineto
          12 -54 -52 5 -57 hhcurveto
          -95 -29 -111 -96 -99 -96 276 -87 -91 vvcurveto
          -70 -51 -34 -73 -39 -38 8 15 -37 vhcurveto
          hintmask 0100100010000000
          50 -184 -65 callsubr
          hintmask 1000100010000000
          -79 callsubr
        </CharString>
        <CharString name="Scircumflex">
          23 callsubr
          434 715 -88 callgsubr
          hintmask 0111001100000000
          -157 -703 -80 callgsubr
        </CharString>
        <CharString name="T">
          79 -47 callgsubr
          484 93 callgsubr
          hintmask 10101100
          544 662 rmoveto
          hintmask 10110100
          82 callgsubr
          hintmask 10101100
          -26 callsubr
          hintmask 10110100
          -45 callsubr
          hintmask 01110100
          -70 callsubr
          hintmask 10110100
          -41 callgsubr
          hintmask 10101100
          63 callsubr
          endchar
        </CharString>
        <CharString name="T_h">
          518 65 callgsubr
          -1 -20 150 37 35 -20 hstemhm
          221 77 224 70 208 71 hintmask 1010111110000000
          788 -15 rmoveto
          -56 callsubr
          185 5 74 10 55 -46 callsubr
          -34 -92 -137 -1 -161 hhcurveto
          -96 -74 0 11 -96 hvcurveto
          -6 -20 rlineto
          hintmask 0101111110000000
          26 -46 5 -60 2 -52 rrcurveto
          25 hlineto
          3 32 7 49 10 31 rrcurveto
          -45 callsubr
          -70 callsubr
          46 50 -2 -5 46 hvcurveto
          3 26 -30 7 -36 6 -15 callgsubr
          -5 37 -8 113 43 callsubr
          49 callsubr
          20 22 2 22 hhcurveto
          63 51 -9 -16 30 hvcurveto
          4 -54 2 -66 -93 vvcurveto
          -186 vlineto
          -49 9 callgsubr
          -9 72 -2 32 129 vvcurveto
          hintmask 1010111110000000
          45 callsubr
          rrcurveto
          endchar
        </CharString>
        <CharString name="Tbar">
          79 -47 callgsubr
          341 26 117 93 callgsubr
          hintmask 10110110
          544 662 rmoveto
          hintmask 10111010
          82 callgsubr
          hintmask 10110110
          -26 callsubr
          hintmask 10111010
          12 28 38 6 34 hhcurveto
          12 21 -2 -3 10 hvcurveto
          4 -55 8 -97 1 -88 -125 -4 -4 callsubr
          25 4 49 4 44 1 rrcurveto
          11 -42 hlineto
          -138 -7 -90 -4 -30 vhcurveto
          -23 -3 -51 -11 -22 -7 3 callsubr
          hintmask 01111010
          -70 callsubr
          hintmask 10111010
          59 callgsubr
          36 -8 107 162 vvcurveto
          132 2 rlineto
          -30 callsubr
          -39 -2 rcurveline
          97 5 109 5 32 vhcurveto
          3 10 22 2 12 hhcurveto
          34 38 -28 callsubr
          hintmask 10110110
          63 callsubr
          endchar
        </CharString>
        <CharString name="Tcaron">
          79 -47 callgsubr
          484 80 callsubr
          94 36 callgsubr
          221 77 hintmask 00000110
          264 810 -75 callsubr
          hintmask 10101001
          119 -223 rmoveto
          hintmask 10110001
          82 callgsubr
          hintmask 10101001
          -26 callsubr
          hintmask 10110001
          -45 callsubr
          hintmask 01110001
          -70 callsubr
          hintmask 10110001
          -41 callgsubr
          hintmask 10101001
          63 callsubr
          endchar
        </CharString>
        <CharString name="Tcedilla">
          79 -194 -21 37 -20 211 -21 24 -20 25 -21 484 93 callgsubr
          9 61 hintmask 0010010110000000
          544 662 rmoveto
          hintmask 0010011010000000
          82 callgsubr
          hintmask 0010010110000000
          -26 callsubr
          hintmask 0010011010000000
          -45 callsubr
          hintmask 0000111010000000
          -70 callsubr
          hintmask 0010011010000000
          -41 callgsubr
          hintmask 0010010110000000
          63 callsubr
          hintmask 0101000001000000
          -324 -739 -65 callsubr
          hintmask 1001000001000000
          -79 callsubr
        </CharString>
        <CharString name="Thorn">
          70 0 198 -185 -21 173 33 280 -20 33 37 -37 160 8 -3 callsubr
          210 94 hintmask 1001101110000000
          218 -48 callsubr
          hintmask 1001010110000000
          -33 callsubr
          hintmask 0111101110000000
          -40 -64 2 6 -40 -103 callgsubr
          hintmask 1001101110000000
          -70 callsubr
          hintmask 0111101110000000
          -95 callsubr
          -5 37 -8 113 170 vvcurveto
          39 0 44 2 40 vhcurveto
          1 hlineto
          91 callsubr
          hvcurveto
          hintmask 1001101110000000
          -100 -55 -51 -100 vhcurveto
          -12 hlineto
          -4 -32 rlineto
          hintmask 0111101110000000
          45 callgsubr
          -24 -33 -2 -1 -37 hvcurveto
          2 42 2 33 3 16 rrcurveto
          endchar
        </CharString>
        <CharString name="U">
          -35 callgsubr
          hstemhm
          103 80 275 77 hintmask 10101100
          197 549 rmoveto
          4 38 14 35 34 19 -4 14 rcurveline
          -3 -23 -31 -1 -32 hhcurveto
          hintmask 10011100
          -50 -54 3 5 -37 hvcurveto
          -4 -25 22 -7 51 -11 -7 callgsubr
          6 -18 1 -18 -19 -39 -14 -179 -99 vvcurveto
          -156 46 -100 156 vhcurveto
          51 20 58 38 37 41 -4 -54 -2 -8 -7 -9 3 -14 rcurveline
          hintmask 01011100
          1 18 22 0 18 hhcurveto
          29 callsubr
          136 6 34 vhcurveto
          -70 callgsubr
          21 rcurveline
          hintmask 10101100
          -5 -40 -78 -3 -40 hhcurveto
          hintmask 10011100
          -7 callsubr
          -22 22 -7 51 -11 -7 callgsubr
          3 -31 8 -111 -150 vvcurveto
          -88 -3 -72 -2 -52 vhcurveto
          -31 -34 -48 -17 -45 hhcurveto
          -122 -21 90 122 72 6 129 8 72 hvcurveto
          endchar
        </CharString>
        <CharString name="Uacute">
          -35 callgsubr
          104 -21 146 -107 callsubr
          322 248 -55 callsubr
        </CharString>
        <CharString name="Ubreve">
          -35 callgsubr
          80 66 69 -107 callsubr
          -11 280 -98 callsubr
          endchar
        </CharString>
        <CharString name="Ucircumflex">
          -35 callgsubr
          97 -21 170 -107 callsubr
          307 166 -42 callsubr
        </CharString>
        <CharString name="Udieresis">
          -35 callgsubr
          124 -21 111 -107 callsubr
          108 254 -104 callgsubr
        </CharString>
        <CharString name="Ugrave">
          -35 callgsubr
          113 -21 146 -107 callsubr
          197 182 -48 callgsubr
        </CharString>
        <CharString name="Uhungarumlaut">
          -35 callgsubr
          104 -21 146 -107 callsubr
          207 258 -44 callgsubr
          360 85 -44 callgsubr
          endchar
        </CharString>
        <CharString name="Umacron">
          -35 callgsubr
          135 49 -29 -21 56 -76 callsubr
          hintmask 0000100000000000
          283 273 72 callgsubr
          -3 -34 -40 -1 -34 60 callgsubr
          2 -33 hvcurveto
          hintmask 0000011000000000
          -31 callsubr
        </CharString>
        <CharString name="Uogonek">
          225 90 callsubr
          79 -47 -21 25 -21 651 -20 28 33 callsubr
          66 hintmask 11001011
          197 549 rmoveto
          4 38 14 35 34 19 -4 14 rcurveline
          -3 -23 -31 -1 -32 hhcurveto
          hintmask 11000111
          -50 -54 3 5 -37 hvcurveto
          -4 -25 22 -7 51 -11 -7 callgsubr
          6 -18 1 -18 -19 -39 -14 -179 -99 vvcurveto
          -156 46 -100 156 vhcurveto
          51 20 58 38 37 41 -4 -54 -2 -8 -7 -9 3 -14 rcurveline
          hintmask 10011011
          1 18 22 0 18 hhcurveto
          16 23 0 -1 16 hvcurveto
          -37 -24 -41 -46 -18 -42 -27 callgsubr
          hvcurveto
          hintmask 10100111
          51 46 47 37 17 17 -2 -2 14 vhcurveto
          3 24 -29 -79 callgsubr
          -6 34 -7 89 138 vvcurveto
          59 vlineto
          94 7 136 6 34 vhcurveto
          -70 callgsubr
          21 rcurveline
          hintmask 11001011
          -5 -40 -78 -3 -40 hhcurveto
          hintmask 11000111
          -7 callsubr
          -22 22 -7 51 -11 -7 callgsubr
          3 -31 8 -111 -150 vvcurveto
          -88 -3 -72 -2 -52 vhcurveto
          -31 -34 -48 -17 -45 hhcurveto
          -122 -21 90 122 72 6 129 8 72 hvcurveto
          endchar
        </CharString>
        <CharString name="Uring">
          -35 callgsubr
          65 35 111 35 hstemhm
          103 80 55 47 99 47 27 77 hintmask 1010001001000000
          197 549 rmoveto
          4 38 14 35 34 19 -4 14 rcurveline
          -3 -23 -31 -1 -32 hhcurveto
          hintmask 1001001001000000
          -50 -54 3 5 -37 hvcurveto
          -4 -25 22 -7 51 -11 -7 callgsubr
          6 -18 1 -18 -19 -39 -14 -179 -99 vvcurveto
          -156 46 -100 156 vhcurveto
          51 20 58 38 37 41 -4 -54 -2 -8 -7 -9 3 -14 rcurveline
          hintmask 0101001001000000
          1 18 22 0 18 hhcurveto
          29 callsubr
          136 6 34 vhcurveto
          -70 callgsubr
          21 rcurveline
          hintmask 1010001001000000
          -5 -40 -78 -3 -40 hhcurveto
          hintmask 1001001001000000
          -7 callsubr
          -22 22 -7 51 -11 -7 callgsubr
          3 -31 8 -111 -150 vvcurveto
          -88 -3 -72 -2 -52 vhcurveto
          -31 -34 -48 -17 -45 hhcurveto
          -122 -21 90 122 72 6 129 8 72 hvcurveto
          hintmask 0000110110000000
          41 228 rmoveto
          -89 callgsubr
        </CharString>
        <CharString name="Utilde">
          -35 callgsubr
          107 69 -38 38 31 -76 callsubr
          hintmask 0000011000000000
          -7 204 -6 callgsubr
          hintmask 0000101000000000
          -92 callsubr
        </CharString>
        <CharString name="V">
          159 17 callsubr
          448 94 hintmask 01011000
          331 35 rmoveto
          147 272 64 122 126 vvcurveto
          20 -2 17 -3 21 -53 callgsubr
          hintmask 01101000
          39 callsubr
          -4 -14 rlineto
          43 -25 7 -49 -49 vvcurveto
          -85 -22 -99 -119 -265 vhcurveto
          -65 181 -69 256 -10 110 30 3 51 9 29 7 rrcurveto
          hintmask 01011000
          -3 24 rlineto
          hintmask 01101000
          -5 -46 -68 -3 -46 hhcurveto
          hintmask 01011000
          -40 -68 2 6 -40 hvcurveto
          -4 -25 23 -8 49 -10 24 -3 30 callsubr
          67 callgsubr
          hintmask 10011000
          50 54 -3 -5 37 hvcurveto
          4 22 -22 7 -51 11 -23 3 rlinecurve
          endchar
        </CharString>
        <CharString name="W">
          85 callgsubr
          hstemhm
          428 94 233 94 hintmask 10101100
          330 34 rmoveto
          65 130 44 97 31 79 rrcurveto
          4 hlineto
          66 -223 5 -45 -31 18 callgsubr
          hintmask 01101100
          67 callgsubr
          hintmask 10101100
          6 callsubr
          139 278 53 127 116 vvcurveto
          20 -2 17 -3 21 -53 callgsubr
          39 callsubr
          hintmask 10011100
          -2 callgsubr
          hintmask 10101100
          -10 -97 -63 0 -153 hhcurveto
          hintmask 10011100
          5 callgsubr
          hintmask 01101100
          67 callgsubr
          hintmask 10101100
          -5 callgsubr
        </CharString>
        <CharString name="Wcircumflex">
          85 callgsubr
          95 36 callgsubr
          428 94 233 94 hintmask 00001100
          633 715 -88 callgsubr
          hintmask 10100011
          -142 -756 rmoveto
          65 130 44 97 31 79 rrcurveto
          4 hlineto
          66 -223 5 -45 -31 18 callgsubr
          hintmask 01100011
          67 callgsubr
          hintmask 10100011
          6 callsubr
          139 278 53 127 116 vvcurveto
          20 -2 17 -3 21 -53 callgsubr
          39 callsubr
          hintmask 10010011
          -2 callgsubr
          hintmask 10100011
          -10 -97 -63 0 -153 hhcurveto
          hintmask 10010011
          5 callgsubr
          hintmask 01100011
          67 callgsubr
          hintmask 10100011
          -5 callgsubr
        </CharString>
        <CharString name="X">
          205 17 callsubr
          hintmask 10010000
          349 659 rmoveto
          hintmask 10100000
          -6 -60 -63 -2 -58 hhcurveto
          hintmask 10010000
          -48 -58 2 6 -47 hvcurveto
          -4 -25 22 -7 51 -11 -7 callgsubr
          180 -286 -84 -113 -86 -122 -34 -54 rlinecurve
          -23 -3 -51 -11 -23 -7 5 -25 rcurveline
          hintmask 01010000
          6 43 51 2 43 hhcurveto
          hintmask 10010000
          50 63 -3 -5 50 hvcurveto
          3 24 -29 -79 callgsubr
          25 60 111 69 115 vhcurveto
          75 -123 40 -88 -43 vvcurveto
          -9 -1 -7 -3 -6 vhcurveto
          4 -14 rlineto
          hintmask 01010000
          54 callgsubr
          hintmask 10010000
          50 54 -3 -5 37 hvcurveto
          4 25 -22 7 -51 11 -23 3 rlinecurve
          -196 310 84 111 70 97 36 57 rlinecurve
          23 3 51 11 23 7 -5 25 rcurveline
          hintmask 10100000
          -6 -39 -52 -2 -39 hhcurveto
          -25 -33 2 2 -25 83 callgsubr
          14 -7 6 -10 -15 vvcurveto
          -27 -44 -87 -66 -108 vhcurveto
          -66 110 -34 78 41 vvcurveto
          30 3 51 9 29 7 rrcurveto
          endchar
        </CharString>
        <CharString name="Y">
          105 17 callsubr
          234 77 hintmask 10011000
          171 -48 callsubr
          hintmask 10101000
          -5 -46 -68 -3 -46 hhcurveto
          hintmask 10011000
          -11 callgsubr
          23 -28 14 -27 135 -287 rrcurveto
          -26 vlineto
          -88 -7 -89 1 callgsubr
          64 -3 -5 46 hvcurveto
          -29 callsubr
          -51 77 callsubr
          37 -8 111 115 vvcurveto
          196 315 23 3 51 11 23 7 rlinecurve
          -5 25 rlineto
          hintmask 10101000
          -6 -39 -52 -2 -39 hhcurveto
          -25 -33 2 2 -25 83 callgsubr
          14 -7 6 -10 -15 vvcurveto
          -32 -25 -72 -86 -168 vhcurveto
          -39 74 -54 124 -27 81 rrcurveto
          endchar
        </CharString>
        <CharString name="Yacute">
          56 callgsubr
          104 -21 146 -20 hstemhm
          234 77 hintmask 10010010
          171 616 -90 callgsubr
          hintmask 00001100
          305 181 -55 callsubr
        </CharString>
        <CharString name="Ycircumflex">
          56 callgsubr
          97 36 callgsubr
          234 77 hintmask 00001100
          456 715 -88 callgsubr
          hintmask 10010010
          -124 -174 -90 callgsubr
          endchar
        </CharString>
        <CharString name="Ydieresis">
          56 callgsubr
          124 -8 callsubr
          234 77 hintmask 10010010
          171 616 -90 callgsubr
          hintmask 00001100
          86 187 -104 callgsubr
        </CharString>
        <CharString name="Z">
          39 callgsubr
          hstemhm
          hintmask 11110000
          389 640 -99 callsubr
          endchar
        </CharString>
        <CharString name="Zacute">
          39 callgsubr
          87 -21 146 -20 hstemhm
          hintmask 00000110
          415 797 -89 callsubr
          hintmask 11110000
          180 -82 -99 callsubr
          endchar
        </CharString>
        <CharString name="Zcaron">
          39 callgsubr
          80 36 callgsubr
          hintmask 00000110
          282 810 -75 callsubr
          hintmask 11110000
          -54 -245 -99 callsubr
          endchar
        </CharString>
        <CharString name="Zdotaccent">
          39 callgsubr
          107 -8 callsubr
          hintmask 11110000
          389 640 -99 callsubr
          hintmask 00000110
          -52 163 rmoveto
          -97 callsubr
        </CharString>
        <CharString name="a">
          1 callsubr
          hstem
          43 callgsubr
          vstem
          50 176 -52 callgsubr
        </CharString>
        <CharString name="a_e.alternate">
          221 -12 callgsubr
          hstemhm
          57 81 -59 59 165 62 163 80 hintmask 11001110
          473 57 rmoveto
          -94 -14 87 94 hvcurveto
          136 29 89 5 56 -1 1 21 rcurveline
          -16 -17 2 6 -16 hvcurveto
          6 16 4 32 17 vvcurveto
          89 -32 31 -89 vhcurveto
          -35 -10 -30 -16 -26 -22 rrcurveto
          -4 hlineto
          32 -45 -54 16 -54 hhcurveto
          -64 -19 -96 -49 callgsubr
          hintmask 10110110
          11 17 17 3 22 hhcurveto
          31 35 -9 -15 27 hvcurveto
          2 -11 1 -13 -14 vvcurveto
          -29 -2 -28 -6 -52 vhcurveto
          -145 -25 -41 -11 35 callgsubr
          1 vlineto
          -65 25 51 -40 78 hhcurveto
          57 24 53 42 36 49 -11 10 rcurveline
          -29 -33 -47 -24 -43 hhcurveto
          -281 -5 88 callgsubr
          30 12 57 16 59 14 rrcurveto
          -1 -12 0 -12 -11 vvcurveto
          -24 2 -22 4 -20 vhcurveto
          -40 -21 -40 -32 -44 hhcurveto
          202 347 rmoveto
          -83 callgsubr
          endchar
        </CharString>
        <CharString name="aacute">
          1 callsubr
          49 -21 hstemhm
          43 callgsubr
          hintmask 11101100
          50 176 -106 callgsubr
          hintmask 00010000
          297 413 -91 callgsubr
        </CharString>
        <CharString name="aalternate">
          33 -15 67 433 -20 52 -20 hstemhm
          57 81 -59 59 168 71 hintmask 11110100
          207 423 rmoveto
          31 36 -9 -15 26 hvcurveto
          3 -23 2 -45 1 -77 -145 -25 -52 -13 35 callgsubr
          -25 -3 -48 -8 -27 -86 callsubr
          172 9 93 13 53 -37 callsubr
          12 -34 -46 9 -36 hhcurveto
          hintmask 11101100
          -64 -19 -96 -49 callgsubr
          11 17 17 3 22 hhcurveto
          -15 -371 88 callgsubr
          33 13 63 18 65 14 rrcurveto
          -81 vlineto
          -50 -15 -48 -45 -52 hhcurveto
          endchar
        </CharString>
        <CharString name="abreve">
          1 callsubr
          51 66 69 65 callsubr
          hintmask 11100110
          50 176 -106 callgsubr
          hintmask 00011000
          -10 437 -98 callsubr
          endchar
        </CharString>
        <CharString name="acircumflex">
          1 callsubr
          46 -21 185 65 callsubr
          hintmask 00011000
          277 612 rmoveto
          134 -80 13 17 -57 46 -43 50 -37 62 rlinecurve
          -20 hlineto
          -36 -66 -43 -53 -58 -49 13 -17 rcurveline
          hintmask 11100110
          -93 -346 -52 callgsubr
        </CharString>
        <CharString name="acute">
          -240 546 -21 hstem
          200 634 -91 callgsubr
        </CharString>
        <CharString name="acute.cap">
          -225 743 -21 146 -20 hstem
          214 797 -55 callsubr
        </CharString>
        <CharString name="adieresis">
          1 callsubr
          83 -21 111 65 callsubr
          hintmask 11100110
          50 176 -106 callgsubr
          hintmask 00011000
          108 399 -104 callgsubr
        </CharString>
        <CharString name="ae">
          261 -15 72 372 56 hstem
          54 85 193 81 162 80 vstem
          -73 callgsubr
          endchar
        </CharString>
        <CharString name="aeacute">
          261 -15 72 372 56 61 -21 hstemhm
          54 85 193 81 162 80 hintmask 11011100
          -73 callgsubr
          hintmask 00100000
          13 317 -91 callgsubr
        </CharString>
        <CharString name="agrave">
          1 callsubr
          49 -21 hstemhm
          43 callgsubr
          hintmask 00010000
          317 525 -46 callgsubr
          hintmask 11101100
          -78 -458 -52 callgsubr
        </CharString>
        <CharString name="amacron">
          1 callsubr
          89 49 -29 -21 56 65 callsubr
          hintmask 11100011
          50 176 -106 callgsubr
          hintmask 00010000
          283 413 72 callgsubr
          -3 -34 -40 -1 -34 60 callgsubr
          2 -33 hvcurveto
          hintmask 00001100
          -31 callsubr
        </CharString>
        <CharString name="ampersand">
          164 -15 78 -42 -21 417 30 150 69 hstemhm
          34 80 -7 75 166 66 29 52 hintmask 10110111
          425 407 rmoveto
          5 vlineto
          30 -1 74 -4 30 -2 -14 callsubr
          -231 -18 -1 5 rlineto
          47 22 31 52 51 vvcurveto
          74 -62 24 -74 vhcurveto
          -54 -16 -89 -63 -28 -49 rrcurveto
          -53 34 -59 25 -47 vhcurveto
          hintmask 10111011
          -80 -39 -52 -60 -89 vvcurveto
          -118 95 -88 118 vhcurveto
          43 20 46 33 41 39 rrcurveto
          13 -15 11 -20 -19 vvcurveto
          -9 -1 -7 -5 -8 vhcurveto
          4 -14 rlineto
          hintmask 01110111
          10 44 70 5 59 hhcurveto
          20 19 0 -1 15 hvcurveto
          2 25 -23 5 -52 7 -23 1 rlinecurve
          -36 32 -33 38 -29 34 rrcurveto
          38 52 25 59 56 vvcurveto
          49 -23 33 -47 17 vhcurveto
          -11 -244 rmoveto
          -59 68 -173 230 90 vvcurveto
          8 1 11 3 8 vhcurveto
          14 16 32 5 21 hhcurveto
          50 43 -21 -50 -37 -19 -29 -29 -24 hvcurveto
          7 -19 rlineto
          83 -3 53 -48 -83 vvcurveto
          -42 -8 -45 -21 -33 vhcurveto
          hintmask 10111011
          -147 -100 rmoveto
          -94 -59 74 94 51 22 47 40 32 hvcurveto
          58 -100 52 -78 76 -87 rrcurveto
          -24 -25 -34 -9 -36 hhcurveto
          endchar
        </CharString>
        <CharString name="aogonek">
          74 90 callsubr
          82 -63 63 50 callsubr
          hstemhm
          50 80 116 66 36 70 hintmask 10111111
          415 -160 rmoveto
          -24 callgsubr
          30 18 74 149 2 hvcurveto
          21 vlineto
          -15 -24 3 5 -15 hvcurveto
          -6 50 -1 60 50 vvcurveto
          172 9 93 13 53 -37 callsubr
          15 -52 -34 6 -54 -45 callgsubr
          hintmask 11011111
          -72 callsubr
          -50 -3 -56 -8 -50 vhcurveto
          -39 -26 -37 -39 -15 -37 rrcurveto
          -35 callsubr
          -285 390 -25 callsubr
          42 callsubr
          34 39 -10 -14 31 hvcurveto
          5 -31 2 -32 -129 vvcurveto
          -47 -18 -82 -93 -50 hhcurveto
          -49 -19 105 49 hvcurveto
          endchar
        </CharString>
        <CharString name="apple">
          210 314 82 hstemhm
          419 80 -47 47 hintmask 11000000
          525 396 rmoveto
          -79 -27 -53 -79 hvcurveto
          hintmask 10100000
          21 -23 12 -30 -32 vvcurveto
          -37 -9 -36 -32 -54 vhcurveto
          9 -8 rlineto
          51 39 28 63 63 vvcurveto
          48 0 57 47 27 18 -20 -23 14 vhcurveto
          13 7 -17 44 -35 50 -41 24 rlinecurve
          -326 -398 rmoveto
          29 -4 62 0 61 6 rrcurveto
          50 39 28 63 63 vvcurveto
          74 -55 50 -74 11 vhcurveto
          -27 4 -27 10 -24 13 rrcurveto
          3 2 2 4 6 vvcurveto
          11 -6 9 -8 7 vhcurveto
          -13 -8 -12 -8 -13 vvcurveto
          -3 vlineto
          -51 -32 -47 -53 -33 hvcurveto
          -33 30 35 -23 44 hhcurveto
          -5 0 -5 1 -5 vhcurveto
          -18 -2 -16 -6 -13 -14 rrcurveto
          -3 vlineto
          -2 13 20 -1 23 hhcurveto
          19 -41 45 -31 50 -33 -1 -4 -2 -5 -2 -3 rrcurveto
          3 -9 -18 3 -11 hhcurveto
          -25 -21 -5 -18 -17 hvcurveto
          -23 232 rmoveto
          -13 -12 10 13 -5 hvcurveto
          4 2 rlineto
          -8 7 8 -5 11 hhcurveto
          10 9 5 8 7 hvcurveto
          4 -2 rlineto
          -13 -5 -12 -10 -13 hhcurveto
          endchar
        </CharString>
        <CharString name="approxequal">
          150 103 70 -4 184 -70 70 70 -20 hstemhm
          hintmask 01010000
          68 115 rmoveto
          35 23 37 19 41 hhcurveto
          hintmask 10110000
          -22 callsubr
          18 169 rmoveto
          35 23 37 19 41 -22 callsubr
          endchar
        </CharString>
        <CharString name="aring">
          1 callsubr
          28 35 111 35 hstemhm
          50 80 66 47 99 47 -41 70 hintmask 1110010010000000
          50 176 -106 callgsubr
          hintmask 0001101100000000
          66 377 rmoveto
          -89 callgsubr
        </CharString>
        <CharString name="asciicircum">
          78 312 -21 405 -20 hstem
          259 580 rmoveto
          180 -289 29 15 -48 82 -53 100 -83 208 rlinecurve
          -53 -10 -83 -208 -50 -90 -48 -82 rlinecurve
          29 -15 rlineto
          endchar
        </CharString>
        <CharString name="asciitilde">
          150 188 70 70 -20 hstem
          68 200 rmoveto
          35 23 37 19 41 -22 callsubr
          endchar
        </CharString>
        <CharString name="asterisk">
          -69 404 -21 139 50 79 -20 80 -20 hstem
          231 676 rmoveto
          -2 2 rlineto
          24 callsubr
          17 -29 14 -45 5 -38 rlinecurve
          -31 23 -31 34 -16 30 rrcurveto
          -3 hlineto
          -3 -6 -3 -14 -2 -6 -11 2 -26 6 -6 -4 rrcurveto
          -8 18 -18 7 -9 vhcurveto
          -4 -5 -11 -9 -3 -6 1 -2 rcurveline
          34 1 45 -11 36 -15 -36 -16 -45 -10 -34 1 -1 -2 rcurveline
          3 -6 11 -9 4 -5 rrcurveto
          -7 -9 -18 -19 -7 vvcurveto
          7 -4 25 6 11 2 2 -6 3 -14 3 -6 rrcurveto
          3 hlineto
          16 29 31 35 31 23 -5 -39 -14 -44 -17 -29 87 callsubr
          8 -25 6 -3 7 4 7 24 86 callsubr
          -18 29 -14 44 -4 39 rlinecurve
          31 -23 31 -35 16 -29 rrcurveto
          3 hlineto
          3 6 3 14 2 6 11 -2 26 -6 6 4 rrcurveto
          8 -18 18 -7 9 vhcurveto
          4 5 11 9 3 6 -1 2 rcurveline
          -34 -1 -46 10 -36 16 36 15 46 11 34 -1 1 2 rcurveline
          -3 6 -11 9 -4 5 rrcurveto
          7 9 18 19 7 vvcurveto
          -7 4 -25 -6 -11 -2 -2 6 -3 14 -3 6 rrcurveto
          -3 hlineto
          -16 -30 -31 -34 -31 -23 4 38 14 45 18 29 rrcurveto
          endchar
        </CharString>
        <CharString name="at">
          420 -190 50 125 82 356 62 131 50 hstem
          55 66 120 80 218 70 150 64 vstem
          241 176 59 callsubr
          -40 11 -93 23 -27 vhcurveto
          170 42 80 161 175 vvcurveto
          215 -134 88 -215 vhcurveto
          -261 -37 -158 -211 -263 vvcurveto
          -235 111 -110 235 vhcurveto
          44 10 53 23 37 26 -7 13 rcurveline
          -14 -36 -45 -8 -38 hhcurveto
          -195 -93 116 196 138 60 165 100 95 hvcurveto
          29 47 65 17 65 hhcurveto
          197 104 -90 -197 -110 -38 -133 -95 -55 hvcurveto
          -14 57 -3 85 62 vvcurveto
          101 7 112 15 63 -37 callsubr
          -100 callgsubr
          endchar
        </CharString>
        <CharString name="atilde">
          1 callsubr
          66 69 -38 38 31 65 callsubr
          hintmask 11100011
          50 176 -106 callgsubr
          hintmask 00001100
          18 349 -6 callgsubr
          hintmask 00010100
          -92 callsubr
        </CharString>
        <CharString name="b">
          71 -15 62 356 82 255 -20 hstem
          91 70 218 80 vstem
          459 13 callgsubr
          -35 -10 -36 -8 -36 -6 -9 14 -9 22 -5 17 -21 -6 rcurveline
          21 -83 3 -103 -172 vvcurveto
          -141 -4 -134 -9 -80 vhcurveto
          -26 57 56 -10 62 -8 callgsubr
          -18 callsubr
        </CharString>
        <CharString name="backslash">
          -89 -24 -21 762 -20 hstem
          282 -45 rmoveto
          14 6 17 10 10 12 -23 57 -29 77 -20 58 -109 318 rcurveline
          -27 80 -20 62 -22 82 rrcurveto
          -4 hlineto
          -15 -9 -16 -6 -17 -6 19 -49 25 -69 34 -100 178 -523 rcurveline
          endchar
        </CharString>
        <CharString name="bar">
          -202 -195 -21 966 -20 hstem
          96 48 vstem
          144 -199 rmoveto
          769 1 108 1 71 vhcurveto
          -5 1 -14 -10 -21 -10 -17 -7 rlinecurve
          3 -106 4 -79 -751 vvcurveto
          7 -3 13 4 19 8 9 5 rlinecurve
          endchar
        </CharString>
        <CharString name="braceleft">
          -140 -194 -21 926 -20 hstemhm
          89 55 -28 28 -28 73 hintmask 11100000
          224 711 rmoveto
          -59 -17 -76 -63 -62 vvcurveto
          hintmask 11010000
          -95 27 -70 -95 vvcurveto
          -31 -41 -16 -31 -7 vhcurveto
          4 -19 rlineto
          30 -5 38 -15 -29 vvcurveto
          hintmask 11100000
          -95 -27 -70 -95 vvcurveto
          -62 76 -63 59 -17 vhcurveto
          4 14 -35 18 -37 38 -12 37 rlinecurve
          hintmask 11001000
          92 45 101 82 vvcurveto
          -13 31 -49 31 -29 17 rrcurveto
          4 vlineto
          29 17 49 31 13 31 rrcurveto
          hintmask 11100000
          82 -45 101 92 vvcurveto
          12 37 37 38 35 18 rrcurveto
          endchar
        </CharString>
        <CharString name="braceright">
          -152 -194 -21 926 -20 hstemhm
          111 73 -28 28 -28 55 hintmask 11010000
          72 697 rmoveto
          35 -18 37 -38 12 -37 rrcurveto
          hintmask 11100000
          -92 -45 -101 -82 vvcurveto
          13 -31 49 -31 29 -17 rrcurveto
          -4 vlineto
          -29 -17 -49 -31 -13 -31 rrcurveto
          hintmask 11001000
          -82 45 -101 -92 vvcurveto
          -12 -37 -37 -38 -35 -18 4 -14 rcurveline
          59 17 76 63 62 vvcurveto
          hintmask 11100000
          95 -27 70 95 vvcurveto
          29 38 15 30 5 vhcurveto
          4 19 rlineto
          -31 7 -41 16 31 vvcurveto
          hintmask 11001000
          95 27 70 95 vvcurveto
          62 -76 63 -59 17 vhcurveto
          endchar
        </CharString>
        <CharString name="bracketleft">
          -114 -187 -21 912 -20 hstem
          104 60 vstem
          296 -172 rmoveto
          -34 1 -65 7 -33 9 rrcurveto
          806 vlineto
          33 9 65 7 34 1 rrcurveto
          21 vlineto
          -61 -1 -74 1 -60 15 -7 -5 rcurveline
          7 -48 3 -196 -206 vvcurveto
          -206 -3 -198 -7 -48 vhcurveto
          7 -5 60 15 74 1 61 -1 rlinecurve
          endchar
        </CharString>
        <CharString name="bracketright">
          -114 -187 -21 912 -20 hstem
          162 60 vstem
          30 -193 rmoveto
          61 1 74 -1 60 -15 7 5 rcurveline
          -7 48 -3 198 206 vvcurveto
          206 3 196 7 48 vhcurveto
          -7 5 -60 -15 -74 -1 -61 1 rlinecurve
          -21 vlineto
          34 -1 65 -7 33 -9 rrcurveto
          -806 vlineto
          -33 -9 -65 -7 -34 -1 rrcurveto
          endchar
        </CharString>
        <CharString name="breve">
          69 548 66 69 -20 hstem
          94 658 -98 callsubr
          endchar
        </CharString>
        <CharString name="brokenbar">
          -195 -194 -21 967 -20 hstem
          101 48 vstem
          149 340 rmoveto
          14 callgsubr
          -538 vmoveto
          14 callgsubr
          endchar
        </CharString>
        <CharString name="bullet">
          -91 162 -21 266 -20 hstem
          297 288 rmoveto
          -48 39 -34 24 -30 56 rrcurveto
          -20 hlineto
          -30 -56 -34 -24 -49 -40 rrcurveto
          -14 vlineto
          49 -39 35 -36 29 -57 rrcurveto
          20 hlineto
          29 57 35 36 48 40 rrcurveto
          endchar
        </CharString>
        <CharString name="c">
          69 callgsubr
          hstem
          50 80 vstem
          -98 callgsubr
          endchar
        </CharString>
        <CharString name="c_t">
          265 -15 72 366 50 182 56 hstem
          47 80 330 74 vstem
          235 57 rmoveto
          -96 -12 92 96 50 7 58 22 46 hvcurveto
          42 callsubr
          24 25 -5 -7 24 hvcurveto
          -81 callgsubr
          -40 7 -38 7 -10 5 -5 9 rlinecurve
          -5 17 -2 24 18 vvcurveto
          64 53 35 59 63 30 -31 -63 -6 vhcurveto
          -8 -91 -22 -6 -13 -4 -18 -7 rlinecurve
          56 callsubr
          hlineto
          -4 -199 rlineto
          -178 -4 11 -67 80 hhcurveto
          -68 callsubr
          -21 -12 47 126 3 hvcurveto
          5 198 rlineto
          34 65 -1 -2 34 hvcurveto
          -14 callsubr
          -141 -5 6 97 rlineto
          46 callsubr
          -122 -33 -80 -127 -135 vvcurveto
          -121 50 -84 121 vhcurveto
          -68 callsubr
          endchar
        </CharString>
        <CharString name="cacute">
          69 callgsubr
          61 -21 hstemhm
          50 80 hintmask 11010000
          -98 callgsubr
          hintmask 00100000
          163 577 -91 callgsubr
        </CharString>
        <CharString name="caron">
          -146 541 36 callsubr
          hstem
          13 705 -65 callgsubr
        </CharString>
        <CharString name="caron.cap">
          -98 736 70 callsubr
          hstem
          171 810 -75 callsubr
          endchar
        </CharString>
        <CharString name="ccaron">
          69 callgsubr
          56 36 callsubr
          hstemhm
          50 80 hintmask 11001000
          -98 callgsubr
          hintmask 00110000
          -128 648 -65 callgsubr
        </CharString>
        <CharString name="ccedilla">
          -53 50 callgsubr
          72 -41 -20 427 62 hstemhm
          50 80 110 61 hintmask 00101100
          -98 callgsubr
          hintmask 01010010
          -81 -154 -65 callsubr
          hintmask 10010010
          -79 callsubr
        </CharString>
        <CharString name="ccircumflex">
          69 callgsubr
          58 36 callsubr
          hstemhm
          50 80 hintmask 11001000
          -98 callgsubr
          hintmask 00110000
          4 555 -88 callsubr
          endchar
        </CharString>
        <CharString name="cdotaccent">
          69 callgsubr
          95 -8 callsubr
          50 80 hintmask 11001000
          -98 callgsubr
          hintmask 00110000
          58 563 rmoveto
          -97 callsubr
        </CharString>
        <CharString name="cedilla">
          -256 -194 -21 37 -20 214 -20 hstemhm
          123 61 hintmask 01110000
          40 -97 -65 callsubr
          hintmask 10110000
          -79 callsubr
        </CharString>
        <CharString name="cent">
          10 -71 -21 686 -20 hstem
          76 80 75 38 -27 27 vstem
          264 72 rmoveto
          -1 hlineto
          13 365 18 -1 19 -5 19 -5 rlinecurve
          -81 callgsubr
          12 -45 -30 4 -46 hhcurveto
          2 44 2 22 4 25 -4 3 rcurveline
          -9 -3 -10 -2 -9 -1 -4 -98 rcurveline
          -106 -43 -68 -118 -124 vvcurveto
          -117 46 -82 112 -6 vhcurveto
          -6 -77 7 -6 11 -6 9 -3 rlinecurve
          5 hlineto
          1 98 51 24 45 41 31 44 rlinecurve
          -10 10 rlineto
          -28 -31 -42 -25 -41 hhcurveto
          -108 188 rmoveto
          50 7 58 22 46 vhcurveto
          19 17 20 6 24 1 -12 -363 rcurveline
          -71 16 -9 83 86 vvcurveto
          endchar
        </CharString>
        <CharString name="circumflex">
          -146 543 36 callsubr
          hstem
          147 612 -88 callsubr
          endchar
        </CharString>
        <CharString name="circumflex.cap">
          -98 736 70 callsubr
          hstem
          332 715 -42 callsubr
        </CharString>
        <CharString name="colon">
          -228 6 -21 500 -20 hstem
          160 46 rmoveto
          -107 callgsubr
          389 vmoveto
          -97 callsubr
        </CharString>
        <CharString name="comma">
          -227 -118 -21 235 31 callsubr
          -2 -38 -28 -56 -26 -31 10 -10 rcurveline
          58 39 56 76 70 vvcurveto
          endchar
        </CharString>
        <CharString name="commaaccent">
          -324 -194 -21 181 -20 hstem
          116 -84 -72 callgsubr
          -5 -29 -19 -21 -24 -18 10 -13 rcurveline
          54 28 48 43 4 60 rrcurveto
          endchar
        </CharString>
        <CharString name="copyright">
          325 -15 42 92 58 302 187 -42 42 hstemhm
          42 44 137 71 385 44 hintmask 11101110
          388 177 rmoveto
          -81 -13 76 81 38 10 56 18 35 hvcurveto
          12 17 18 4 20 hhcurveto
          19 28 -6 -9 17 hvcurveto
          -15 3 -21 4 -17 vhcurveto
          18 hlineto
          3 30 6 27 12 26 6 4 10 2 8 1 1 17 rcurveline
          8 -35 -48 5 -37 hhcurveto
          -97 -34 -72 -106 -102 vvcurveto
          -103 48 -67 103 vhcurveto
          46 20 44 29 32 40 -12 13 rcurveline
          -24 -26 -35 -20 -35 hhcurveto
          -346 148 rmoveto
          -188 152 -152 188 188 153 152 188 188 -153 153 -188 -188 -152 -153 -188 vhcurveto
          44 hmoveto
          hintmask 11011110
          164 132 135 164 164 133 -135 -164 -164 -133 -134 -164 -164 -132 134 164 vhcurveto
          endchar
        </CharString>
        <CharString name="currency">
          127 84 -21 53 54 299 54 45 -20 hstem
          81 73 269 73 vstem
          81 286 rmoveto
          -41 13 -34 21 -26 vhcurveto
          -29 -27 -29 -27 -25 -21 3 -15 11 -21 10 -11 rrcurveto
          5 hlineto
          91 89 rlineto
          -24 37 48 -12 52 hhcurveto
          45 9 39 18 33 25 101 -105 rcurveline
          15 5 21 8 17 3 2 4 rcurveline
          -32 28 -38 36 -53 51 rrcurveto
          36 40 21 52 60 vvcurveto
          43 -12 35 -21 27 vhcurveto
          99 93 -2 4 -17 3 -21 8 -15 5 rlinecurve
          -28 -29 -24 -27 -25 -25 rrcurveto
          23 -34 -44 13 -51 hhcurveto
          -52 -9 -46 -20 -37 -30 -105 104 rcurveline
          -5 hlineto
          -10 -11 -11 -21 -3 -15 30 -26 37 -33 34 -31 rrcurveto
          -33 -39 -19 -50 -56 vvcurveto
          192 183 rmoveto
          102 48 -63 -96 -38 -10 -45 -22 -31 hvcurveto
          -19 -21 -36 -7 -30 hhcurveto
          -101 -49 65 94 38 10 45 22 31 hvcurveto
          19 21 36 7 30 hhcurveto
          endchar
        </CharString>
        <CharString name="d">
          74 -15 82 418 -20 246 -20 hstem
          43 callgsubr
          vstem
          50 -1 callgsubr
          183 vlineto
          172 4 83 13 75 vhcurveto
          -7 5 -48 -11 -39 -6 -48 -2 rlinecurve
          -21 vlineto
          15 24 -3 -5 15 hvcurveto
          6 -50 1 -60 -78 31 callgsubr
          17 callgsubr
        </CharString>
        <CharString name="dagger">
          -62 666 -20 hstem
          176 24 vstem
          253 316 rmoveto
          -29 34 -21 51 -1 44 -57 callsubr
          -45 -22 -50 -28 -34 rrcurveto
          -4 vlineto
          26 -32 23 -73 2 -124 3 -198 rcurveline
          6 -2 8 0 6 2 3 198 rcurveline
          2 124 23 73 26 32 rrcurveto
          endchar
        </CharString>
        <CharString name="daggerdbl">
          -62 -96 -21 783 -20 hstem
          176 26 vstem
          253 257 rmoveto
          -13 2 -34 11 -1 5 1 4 34 12 13 2 rrcurveto
          4 vlineto
          -39 34 -11 40 -1 74 -57 callsubr
          -75 -12 -39 -38 -34 rrcurveto
          -4 vlineto
          13 -2 34 -12 1 -4 -1 -5 -34 -11 -13 -2 rrcurveto
          -4 vlineto
          38 -35 12 -40 1 -74 -46 6 -51 17 -34 22 -3 -3 rcurveline
          -8 7 -18 1 -7 vhcurveto
          -14 -5 -31 -9 -4 -8 5 -9 30 -9 14 -4 rrcurveto
          -1 -7 -7 -18 -8 vvcurveto
          3 -3 33 21 51 17 46 6 rlinecurve
          -4 -50 -15 -61 -25 -39 3 -3 rcurveline
          8 18 7 1 7 hvcurveto
          4 -14 10 -31 8 -4 8 4 10 31 4 14 rrcurveto
          -1 7 18 -7 8 hhcurveto
          3 3 -25 39 -15 61 -4 50 rlinecurve
          46 -6 50 -17 34 -21 3 3 rcurveline
          8 -7 18 -1 7 vhcurveto
          14 4 30 9 5 9 -4 8 -31 9 -14 5 rrcurveto
          1 7 7 18 8 vvcurveto
          -3 3 -34 -22 -51 -17 -46 -6 rlinecurve
          1 73 11 42 39 34 rrcurveto
          endchar
        </CharString>
        <CharString name="dbar">
          80 -15 82 356 172 -110 -20 102 125 19 -20 hstemhm
          56 80 218 70 hintmask 10110110
          56 -1 callgsubr
          183 vlineto
          80 0 61 3 50 vhcurveto
          62 1 rlineto
          5 vlineto
          -4 9 -3 12 -2 10 -15 -2 -18 -1 -18 -1 2 41 4 33 6 32 rrcurveto
          hintmask 11001110
          -7 5 rlineto
          hintmask 10110110
          -48 -11 -39 -6 -48 -2 rrcurveto
          -21 vlineto
          15 24 -3 -5 15 hvcurveto
          2 -20 2 -22 1 -24 -135 -4 -4 callsubr
          25 4 49 4 44 1 rrcurveto
          22 hlineto
          1 -27 0 -31 -33 31 callgsubr
          hintmask 11001110
          17 callgsubr
        </CharString>
        <CharString name="degree">
          -73 396 39 193 39 hstem
          45 57 163 57 vstem
          45 509 rmoveto
          -75 64 -38 75 vhcurveto
          81 17 57 58 81 vvcurveto
          75 -55 40 -75 vhcurveto
          -83 -14 -64 -60 -84 vvcurveto
          129 119 rmoveto
          62 29 -41 -62 -24 -6 -29 -13 -20 hvcurveto
          -12 -13 -22 -5 -18 hhcurveto
          -61 -30 42 61 24 6 29 13 20 hvcurveto
          12 13 22 5 18 hhcurveto
          endchar
        </CharString>
        <CharString name="dieresis">
          -147 580 64 callsubr
          620 -104 callgsubr
        </CharString>
        <CharString name="dieresis.cap">
          -147 763 64 callsubr
          803 -104 callgsubr
        </CharString>
        <CharString name="divide">
          66 91 65 49 68 91 hstem
          229 89 vstem
          318 385 rmoveto
          55 callsubr
          -273 vmoveto
          55 callsubr
          178 156 -32 callgsubr
          endchar
        </CharString>
        <CharString name="dollar">
          10 -71 -21 98 -21 609 -20 hstemhm
          93 60 60 26 -8 26 71 60 hintmask 11110110
          122 75 rmoveto
          -2 22 0 17 22 vvcurveto
          -22 hlineto
          -4 -45 -10 -31 -29 -36 rrcurveto
          -13 vlineto
          -18 50 48 -8 53 hhcurveto
          -5 -62 7 -7 10 -5 10 -3 rlinecurve
          5 hlineto
          1 90 rlineto
          88 43 66 78 70 vvcurveto
          44 -71 41 -63 37 vhcurveto
          6 147 29 -1 20 -5 25 -9 rlinecurve
          3 -23 0 -16 71 callgsubr
          -51 -36 3 -52 hhcurveto
          1 24 2 19 4 25 -4 3 rcurveline
          hintmask 11111010
          -8 -3 -10 -2 -9 -1 -3 -77 rcurveline
          -77 -39 -66 -71 -59 vvcurveto
          -42 64 -40 61 -36 vhcurveto
          -9 -174 -30 2 -31 9 -26 14 rlinecurve
          206 57 rmoveto
          -57 -48 -21 -44 -4 vhcurveto
          7 159 rlineto
          46 -27 39 -26 -24 vvcurveto
          -175 267 rmoveto
          40 45 14 36 4 vhcurveto
          -5 -131 rlineto
          -42 26 -34 24 23 vvcurveto
          endchar
        </CharString>
        <CharString name="dotaccent">
          -132 580 78 callgsubr
          208 22 callsubr
          endchar
        </CharString>
        <CharString name="dotaccentcmb">
          -332 580 64 callsubr
          22 callsubr
          endchar
        </CharString>
        <CharString name="dotaccentcmb.cap">
          -332 763 64 callsubr
          803 rmoveto
          -97 callsubr
        </CharString>
        <CharString name="dotlessi">
          -153 -20 callsubr
          hstemhm
          116 74 hintmask 10110000
          -86 callgsubr
          hintmask 01110000
          -55 callgsubr
          hintmask 10110000
          -21 callgsubr
        </CharString>
        <CharString name="dotlessj">
          77 callgsubr
          hstem
          113 72 vstem
          32 -215 -69 callgsubr
          endchar
        </CharString>
        <CharString name="e">
          -14 -12 callgsubr
          33 callgsubr
          hintmask 11011000
          -101 callsubr
          hintmask 10111000
          -83 callgsubr
          endchar
        </CharString>
        <CharString name="eacute">
          -14 -12 callgsubr
          61 -21 33 callgsubr
          hintmask 11001100
          -101 callsubr
          hintmask 10101100
          -83 callgsubr
          hintmask 00010000
          242 235 -91 callgsubr
        </CharString>
        <CharString name="ebreve">
          -14 -12 callgsubr
          63 66 69 -20 33 callgsubr
          hintmask 11000110
          -101 callsubr
          hintmask 10100110
          -83 callgsubr
          hintmask 00011000
          -60 259 -98 callsubr
          endchar
        </CharString>
        <CharString name="ecaron">
          -14 -12 callgsubr
          56 36 callsubr
          33 callgsubr
          hintmask 11000110
          -101 callsubr
          hintmask 10100110
          -83 callgsubr
          hintmask 00011000
          -37 306 -65 callgsubr
        </CharString>
        <CharString name="ecircumflex">
          -14 -12 callgsubr
          58 36 callsubr
          33 callgsubr
          hintmask 11000110
          -101 callsubr
          hintmask 10100110
          -83 callgsubr
          hintmask 00011000
          97 213 -88 callsubr
          endchar
        </CharString>
        <CharString name="edieresis">
          -14 -12 callgsubr
          95 -21 111 -20 33 callgsubr
          hintmask 11000110
          -101 callsubr
          hintmask 10100110
          -83 callgsubr
          hintmask 00011000
          58 221 -104 callgsubr
        </CharString>
        <CharString name="egrave">
          -14 -12 callgsubr
          61 -21 33 callgsubr
          hintmask 11001100
          -101 callsubr
          hintmask 10101100
          -83 callgsubr
          hintmask 00010000
          120 126 -46 callgsubr
          endchar
        </CharString>
        <CharString name="eight">
          36 -15 62 476 62 hstemhm
          58 91 callgsubr
          258 -54 callsubr
        </CharString>
        <CharString name="eight.dnum">
          -70 0 47 312 47 hstemhm
          55 62 callsubr
          199 406 -85 callsubr
        </CharString>
        <CharString name="eight.numr">
          -70 260 47 312 47 hstemhm
          55 62 callsubr
          199 666 -85 callsubr
        </CharString>
        <CharString name="eight.tabonum">
          10 -15 62 476 62 hstemhm
          45 91 callgsubr
          245 -54 callsubr
        </CharString>
        <CharString name="eightsuperior">
          -73 340 47 312 47 hstemhm
          54 62 callsubr
          198 746 -85 callsubr
        </CharString>
        <CharString name="ellipsis">
          210 6 78 callgsubr
          160 46 rmoveto
          -107 callgsubr
          219 30 callgsubr
          219 -91 callsubr
        </CharString>
        <CharString name="emacron">
          -14 -12 callgsubr
          101 49 -29 -21 56 -20 33 callgsubr
          hintmask 11000011
          -101 callsubr
          hintmask 10100011
          -83 callgsubr
          hintmask 00010000
          233 235 72 callgsubr
          -3 -34 -40 -1 -34 60 callgsubr
          2 -33 hvcurveto
          hintmask 00001100
          -31 callsubr
        </CharString>
        <CharString name="emdash">
          175 245 42 9 -20 hstemhm
          hintmask 10000000
          619 284 12 callsubr
        </CharString>
        <CharString name="endash">
          -30 245 42 9 -20 hstemhm
          hintmask 10000000
          417 284 rmoveto
          -6 6 rlineto
          -2 -26 -44 -1 -26 hhcurveto
          hintmask 01000000
          -143 -86 3 6 -83 hvcurveto
          -8 -44 rlineto
          hintmask 10000000
          8 -7 rlineto
          406 hlineto
          endchar
        </CharString>
        <CharString name="eogonek">
          -14 90 callsubr
          72 214 214 -62 62 hstemhm
          50 80 8 66 89 80 hintmask 11101110
          307 -160 rmoveto
          -24 callgsubr
          78 104 34 64 90 hvcurveto
          -11 10 rlineto
          -29 -33 -47 -24 -43 hhcurveto
          -94 -14 87 94 hvcurveto
          136 29 89 5 56 -1 1 21 rcurveline
          -16 -17 2 6 -16 hvcurveto
          6 16 4 32 17 vvcurveto
          89 -32 31 -89 vhcurveto
          -126 -35 -76 -130 -130 vvcurveto
          -120 54 -83 119 -2 vhcurveto
          -37 -26 -34 -37 -14 -35 rrcurveto
          -35 callsubr
          -148 568 rmoveto
          hintmask 11011110
          -83 callgsubr
          endchar
        </CharString>
        <CharString name="equal">
          145 49 105 49 9 -20 hstemhm
          hintmask 11000000
          496 191 -32 callgsubr
          9 200 -14 callgsubr
          hintmask 10100000
          -113 -117 3 6 -113 hvcurveto
          -9 -51 rlineto
          hintmask 11000000
          8 -7 rlineto
          426 hlineto
          endchar
        </CharString>
        <CharString name="eth">
          31 6 -21 726 -20 hstem
          45 81 223 80 vstem
          299 572 rmoveto
          105 65 -3 4 -8 6 -9 8 -6 8 rlinecurve
          -21 -16 -25 -15 -24 -15 -49 -31 rcurveline
          -59 49 -67 42 -68 34 -14 -23 rcurveline
          65 -39 54 -41 46 -49 -113 -70 rcurveline
          5 -10 2 -11 3 -10 5 -3 rcurveline
          19 17 39 28 39 23 22 13 rcurveline
          42 -51 34 -59 25 -72 rrcurveto
          16 callsubr
          116 -59 97 -85 79 vhcurveto
          21 -510 7 callsubr
        </CharString>
        <CharString name="exclam">
          -214 6 -21 hstem
          82 37 vstem
          160 46 rmoveto
          -107 callgsubr
          -67 134 rmoveto
          26 2 12 242 17 114 33 118 rlinecurve
          -9 13 -13 18 -10 9 -18 1 -43 -10 -16 -8 rrcurveto
          endchar
        </CharString>
        <CharString name="exclamdown">
          -214 486 -20 hstem
          107 36 vstem
          66 13 callsubr
          -12 -235 -17 -113 -33 -111 rlinecurve
          9 -13 13 -18 10 -9 18 -1 43 10 16 8 rrcurveto
          endchar
        </CharString>
        <CharString name="f">
          -115 -179 -21 629 44 0 166 72 68 callsubr
          hintmask 10110100
          311 425 rmoveto
          -14 callsubr
          -142 -5 rlineto
          54 5 47 16 43 vhcurveto
          -69 callsubr
          hintmask 11010100
          54 callsubr
          -199 hlineto
          hintmask 11011000
          -51 callgsubr
          hintmask 11010100
          -8 104 -4 97 89 vvcurveto
          198 vlineto
          34 66 -1 -2 34 hvcurveto
          endchar
        </CharString>
        <CharString name="f_">
          142 67 callsubr
          427 43 0 169 72 68 callsubr
          234 74 hintmask 11101101
          485 274 rmoveto
          53 4 101 6 callgsubr
          hintmask 11011011
          -69 callsubr
          2 -2 rlineto
          54 -199 hlineto
          hintmask 11101101
          -51 callgsubr
          hintmask 11101011
          8 callgsubr
          -51 1 -45 -127 vvcurveto
          -49 9 callgsubr
          -4 30 -3 81 49 vvcurveto
          94 444 -91 callgsubr
        </CharString>
        <CharString name="f_b">
          388 -179 -21 185 62 356 84 callsubr
          231 70 218 80 hintmask 1110011110000000
          776 13 callgsubr
          -32 -9 -32 -7 -32 -6 -33 11 -30 -26 callgsubr
          hintmask 1101011110000000
          -78 callsubr
          hintmask 1100111110000000
          25 40 41 11 47 hhcurveto
          27 28 -5 -16 24 hvcurveto
          5 -63 1 -78 -101 vvcurveto
          -141 -4 -134 -9 -80 vhcurveto
          -26 57 56 -10 62 -8 callgsubr
          -20 -22 -23 -4 -29 hhcurveto
          -34 -39 10 14 -31 hvcurveto
          -5 31 -19 callsubr
          hintmask 1110011110000000
          47 18 82 93 50 hhcurveto
          49 19 -105 -49 hvcurveto
          endchar
        </CharString>
        <CharString name="f_h">
          405 67 callsubr
          403 84 callsubr
          232 70 208 71 hintmask 1101011110000000
          439 689 rmoveto
          -33 11 -30 -26 callgsubr
          -78 callsubr
          hintmask 1100111110000000
          38 callsubr
          5 -64 1 -77 -101 vvcurveto
          -186 vlineto
          -49 9 callgsubr
          -9 72 -2 32 129 vvcurveto
          hintmask 1110011110000000
          45 callsubr
          7 -4 rcurveline
          -56 callsubr
          185 5 99 10 55 vhcurveto
          16 8 17 10 14 11 -5 18 rcurveline
          -34 -10 -30 -7 -33 -5 rrcurveto
          endchar
        </CharString>
        <CharString name="f_j">
          149 -194 -21 642 43 0 167 74 68 callsubr
          234 72 hintmask 11011010
          503 22 callsubr
          -173 -835 rmoveto
          65 54 71 80 24 81 rrcurveto
          -5 54 -2 50 117 vvcurveto
          117 6 90 6 callgsubr
          hintmask 10110110
          -18 callgsubr
          hintmask 11011010
          -51 callgsubr
          hintmask 11010110
          8 callgsubr
          -52 1 -50 -121 vvcurveto
          -137 vlineto
          -93 -37 -88 -59 -72 vhcurveto
          endchar
        </CharString>
        <CharString name="f_k">
          372 67 callsubr
          473 166 72 -20 hstem
          103 74 231 70 183 80 vstem
          478 -77 callsubr
          -35 -10 -29 -7 -32 -6 -33 12 -31 -26 callgsubr
          -78 callsubr
          38 callsubr
          4 -56 1 -67 -78 vvcurveto
          -187 vlineto
          -89 9 callgsubr
          -9 72 -2 32 129 vvcurveto
          endchar
        </CharString>
        <CharString name="f_t">
          198 -179 -21 185 72 371 44 0 167 -69 -20 161 68 callsubr
          213 74 hintmask 1110111010000000
          471 -5 callsubr
          -35 -63 -34 -28 -72 -2 -132 -4 rcurveline
          54 5 48 16 43 vhcurveto
          hintmask 1101010110000000
          -69 callsubr
          2 -2 rlineto
          54 -199 hlineto
          hintmask 1110111010000000
          -51 callgsubr
          hintmask 1110110110000000
          -8 104 -4 97 89 vvcurveto
          198 217 vlineto
          -4 -198 -62 callgsubr
          endchar
        </CharString>
        <CharString name="fi">
          142 67 callsubr
          427 43 0 167 74 68 callsubr
          234 74 hintmask 11101101
          503 22 callsubr
          -18 -346 rmoveto
          53 4 101 6 callgsubr
          hintmask 11011011
          -18 callgsubr
          hintmask 11101101
          -51 callgsubr
          hintmask 11101011
          8 callgsubr
          -51 1 -45 -127 vvcurveto
          -49 9 callgsubr
          -4 30 -3 81 49 vvcurveto
          endchar
        </CharString>
        <CharString name="five">
          21 78 callsubr
          97 40 178 88 vstem
          323 -66 callsubr
        </CharString>
        <CharString name="five.dnum">
          -70 21 -21 52 164 0 49 -49 173 18 -20 hstemhm
          90 184 -37 71 hintmask 10010100
          246 340 -90 callsubr
        </CharString>
        <CharString name="five.numr">
          -70 280 -21 52 164 0 49 -49 173 18 -20 hstemhm
          90 184 -37 71 hintmask 10010100
          246 599 -90 callsubr
        </CharString>
        <CharString name="five.tabonum">
          10 78 callsubr
          100 40 178 88 vstem
          326 -66 callsubr
        </CharString>
        <CharString name="fivesuperior">
          -101 360 -21 52 164 0 49 -49 173 18 -20 hstemhm
          83 184 -37 71 hintmask 10010100
          239 679 -90 callsubr
        </CharString>
        <CharString name="fl">
          152 67 callsubr
          473 166 72 -20 hstem
          103 74 230 76 vstem
          483 417 rmoveto
          1 93 2 99 10 55 16 8 17 10 14 11 -5 18 rcurveline
          -34 -10 -32 -7 -33 -5 -33 11 -30 -26 callgsubr
          -78 callsubr
          38 callsubr
          3 -27 4 -92 -1 -82 -3 14 callsubr
          -55 callgsubr
          4 callgsubr
          endchar
        </CharString>
        <CharString name="fleuron_001">
          430 -79 -21 272 118 -14 66 -66 118 272 -20 hstemhm
          324 118 -14 66 -66 118 hintmask 11001100
          313 415 rmoveto
          -42 42 35 49 -6 69 -5 5 rcurveline
          -26 26 -37 16 -30 -30 -14 -14 0 -27 6 -23 -4 -4 rcurveline
          -23 6 -27 0 -14 -14 -30 -30 16 -37 26 -26 5 -5 rcurveline
          69 -6 49 35 42 -42 24 -24 -9 -22 -6 -27 rrcurveto
          -22 -14 -9 -20 -34 hhcurveto
          hintmask 10011100
          -59 -10 60 44 -53 hvcurveto
          -7 hlineto
          -37 -37 -15 -42 -20 19 -19 20 -12 hvcurveto
          -6 vlineto
          -20 -12 -19 -19 -20 vvcurveto
          hintmask 11001100
          -42 37 -15 37 vhcurveto
          7 hlineto
          hintmask 10101001
          44 53 10 60 59 hhcurveto
          34 9 -21 -22 14 hvcurveto
          6 -26 9 -22 -24 -24 -42 -42 -49 35 -69 -6 -5 -5 rcurveline
          -26 -26 -16 -37 30 -30 14 -14 27 0 23 6 4 -4 rcurveline
          -6 -23 0 -27 14 -14 30 -30 37 16 26 26 5 5 rcurveline
          6 69 -35 49 42 42 24 24 22 -9 26 -6 rrcurveto
          22 -14 21 -9 -34 vvcurveto
          hintmask 11001100
          -59 -60 -10 -44 -53 vhcurveto
          -7 vlineto
          -37 15 -37 42 20 19 19 20 12 vhcurveto
          6 hlineto
          -20 12 19 -19 20 hhcurveto
          hintmask 11001001
          42 15 37 37 hvcurveto
          7 vlineto
          hintmask 10011100
          -44 53 -60 10 59 vvcurveto
          34 20 9 22 14 vhcurveto
          27 6 22 9 24 -24 42 -42 -35 -49 6 -69 5 -5 rcurveline
          26 -26 37 -16 30 30 14 14 0 27 -6 23 4 4 rcurveline
          23 -6 27 0 14 14 30 30 -16 37 -26 26 -5 5 rcurveline
          -69 6 -49 -35 -42 42 -24 24 9 22 5 26 rrcurveto
          22 14 10 21 34 hhcurveto
          hintmask 11001100
          59 10 -60 -44 53 hvcurveto
          7 hlineto
          37 37 15 42 20 -19 19 -20 12 hvcurveto
          6 vlineto
          20 12 19 19 20 vvcurveto
          hintmask 10011100
          42 -37 15 -37 vhcurveto
          -7 hlineto
          hintmask 11001100
          -44 -53 -10 -60 -59 hhcurveto
          -34 -10 20 22 -14 hvcurveto
          -5 27 -9 22 24 24 42 42 49 -35 69 6 5 5 rcurveline
          26 26 16 37 -30 30 -14 14 -27 0 -23 -6 -4 4 rcurveline
          6 23 0 27 -14 14 -30 30 -37 -16 -26 -26 -5 -5 rcurveline
          -6 -69 35 -49 -42 -42 -24 -24 -22 9 -27 5 rrcurveto
          -22 14 -20 10 34 vvcurveto
          hintmask 11001001
          59 60 10 44 53 vhcurveto
          7 vlineto
          37 -15 37 -42 -20 -19 -19 -20 -12 vhcurveto
          -6 hlineto
          20 -12 -19 19 -20 hhcurveto
          hintmask 11001100
          -42 -15 -37 -37 hvcurveto
          -7 vlineto
          hintmask 11001010
          44 -53 60 -10 -59 vvcurveto
          -34 -21 -10 -22 -14 vhcurveto
          -26 -5 -22 -9 -24 24 rrcurveto
          121 -84 rmoveto
          2 hlineto
          7 13 12 8 12 9 2 -14 3 -15 -4 -14 2 -2 rcurveline
          14 4 15 -3 14 -2 -9 -11 -8 -13 -13 -7 rrcurveto
          -2 vlineto
          13 -7 8 -13 9 -11 -14 -2 -15 -3 -14 4 -2 -2 rcurveline
          4 -14 -3 -15 -2 -14 -11 8 -13 9 -7 13 rrcurveto
          -2 hlineto
          -7 -13 -13 -9 -11 -8 -2 14 -3 15 4 14 -2 2 rcurveline
          -14 -4 -15 2 -14 2 8 12 9 13 13 7 rrcurveto
          2 vlineto
          -13 7 -9 12 -8 12 14 2 15 3 14 -4 2 2 rcurveline
          -4 14 2 15 2 14 12 -9 13 -8 7 -13 rrcurveto
          endchar
        </CharString>
        <CharString name="fleuron_003">
          -21 -194 -21 27 -20 683 -20 25 -20 251 94 callsubr
          159 -122 47 -11 49 hintmask 10101010
          214 163 rmoveto
          hintmask 10101001
          28 21 4 17 15 vhcurveto
          19 -23 6 -14 14 vhcurveto
          14 13 23 7 20 vvcurveto
          hintmask 10101010
          -17 14 -21 5 28 vvcurveto
          hintmask 10011100
          41 43 8 32 37 vhcurveto
          6 vlineto
          25 -11 27 -29 -14 -15 -14 -15 -9 vhcurveto
          -4 hlineto
          15 -7 -15 14 -15 hhcurveto
          -29 -11 -27 -25 72 callsubr
          -28 -18 -5 -18 -14 vhcurveto
          hintmask 10101001
          -20 23 -6 13 -14 vhcurveto
          hintmask 10101010
          -13 -14 -23 -6 -19 vvcurveto
          hintmask 10101001
          18 -15 18 -4 -28 84 callgsubr
          -25 11 -27 29 15 15 14 15 7 vhcurveto
          4 hlineto
          -15 9 15 -14 14 hhcurveto
          29 11 27 25 83 callsubr
          -233 vmoveto
          hintmask 10101001
          26 21 5 17 14 vhcurveto
          22 -31 6 -11 19 vhcurveto
          -2 hlineto
          hintmask 10101010
          -9 -19 -32 -6 -22 vvcurveto
          hintmask 10101001
          18 -14 18 -5 -26 84 callgsubr
          -27 11 -25 29 vhcurveto
          hintmask 01101100
          15 15 14 13 7 hvcurveto
          4 hlineto
          hintmask 10101100
          -13 9 15 -14 14 hhcurveto
          29 11 25 27 83 callsubr
          637 vmoveto
          hintmask 10101100
          41 43 8 32 37 vhcurveto
          6 vlineto
          27 -11 25 -29 -14 -15 -14 -13 -9 vhcurveto
          -4 hlineto
          13 -7 -15 14 -15 hhcurveto
          -29 -11 -25 -27 72 callsubr
          -27 -18 -4 -18 -14 vhcurveto
          -23 32 -5 9 -19 vhcurveto
          2 hlineto
          hintmask 10101001
          11 19 31 5 23 vvcurveto
          hintmask 10101010
          -17 14 -21 4 27 vvcurveto
          endchar
        </CharString>
        <CharString name="florin">
          10 -94 -21 415 166 72 -20 hstem
          178 74 vstem
          258 77 rmoveto
          -4 43 -2 55 80 vvcurveto
          -11 callsubr
          -142 -5 rlineto
          54 5 47 16 43 vhcurveto
          -69 callsubr
          2 -2 rlineto
          54 hlineto
          1 -125 rlineto
          -60 -7 -54 -21 -57 vhcurveto
          -32 callsubr
          87 96 109 83 27 hvcurveto
          endchar
        </CharString>
        <CharString name="four">
          31 73 callsubr
          261 71 hintmask 01111000
          332 -58 callgsubr
        </CharString>
        <CharString name="four.dnum">
          -60 13 144 -131 -21 106 46 249 -20 hstemhm
          197 65 hintmask 01111000
          262 263 -85 callgsubr
        </CharString>
        <CharString name="four.numr">
          -70 272 144 -131 -21 106 46 249 -20 hstemhm
          197 65 hintmask 01111000
          262 522 -85 callgsubr
        </CharString>
        <CharString name="four.tabonum">
          10 73 callsubr
          265 71 hintmask 01111000
          336 -58 callgsubr
        </CharString>
        <CharString name="foursuperior">
          -77 352 144 -131 -21 106 46 249 -20 hstemhm
          197 65 hintmask 01111000
          262 602 -85 callgsubr
        </CharString>
        <CharString name="fraction">
          -21 -21 746 -20 hstem
          24 -42 -57 callgsubr
          endchar
        </CharString>
        <CharString name="g">
          66 callgsubr
          hstem
          53 80 213 70 vstem
          -100 callsubr
          endchar
        </CharString>
        <CharString name="gbreve">
          66 callgsubr
          63 66 69 -20 hstemhm
          53 80 213 70 hintmask 11001100
          -100 callsubr
          hintmask 00110000
          -235 487 -98 callsubr
          endchar
        </CharString>
        <CharString name="gcircumflex">
          66 callgsubr
          58 36 callsubr
          hstemhm
          53 80 213 70 hintmask 11001100
          -100 callsubr
          hintmask 00110000
          -79 441 -88 callsubr
          endchar
        </CharString>
        <CharString name="gdotaccent">
          66 callgsubr
          95 -8 callsubr
          53 80 213 70 hintmask 11001100
          -100 callsubr
          hintmask 00110000
          -25 449 rmoveto
          -97 callsubr
        </CharString>
        <CharString name="germandbls">
          85 -179 -21 206 -21 664 62 hstemhm
          91 98 -86 74 89 75 43 74 -17 56 hintmask 11110101
          289 64 rmoveto
          -1 -2 40 58 callgsubr
          -42 -13 -30 -27 -33 rrcurveto
          -14 vlineto
          -13 34 46 -8 37 hhcurveto
          74 24 84 90 77 80 -156 104 60 vvcurveto
          hintmask 11101110
          19 117 64 107 vvcurveto
          74 -71 27 -74 vhcurveto
          -113 -35 -79 -89 -18 -117 -30 callgsubr
          hintmask 11110110
          -51 callgsubr
          hintmask 11101110
          -8 104 -4 97 89 vvcurveto
          199 vlineto
          94 4 48 23 50 vhcurveto
          20 22 35 8 29 hhcurveto
          59 35 -24 -59 -70 -55 -56 -63 -38 hvcurveto
          -9 vlineto
          hintmask 11110101
          -80 175 -128 -60 vvcurveto
          -51 -32 -27 -51 -23 -26 5 12 -20 vhcurveto
          endchar
        </CharString>
        <CharString name="grave">
          -240 546 -21 hstem
          189 525 -46 callgsubr
          endchar
        </CharString>
        <CharString name="grave.cap">
          -225 752 -21 146 -20 hstem
          207 731 -48 callgsubr
        </CharString>
        <CharString name="greater">
          76 -21 394 -20 hstem
          484 286 rmoveto
          -45 14 -50 18 -91 34 -85 32 -65 28 -72 37 -24 -46 rcurveline
          5 -10 359 -139 rlineto
          -4 vlineto
          -359 -138 -5 -10 26 -47 72 36 60 26 88 35 rlinecurve
          75 30 61 21 64 19 rrcurveto
          endchar
        </CharString>
        <CharString name="greaterequal">
          0 49 403 -20 hstem
          485 298 rmoveto
          -47 12 -52 17 -93 33 -94 33 -57 24 -71 35 -21 -49 rcurveline
          5 -10 362 -126 rlineto
          -4 vlineto
          -362 -127 -5 -10 21 -46 72 33 67 27 86 30 rlinecurve
          73 26 57 18 74 19 rrcurveto
          -426 -233 rmoveto
          426 hlineto
          8 7 -9 51 rlineto
          -6 -113 -117 -3 -113 hhcurveto
          -26 -33 1 2 -26 hvcurveto
          -6 -6 rlineto
          endchar
        </CharString>
        <CharString name="guillemotleft">
          -27 10 callgsubr
          68 160 rmoveto
          97 128 -19 13 -49 -58 -53 -41 -66 -36 rlinecurve
          -20 vlineto
          67 -41 47 -45 54 -57 20 14 rcurveline
          endchar
        </CharString>
        <CharString name="guillemotright">
          -27 132 -21 328 -20 hstem
          194 24 callgsubr
          -274 -141 rmoveto
          20 -14 54 57 47 45 67 41 rlinecurve
          20 vlineto
          -66 36 -53 41 -49 58 -17 -13 rcurveline
          95 -128 rlineto
          endchar
        </CharString>
        <CharString name="guilsinglleft">
          -193 10 callgsubr
          endchar
        </CharString>
        <CharString name="guilsinglright">
          -193 132 -21 328 -20 hstem
          28 24 callgsubr
          endchar
        </CharString>
        <CharString name="h">
          102 65 callgsubr
          255 89 callgsubr
          hintmask 10111100
          -39 callsubr
          hintmask 01111100
          -68 callgsubr
          45 callsubr
          rrcurveto
          endchar
        </CharString>
        <CharString name="hbar">
          102 65 callgsubr
          72 30 153 -20 hstemhm
          102 74 208 71 hintmask 10111110
          372 -15 rmoveto
          -56 callsubr
          98 1 74 3 56 vhcurveto
          92 3 122 2 rlineto
          -30 callsubr
          -119 -4 rcurveline
          2 33 3 26 4 20 16 8 17 10 14 11 -5 18 rcurveline
          -35 -10 -36 -8 -36 -6 -9 14 -9 22 -5 17 -21 -6 rcurveline
          11 -43 6 -49 3 -60 -64 -2 -4 callsubr
          16 2 26 3 28 2 rrcurveto
          2 -50 0 -57 -68 11 callgsubr
          hintmask 01111110
          -68 callgsubr
          45 callsubr
          rrcurveto
          endchar
        </CharString>
        <CharString name="hcircumflex">
          102 65 callgsubr
          255 -20 55 -21 185 89 callgsubr
          hintmask 10110011
          -39 callsubr
          hintmask 01110011
          -68 callgsubr
          45 callsubr
          rrcurveto
          hintmask 10110011
          hintmask 00001100
          -215 855 -88 callsubr
          endchar
        </CharString>
        <CharString name="hungarumlaut">
          101 546 -21 hstem
          446 644 -39 callgsubr
        </CharString>
        <CharString name="hungarumlaut.may">
          101 743 -21 146 -20 hstem
          303 807 -44 callgsubr
          360 85 -44 callgsubr
          endchar
        </CharString>
        <CharString name="hyphen">
          -154 243 45 -31 -21 62 -20 hstemhm
          hintmask 01100000
          260 293 72 callgsubr
          hintmask 10000000
          -7 -59 -54 -3 -59 hhcurveto
          -46 hlineto
          -6 -46 rlineto
          hintmask 01100000
          9 -6 217 15 rlineto
          endchar
        </CharString>
        <CharString name="i">
          -153 -20 callsubr
          115 -8 callsubr
          116 74 hintmask 10100100
          190 274 -34 callsubr
          hintmask 00011000
          18 430 rmoveto
          -97 callsubr
        </CharString>
        <CharString name="iacute">
          -153 -20 callsubr
          81 -21 hstemhm
          116 74 hintmask 10101000
          -86 callgsubr
          hintmask 01101000
          -55 callgsubr
          hintmask 10101000
          -99 callgsubr
          -4 30 -3 81 49 vvcurveto
          hintmask 00010000
          94 444 -91 callgsubr
        </CharString>
        <CharString name="ibreve">
          -153 -20 callsubr
          83 65 70 -20 hstemhm
          116 74 hintmask 00011000
          6 658 rmoveto
          -62 22 71 -48 65 hhcurveto
          51 20 46 48 23 56 -19 11 rcurveline
          -39 -16 -31 -31 -42 hhcurveto
          -47 -28 22 48 -19 hvcurveto
          -4 hlineto
          -16 -9 -34 -6 -21 -1 rrcurveto
          hintmask 10100100
          183 -393 -34 callgsubr
        </CharString>
        <CharString name="icircumflex">
          -153 -20 callsubr
          78 36 callsubr
          hstemhm
          116 74 hintmask 10100100
          190 274 -34 callsubr
          hintmask 00011000
          -44 422 -88 callsubr
          endchar
        </CharString>
        <CharString name="idieresis">
          -153 -20 callsubr
          125 -8 callsubr
          116 74 hintmask 00011000
          115 630 rmoveto
          -107 callgsubr
          171 30 callgsubr
          hintmask 10100100
          -96 -356 -34 callgsubr
        </CharString>
        <CharString name="igrave">
          -153 -20 callsubr
          81 -21 hstemhm
          116 74 hintmask 10101000
          -86 callgsubr
          hintmask 01101000
          -55 callgsubr
          hintmask 10101000
          -99 callgsubr
          -4 30 -3 81 49 vvcurveto
          hintmask 00010000
          29 335 -46 callgsubr
          endchar
        </CharString>
        <CharString name="ij">
          138 -194 -21 228 -21 29 -21 485 -20 115 -8 callsubr
          116 74 210 72 hintmask 01010010
          -86 callgsubr
          hintmask 00110010
          -55 callgsubr
          hintmask 01010010
          -99 callgsubr
          -4 30 -3 81 49 vvcurveto
          hintmask 00001100
          18 430 rmoveto
          -107 callgsubr
          hintmask 10010001
          111 -835 -69 callgsubr
          hintmask 00001100
          189 820 rmoveto
          -97 callsubr
        </CharString>
        <CharString name="imacron">
          -153 -20 callsubr
          121 28 callgsubr
          116 74 hintmask 00010000
          263 634 72 callgsubr
          -3 -29 -31 -1 -28 hhcurveto
          -27 -29 1 2 -28 40 callgsubr
          216 3 rlineto
          hintmask 10100010
          -64 -314 rmoveto
          -101 callgsubr
          hintmask 01100010
          -55 callgsubr
          hintmask 10100010
          -21 callgsubr
        </CharString>
        <CharString name="infinity">
          127 56 148 56 hstem
          37 56 363 56 vstem
          394 127 rmoveto
          48 21 54 72 16 52 rrcurveto
          63 -27 52 -63 -48 -57 -52 -37 -32 vhcurveto
          47 -33 -38 42 -59 hhcurveto
          -48 -21 -54 -72 -16 -52 rrcurveto
          -63 27 -52 63 48 57 52 37 32 vhcurveto
          -48 33 37 -41 60 hhcurveto
          11 63 rmoveto
          -46 -29 42 48 -30 hvcurveto
          30 27 32 21 39 hhcurveto
          44 14 -34 -44 -19 -6 -26 -15 -12 hvcurveto
          -3 -6 -12 -3 -12 hhcurveto
          -261 134 rmoveto
          46 29 -42 -48 30 hvcurveto
          -30 -27 -32 -21 -39 hhcurveto
          -44 -14 34 44 19 6 26 15 12 hvcurveto
          3 6 12 3 12 hhcurveto
          endchar
        </CharString>
        <CharString name="integral">
          -75 -194 -21 68 -20 878 -20 hstem
          145 74 vstem
          155 25 rmoveto
          1 -54 -8 -59 -21 -52 rrcurveto
          -32 callsubr
          107 84 134 107 14 hvcurveto
          -19 444 -2 55 9 59 21 52 rlinecurve
          5 10 25 2 11 hhcurveto
          13 16 -1 -9 10 hvcurveto
          7 1 11 18 14 16 17 16 rlinecurve
          16 -1 -14 11 -16 hhcurveto
          -107 -84 -134 -107 -14 hvcurveto
          endchar
        </CharString>
        <CharString name="iogonek">
          -153 -215 51 182 -21 24 -21 670 -20 hstemhm
          61 66 -11 74 hintmask 11011000
          230 -160 rmoveto
          -24 callgsubr
          42 46 57 42 11 21 -3 -2 11 hvcurveto
          2 19 -17 6 -29 9 -17 4 rlinecurve
          hintmask 10110100
          -4 30 -3 81 49 vvcurveto
          84 vlineto
          -101 callgsubr
          4 34 34 2 34 hhcurveto
          10 hlineto
          hintmask 11011000
          -39 -24 -45 -46 -18 -43 rrcurveto
          -35 callsubr
          -22 789 rmoveto
          -97 callsubr
        </CharString>
        <CharString name="itilde">
          -153 -20 callsubr
          98 34 callgsubr
          116 74 hintmask 00001100
          20 570 rmoveto
          19 14 17 5 22 hhcurveto
          hintmask 00010100
          32 62 -31 32 hhcurveto
          37 18 31 30 23 34 -17 11 rcurveline
          -18 -15 -17 -6 -23 hhcurveto
          -35 -41 13 18 -28 hvcurveto
          -43 -15 -40 -30 -29 -37 rrcurveto
          hintmask 10100010
          188 -307 rmoveto
          -101 callgsubr
          hintmask 01100010
          -55 callgsubr
          hintmask 10100010
          -21 callgsubr
        </CharString>
        <CharString name="j">
          77 callgsubr
          115 -8 callsubr
          113 72 hintmask 11001000
          32 -215 -69 callgsubr
          hintmask 00110000
          189 820 rmoveto
          -97 callsubr
        </CharString>
        <CharString name="jcircumflex">
          77 callgsubr
          78 36 callsubr
          hstemhm
          113 72 hintmask 00110000
          143 612 -88 callsubr
          hintmask 11001000
          23 -737 -69 callgsubr
          endchar
        </CharString>
        <CharString name="k">
          75 9 61 callsubr
          hintmask 10111100
          181 -77 callsubr
          -67 -19 -54 -9 -69 -5 rrcurveto
          -21 vlineto
          16 22 -3 -5 16 hvcurveto
          6 -61 2 -78 -93 vvcurveto
          -187 vlineto
          -89 -5 -78 -4 -30 vhcurveto
          -17 -4 -26 -9 -16 -7 3 -19 rcurveline
          hintmask 01111100
          -68 callgsubr
          endchar
        </CharString>
        <CharString name="kcommaaccent">
          75 -194 -21 181 -20 63 61 callsubr
          hintmask 00101111
          181 -77 callsubr
          -67 -19 -54 -9 -69 -5 rrcurveto
          -21 vlineto
          16 22 -3 -5 16 hvcurveto
          6 -61 2 -78 -93 46 callgsubr
          hintmask 00011111
          -68 callgsubr
          hintmask 11000000
          148 -347 -72 callgsubr
          -5 -29 -19 -21 -24 -18 10 -13 rcurveline
          54 28 48 43 4 60 rrcurveto
          endchar
        </CharString>
        <CharString name="kgreenlandic">
          66 6 -21 36 -21 485 -20 hstemhm
          112 74 hintmask 10110000
          186 185 rmoveto
          6 12 14 21 18 25 79 -126 rcurveline
          26 -40 35 -58 -30 vvcurveto
          8 -4 47 11 38 6 70 callgsubr
          -30 4 4 -9 hvcurveto
          -20 25 -39 60 -25 41 -94 149 rcurveline
          49 40 43 44 24 15 callgsubr
          22 hlineto
          3 48 10 39 30 38 rrcurveto
          14 vlineto
          10 -27 -33 6 -28 hhcurveto
          -68 -47 -98 -118 -37 -74 -4 1 rcurveline
          27 vlineto
          -101 callgsubr
          hintmask 01110000
          -55 callgsubr
          -99 callgsubr
          -4 29 -3 76 50 vvcurveto
          endchar
        </CharString>
        <CharString name="l">
          47 callsubr
          hstemhm
          113 75 hintmask 10111000
          -53 callsubr
          -2 14 callsubr
          hintmask 01111000
          -55 callgsubr
          hintmask 10111000
          4 callgsubr
          endchar
        </CharString>
        <CharString name="lacute">
          47 callsubr
          84 36 callsubr
          hstemhm
          113 75 hintmask 10110010
          -53 callsubr
          -2 14 callsubr
          hintmask 01110010
          -55 callgsubr
          hintmask 10110010
          4 callgsubr
          hintmask 00001100
          -33 614 -88 callsubr
          endchar
        </CharString>
        <CharString name="ldot">
          70 -47 callgsubr
          328 -10 callsubr
          259 -20 74 -20 hstemhm
          113 75 hintmask 10001110
          -53 callsubr
          -2 14 callsubr
          hintmask 01001110
          -55 callgsubr
          hintmask 10001110
          4 callgsubr
          hintmask 00110000
          160 138 rmoveto
          -97 callsubr
        </CharString>
        <CharString name="less">
          76 -21 394 -20 hstem
          52 222 rmoveto
          64 -19 61 -21 75 -30 88 -35 60 -26 72 -36 26 47 rcurveline
          -5 10 -359 138 rlineto
          4 vlineto
          359 139 5 10 -24 46 -72 -37 -65 -28 -85 -32 rlinecurve
          -91 -34 -50 -18 -45 -14 rrcurveto
          endchar
        </CharString>
        <CharString name="lessequal">
          0 49 403 -20 hstem
          58 233 rmoveto
          74 -19 57 -18 73 -26 86 -30 67 -27 72 -33 21 46 rcurveline
          -5 10 -362 127 rlineto
          4 vlineto
          362 126 5 10 -21 49 -71 -35 -57 -24 -94 -33 rlinecurve
          -93 -33 -52 -17 -47 -12 rrcurveto
          420 -252 -32 callgsubr
          endchar
        </CharString>
        <CharString name="logicalnot">
          103 -21 156 49 9 -20 hstemhm
          447 47 hintmask 11010000
          494 82 rmoveto
          5 6 rlineto
          -2 53 -3 23 120 vvcurveto
          -23 callgsubr
          hintmask 10110000
          -113 -117 3 6 -113 hvcurveto
          -9 -51 rlineto
          hintmask 11010000
          8 -7 rlineto
          388 -147 hlineto
          endchar
        </CharString>
        <CharString name="lozenge">
          -94 -21 782 -20 hstem
          299 -106 rmoveto
          17 45 23 55 46 90 45 88 21 39 41 65 -41 66 -20 37 -45 88 -37 72 -31 64 -19 64 -48 -9 rcurveline
          -16 -45 -25 -56 -45 -90 -41 -82 -27 -48 -39 -62 1 -1 rcurveline
          -1 hlineto
          36 -56 26 -46 45 -88 37 -72 29 -63 24 -64 rrcurveto
          17 700 rmoveto
          5 1 149 -312 -148 -312 -5 -1 -149 315 rlineto
          endchar
        </CharString>
        <CharString name="lslash">
          47 callsubr
          hstemhm
          114 74 hintmask 10111000
          -53 callsubr
          -1 -72 rcurveline
          -91 -47 4 -10 1 -11 2 -11 rlinecurve
          4 -3 17 12 30 18 33 17 rlinecurve
          -1 -80 -1 90 callgsubr
          rlinecurve
          -17 -4 -26 -9 -16 -7 3 -19 rcurveline
          hintmask 01111000
          -55 callgsubr
          hintmask 10111000
          -15 callsubr
          1 116 rcurveline
          113 57 62 callgsubr
          -16 -8 rcurveline
          endchar
        </CharString>
        <CharString name="m">
          369 -47 callgsubr
          403 82 hstemhm
          106 70 199 70 202 70 hintmask 01111100
          676 hmoveto
          30 33 -2 -4 32 hvcurveto
          hintmask 10111100
          15 callsubr
          5 281 rlineto
          85 2 -12 86 -80 hhcurveto
          -61 -21 -80 -85 -37 60 callsubr
          81 -14 79 -76 vhcurveto
          -61 -21 -80 -85 -37 60 callsubr
          -95 callgsubr
          hintmask 01111100
          4 34 34 2 34 hhcurveto
          hintmask 10111100
          -37 callgsubr
          84 29 callgsubr
          hintmask 10111100
          35 36 -3 -5 35 hvcurveto
          2 19 -19 7 -31 9 -19 4 rlinecurve
          4 232 rlineto
          51 22 85 29 callgsubr
          endchar
        </CharString>
        <CharString name="macron">
          -166 586 28 callgsubr
          hintmask 10000000
          274 634 72 callgsubr
          -3 -34 -40 -1 -34 60 callgsubr
          2 -33 hvcurveto
          hintmask 01100000
          -31 callsubr
        </CharString>
        <CharString name="minus">
          222 49 9 -20 hstemhm
          hintmask 10000000
          496 268 -14 callgsubr
          hintmask 01000000
          -113 -117 3 6 -113 hvcurveto
          -9 -51 rlineto
          hintmask 10000000
          8 -7 rlineto
          426 hlineto
          endchar
        </CharString>
        <CharString name="mu">
          89 -198 -21 225 -21 500 -20 hstemhm
          90 46 -46 63 208 70 hintmask 11101100
          361 207 rmoveto
          -51 -22 -83 -89 -55 hhcurveto
          -48 0 57 48 95 11 115 24 98 hvcurveto
          -6 5 -27 -7 -36 -5 -29 -3 rlinecurve
          -4 -3 4 -26 3 -44 -1 -66 rlinecurve
          -4 -188 -7 -211 -2 -76 -10 -68 rlinecurve
          9 -7 25 9 25 6 26 5 rlinecurve
          3 3 rlineto
          hintmask 11110100
          -13 56 -8 67 72 vvcurveto
          -8 7 20 -6 10 hhcurveto
          64 21 81 -17 callgsubr
          -58 71 callsubr
          -2 -92 callgsubr
          61 -1 49 91 vvcurveto
          155 13 67 7 24 vhcurveto
          -6 5 -29 -7 -38 -5 -31 -3 rlinecurve
          4 -21 10 -39 -203 vvcurveto
          endchar
        </CharString>
        <CharString name="multiply">
          71 -21 375 -20 hstem
          427 425 rmoveto
          -8 -1 -141 -151 -61 64 -47 50 -33 37 rlinecurve
          -8 1 -38 -35 153 -151 -62 -63 -53 -44 -48 -43 rlinecurve
          28 -39 rlineto
          11 hlineto
          158 155 158 -155 rlineto
          11 hlineto
          28 39 -49 44 -52 42 -63 64 rlinecurve
          154 151 rlineto
          endchar
        </CharString>
        <CharString name="n">
          107 -47 callgsubr
          403 82 68 callgsubr
          hintmask 01111000
          41 callsubr
          hintmask 10111000
          15 callsubr
          -27 callsubr
          -95 callgsubr
          hintmask 01111000
          -55 callgsubr
          hintmask 10111000
          -37 callgsubr
          86 89 55 hhcurveto
          49 -3 23 callgsubr
          -16 -80 rrcurveto
          -14 vlineto
          hintmask 01111000
          82 callsubr
          endchar
        </CharString>
        <CharString name="nacute">
          107 -47 callgsubr
          403 82 61 -21 68 callgsubr
          hintmask 01101100
          41 callsubr
          hintmask 10101100
          15 callsubr
          -27 callsubr
          -95 callgsubr
          hintmask 01101100
          -55 callgsubr
          hintmask 10101100
          -37 callgsubr
          86 89 55 hhcurveto
          49 -3 23 callgsubr
          -16 -80 rrcurveto
          -14 vlineto
          hintmask 01101100
          82 callsubr
          hintmask 00010000
          15 634 -91 callgsubr
        </CharString>
        <CharString name="nbspace">
          -260 endchar
        </CharString>
        <CharString name="ncaron">
          107 -47 callgsubr
          403 82 56 -21 185 89 callgsubr
          hintmask 01100110
          41 callsubr
          hintmask 10100110
          15 callsubr
          -27 callsubr
          -95 callgsubr
          hintmask 01100110
          -55 callgsubr
          hintmask 10100110
          -37 callgsubr
          86 89 55 hhcurveto
          49 -3 23 callgsubr
          -16 -80 rrcurveto
          -14 vlineto
          hintmask 01100110
          82 callsubr
          hintmask 00011000
          -267 705 -65 callgsubr
        </CharString>
        <CharString name="nine">
          11 -94 -21 235 52 251 62 hstem
          30 88 190 89 vstem
          308 -36 callgsubr
        </CharString>
        <CharString name="nine.dnum">
          -70 21 75 callgsubr
          44 70 124 72 vstem
          238 251 -63 callgsubr
        </CharString>
        <CharString name="nine.numr">
          -70 280 75 callgsubr
          44 70 124 72 vstem
          238 510 -63 callgsubr
        </CharString>
        <CharString name="nine.tabonum">
          10 -94 -21 235 52 251 62 hstem
          45 88 190 89 vstem
          323 -36 callgsubr
        </CharString>
        <CharString name="ninesuperior">
          -105 360 75 callgsubr
          21 70 124 72 vstem
          215 590 -63 callgsubr
        </CharString>
        <CharString name="notequal">
          57 -21 119 52 92 49 105 -20 hstem
          496 201 -14 callgsubr
          -43 -44 0 1 -44 hvcurveto
          77 94 rlineto
          136 hlineto
          9 46 -23 callgsubr
          -14 hlineto
          60 73 -41 32 -8 -2 -21 -28 -25 -34 -32 -41 rlinecurve
          -87 1 -89 3 -86 5 -9 -51 rcurveline
          8 -7 rlineto
          225 hlineto
          -75 -93 -50 2 -50 2 -49 3 rlinecurve
          -9 -51 8 -7 rlineto
          107 hlineto
          -26 -31 -25 -27 -22 -24 31 -37 rcurveline
          11 1 96 118 rlineto
          254 hlineto
          endchar
        </CharString>
        <CharString name="ntilde">
          107 -47 callgsubr
          403 82 78 69 -38 38 31 89 callgsubr
          hintmask 01100011
          41 callsubr
          hintmask 10100011
          15 callsubr
          -27 callsubr
          -95 callgsubr
          hintmask 01100011
          -55 callgsubr
          hintmask 10100011
          -37 callgsubr
          86 89 55 hhcurveto
          49 -3 23 callgsubr
          -16 -80 rrcurveto
          -14 vlineto
          hintmask 01100011
          82 callsubr
          hintmask 00001100
          -266 570 -6 callgsubr
          hintmask 00010100
          -92 callsubr
        </CharString>
        <CharString name="numbersign">
          -71 -21 234 53 122 55 220 -20 hstem
          380 372 rmoveto
          9 77 10 64 14 76 92 callgsubr
          -215 -37 1 -38 1 -34 2 rlinecurve
          9 75 10 63 14 75 92 callgsubr
          -209 -28 1 -24 1 -15 2 rlinecurve
          -45 4 -10 -53 8 -6 108 -3 -16 -129 -30 1 -25 1 -16 2 rlinecurve
          -46 4 -10 -52 8 -7 112 -3 rlineto
          -4 vlineto
          -9 -77 -8 -55 -14 -76 94 callgsubr
          232 108 -3 -9 -77 -8 -55 -14 -76 rlinecurve
          94 callgsubr
          228 121 -3 10 49 -7 5 -24 -1 -44 1 -50 1 rlinecurve
          15 131 127 -3 10 48 -7 6 -25 -1 -46 1 -52 1 rlinecurve
          -172 -178 rmoveto
          16 130 108 -3 -16 -131 -36 1 -38 1 -34 2 rlinecurve
          endchar
        </CharString>
        <CharString name="o">
          48 28 callsubr
          hstem
          45 80 238 80 vstem
          -103 callsubr
          endchar
        </CharString>
        <CharString name="oacute">
          48 28 callsubr
          61 -21 27 callsubr
          hintmask 11011000
          -103 callsubr
          hintmask 00100000
          192 211 -91 callgsubr
        </CharString>
        <CharString name="obreve">
          48 28 callsubr
          63 66 69 -20 27 callsubr
          hintmask 11001100
          -103 callsubr
          hintmask 00110000
          -125 235 -98 callsubr
          endchar
        </CharString>
        <CharString name="ocircumflex">
          48 28 callsubr
          58 36 callsubr
          27 callsubr
          hintmask 11001100
          -103 callsubr
          hintmask 00110000
          32 189 -88 callsubr
          endchar
        </CharString>
        <CharString name="odieresis">
          48 28 callsubr
          95 -21 111 -20 27 callsubr
          hintmask 11001100
          -103 callsubr
          hintmask 00110000
          -6 197 -104 callgsubr
        </CharString>
        <CharString name="oe">
          292 -12 callgsubr
          hstemhm
          45 80 231 80 163 80 hintmask 11011100
          45 190 rmoveto
          -117 82 -88 117 vhcurveto
          52 20 43 36 31 46 rrcurveto
          4 hlineto
          -63 25 51 -39 82 hhcurveto
          57 24 53 42 36 49 -11 10 rcurveline
          -29 -33 -47 -24 -43 hhcurveto
          -94 -14 87 94 hvcurveto
          136 29 89 5 56 -1 1 21 rcurveline
          -16 -17 2 6 -16 hvcurveto
          6 16 4 32 17 vvcurveto
          89 -32 31 -89 vhcurveto
          -58 -16 -45 -35 -35 -47 rrcurveto
          -4 hlineto
          70 -31 -55 28 -76 hhcurveto
          -128 -33 -81 -130 -132 vvcurveto
          hintmask 10111100
          182 233 rmoveto
          97 32 -99 -99 -48 -8 -59 -24 -46 hvcurveto
          -16 -18 -21 -9 -24 hhcurveto
          -88 -48 110 88 50 9 58 24 46 hvcurveto
          16 18 27 8 24 hhcurveto
          238 -24 rmoveto
          -83 callgsubr
          endchar
        </CharString>
        <CharString name="ogonek">
          -71 -215 51 176 -20 hstem
          100 66 vstem
          269 -160 rmoveto
          -24 callgsubr
          42 36 37 36 23 hvcurveto
          -7 12 -50 -23 -61 -52 -20 -50 rlinecurve
          -35 callsubr
          endchar
        </CharString>
        <CharString name="ograve">
          48 28 callsubr
          61 -21 27 callsubr
          hintmask 11011000
          -103 callsubr
          hintmask 00100000
          75 102 -46 callgsubr
          endchar
        </CharString>
        <CharString name="ohungarumlaut">
          48 28 callsubr
          61 -21 27 callsubr
          hintmask 11011000
          -103 callsubr
          hintmask 00100000
          268 221 -39 callgsubr
        </CharString>
        <CharString name="omacron">
          48 28 callsubr
          101 49 -29 -21 56 -20 27 callsubr
          hintmask 11000110
          -103 callsubr
          hintmask 00100000
          169 211 72 callgsubr
          -3 -34 -40 -1 -34 60 callgsubr
          2 -33 hvcurveto
          hintmask 00011000
          -31 callsubr
        </CharString>
        <CharString name="one">
          -107 -47 callgsubr
          470 -20 32 -20 hstemhm
          129 74 hintmask 10101000
          210 -42 callgsubr
        </CharString>
        <CharString name="one.dnum">
          -70 27 -21 401 -20 hstem
          163 65 vstem
          155 39 -94 callsubr
          endchar
        </CharString>
        <CharString name="one.numr">
          -70 286 -21 320 -20 101 -20 hstem
          163 65 vstem
          155 298 -94 callsubr
          endchar
        </CharString>
        <CharString name="one.tabonum">
          10 -47 callgsubr
          470 -20 32 -20 hstemhm
          194 74 hintmask 10101000
          275 -42 callgsubr
        </CharString>
        <CharString name="onehalf">
          390 -21 -21 627 -20 101 -20 58 -20 hstem
          133 65 490 81 vstem
          151 -42 -57 callgsubr
          -21 339 -94 callsubr
          516 109 -94 callgsubr
        </CharString>
        <CharString name="onequarter">
          390 -21 -21 55 144 -46 46 428 -20 101 -20 58 -20 hstemhm
          133 65 466 65 hintmask 10111111
          -2 callsubr
          hintmask 11011111
          6 25 31 2 24 hhcurveto
          33 25 -1 -5 33 hvcurveto
          3 18 -11 3 -25 8 -9 5 rlinecurve
          hintmask 10111111
          -4 20 -1 24 26 vvcurveto
          15 31 0 -2 24 hvcurveto
          4 2 -1 25 1 24 5 24 rlinecurve
          -14 4 rlineto
          -28 -10 -25 -4 -31 hhcurveto
          -578 -198 -57 callgsubr
          -21 339 -94 callsubr
          535 33 rmoveto
          5 hlineto
          -2 -174 rlineto
          -41 -38 2 4 -29 hvcurveto
          36 49 43 64 26 55 rrcurveto
          endchar
        </CharString>
        <CharString name="onesuperior">
          -137 366 -21 320 -20 101 -20 hstem
          133 65 vstem
          125 378 -94 callsubr
          endchar
        </CharString>
        <CharString name="ordfeminine">
          -30 259 69 286 52 26 -20 hstem
          38 71 174 63 vstem
          38 414 rmoveto
          -67 35 -88 67 vhcurveto
          50 21 58 65 32 44 rrcurveto
          3 hlineto
          -41 -2 -45 -7 -41 vhcurveto
          6 -3 43 9 30 5 39 2 rlinecurve
          18 vlineto
          -13 -16 2 5 -11 hvcurveto
          -5 40 -1 49 40 vvcurveto
          142 9 73 9 43 vhcurveto
          -17 5 -4 -14 -8 -17 -8 -12 rlinecurve
          12 -43 -28 5 -46 hhcurveto
          -105 -36 -67 -106 -110 vvcurveto
          71 37 rmoveto
          45 8 56 18 42 vhcurveto
          16 17 18 4 24 hhcurveto
          26 33 -7 -13 24 hvcurveto
          4 -24 2 -26 -105 vvcurveto
          -38 -15 -66 -73 -40 hhcurveto
          -39 -14 84 39 hvcurveto
          endchar
        </CharString>
        <CharString name="ordmasculine">
          -45 259 54 300 53 hstem
          32 71 189 71 vstem
          32 427 rmoveto
          -96 70 -72 96 vhcurveto
          96 39 69 101 100 vvcurveto
          104 -53 63 -104 vhcurveto
          -106 -27 -68 -106 -106 vvcurveto
          152 186 rmoveto
          78 30 -79 -78 -41 -6 -46 -20 -36 hvcurveto
          -13 -14 -20 -7 -20 hhcurveto
          -71 -38 86 71 40 8 47 19 37 hvcurveto
          13 14 21 6 19 hhcurveto
          endchar
        </CharString>
        <CharString name="ornament">
          -4 133 -21 332 -20 hstem
          87 324 rmoveto
          -2 -2 rlineto
          -6 5 -15 1 -5 vhcurveto
          -11 -4 -24 -7 -4 -7 3 -6 25 -8 11 -4 rrcurveto
          -1 -5 -5 -15 -6 vvcurveto
          2 -2 27 17 42 14 37 5 rlinecurve
          -30 -23 -39 -20 -32 -7 rrcurveto
          -4 vlineto
          5 -4 13 -6 5 -4 -5 -10 -12 -22 2 -8 7 -2 23 12 10 5 4 -5 6 -13 4 -5 rrcurveto
          4 hlineto
          7 32 19 38 23 30 -6 -37 -13 -41 -16 -27 87 callsubr
          7 -24 7 -4 6 3 8 25 86 callsubr
          -17 27 -13 41 -5 37 rlinecurve
          22 -30 20 -38 7 -32 rrcurveto
          3 hlineto
          5 5 6 13 4 5 10 -5 23 -12 7 2 2 8 -12 22 -5 10 4 4 14 6 5 4 rrcurveto
          4 vlineto
          -33 7 -38 20 -31 23 38 -5 41 -14 28 -17 2 2 rcurveline
          6 -5 15 -1 5 vhcurveto
          11 4 25 8 3 6 -4 7 -24 7 -11 4 rrcurveto
          1 5 5 15 6 vvcurveto
          -2 2 -28 -18 -41 -13 -37 -5 rlinecurve
          30 22 39 21 32 7 rrcurveto
          3 vlineto
          -5 5 -14 6 -4 4 4 10 13 23 -2 7 -8 2 -23 -12 -9 -5 -4 4 -6 14 -5 5 rrcurveto
          -3 hlineto
          -7 -32 -20 -38 -22 -30 5 37 13 41 17 27 -2 2 rcurveline
          24 callsubr
          16 -28 13 -41 6 -37 rlinecurve
          -23 30 -19 39 -7 32 rrcurveto
          -4 hlineto
          -4 -5 -6 -14 -4 -4 -10 5 -22 12 -8 -2 -2 -7 12 -23 5 -10 -5 -4 -13 -6 -5 -5 rrcurveto
          -3 vlineto
          32 -7 38 -21 31 -22 -37 5 -42 13 -27 18 rrcurveto
          endchar
        </CharString>
        <CharString name="ornament.002">
          -63 -94 -21 781 -20 hstem
          179 562 rmoveto
          -3 -23 -7 -15 -13 -22 1 -1 rcurveline
          5 10 3 1 4 hvcurveto
          2 -8 6 -17 4 -3 5 3 6 17 2 8 rrcurveto
          -1 4 9 -3 5 hhcurveto
          2 1 -14 22 -6 15 -3 23 rlinecurve
          21 -4 15 -6 19 -13 2 1 rcurveline
          5 -5 10 4 vvcurveto
          8 2 17 6 2 4 -2 5 -17 6 -8 2 rrcurveto
          4 5 9 5 vvcurveto
          -2 2 -19 -13 -15 -7 -21 -3 rlinecurve
          3 23 7 15 13 22 -1 1 rcurveline
          -5 -10 -3 -1 -4 hvcurveto
          -2 8 -6 17 -4 3 -5 -3 -6 -17 -2 -8 rrcurveto
          1 -4 -9 3 -5 hhcurveto
          -2 -1 14 -22 5 -13 3 -23 rlinecurve
          -21 3 -14 5 -19 13 -1 -2 rcurveline
          -5 4 -9 -4 vvcurveto
          -7 -2 -17 -6 -3 -5 2 -4 18 -6 7 -2 rrcurveto
          -4 -4 -10 -5 vvcurveto
          1 -1 20 13 15 6 20 4 rlinecurve
          -292 -71 callgsubr
          -300 -71 callgsubr
          endchar
        </CharString>
        <CharString name="ornament.003">
          -81 -94 -21 128 -21 674 -20 hstem
          229 618 rmoveto
          -41 callsubr
          -212 vmoveto
          -41 callsubr
          -220 vmoveto
          -41 callsubr
          -227 vmoveto
          -41 callsubr
          endchar
        </CharString>
        <CharString name="ornament.004">
          -14 137 -21 87 80 -12 79 88 -20 hstemhm
          140 80 -12 79 hintmask 10111000
          134 350 rmoveto
          -39 -9 -54 -18 -34 hvcurveto
          -2 vlineto
          hintmask 11011000
          -19 34 9 -54 39 hhcurveto
          hintmask 10110100
          22 29 8 36 44 3 rrcurveto
          hintmask 11011000
          -3 -43 -37 -8 -28 -22 rrcurveto
          -39 54 -9 19 -34 vhcurveto
          2 hlineto
          hintmask 11010100
          18 34 54 9 39 vvcurveto
          hintmask 11011000
          -29 22 -35 8 -3 42 41 -3 8 -36 23 -28 rrcurveto
          39 8 54 19 35 hvcurveto
          2 vlineto
          hintmask 10111000
          18 -35 -8 54 -39 hhcurveto
          hintmask 11011000
          -23 -29 -8 -34 -41 -4 rrcurveto
          hintmask 11010100
          3 42 35 8 29 23 rrcurveto
          39 -54 8 -18 35 vhcurveto
          -2 hlineto
          hintmask 11011000
          -19 -35 -54 -8 -39 vvcurveto
          hintmask 11010100
          28 -23 37 -8 3 -42 rrcurveto
          hintmask 10111000
          -44 2 -8 36 -22 29 rrcurveto
          endchar
        </CharString>
        <CharString name="ornament.005">
          3 129 224 -154 154 -154 225 hstemhm
          73 225 -154 154 -154 226 hintmask 01010000
          123 353 rmoveto
          -25 -25 -11 -28 -14 13 -14 14 -8 hvcurveto
          -3 vlineto
          -14 -8 -13 -14 -14 vvcurveto
          -28 26 -12 25 vhcurveto
          5 hlineto
          25 31 21 23 37 16 2 -2 rcurveline
          hintmask 10001000
          -17 -36 -22 -22 -31 -25 rrcurveto
          -4 vlineto
          -26 12 -25 28 14 14 13 14 8 vhcurveto
          3 hlineto
          -14 8 14 -13 14 hhcurveto
          28 11 25 25 hvcurveto
          4 vlineto
          -30 26 -23 22 -16 36 2 2 rcurveline
          hintmask 01000100
          36 -16 22 -23 25 -31 rrcurveto
          5 hlineto
          25 26 12 28 14 -13 14 -15 8 hvcurveto
          3 vlineto
          15 8 13 14 14 vvcurveto
          28 -26 11 -24 vhcurveto
          -5 hlineto
          -26 -30 -22 -23 -36 -16 -2 2 rcurveline
          hintmask 00110000
          16 36 23 22 30 25 rrcurveto
          5 vlineto
          25 -11 25 -28 -14 -14 -13 -14 -8 vhcurveto
          -3 hlineto
          14 -8 -14 13 -14 hhcurveto
          hintmask 01001000
          -28 -12 -25 -26 hvcurveto
          -5 vlineto
          31 -24 22 -22 17 -36 -2 -2 rcurveline
          -37 16 -21 23 -26 30 rrcurveto
          endchar
        </CharString>
        <CharString name="oslash">
          48 -56 -21 83 -21 500 -20 90 -20 hstem
          45 80 238 80 vstem
          -66 callgsubr
          endchar
        </CharString>
        <CharString name="oslashacute">
          48 -56 -21 83 -21 500 -20 81 -21 30 -20 27 callsubr
          hintmask 11101110
          -66 callgsubr
          hintmask 00010000
          192 211 -91 callgsubr
        </CharString>
        <CharString name="otilde">
          48 28 callsubr
          78 69 -38 38 31 -20 27 callsubr
          hintmask 11000110
          -103 callsubr
          hintmask 00011000
          -121 147 -6 callgsubr
          hintmask 00101000
          -92 callsubr
        </CharString>
        <CharString name="p">
          73 73 callgsubr
          hstemhm
          95 70 218 80 hintmask 10011100
          463 25 callsubr
          -72 -81 58 callsubr
          50 3 56 8 50 vhcurveto
          -7 4 -48 -11 -39 -6 -48 -2 rlinecurve
          -21 vlineto
          15 24 -3 -5 15 hvcurveto
          6 -50 1 -30 -80 vvcurveto
          -163 vlineto
          -129 -3 -92 -7 -60 vhcurveto
          87 callgsubr
          32 2 31 hhcurveto
          hintmask 01111100
          36 35 3 callgsubr
          hintmask 10011100
          -18 callsubr
        </CharString>
        <CharString name="paragraph">
          134 -94 -21 136 -21 658 -20 hstem
          267 50 52 75 vstem
          333 651 rmoveto
          3 -52 -45 4 -40 hhcurveto
          -140 -61 -74 -82 -98 90 -109 148 12 10 0 1 12 hvcurveto
          -165 vlineto
          -60 -7 -54 -21 -57 vhcurveto
          -32 callsubr
          168 13 160 136 hvcurveto
          144 vlineto
          155 5 86 11 78 vhcurveto
          21 -645 rmoveto
          1 20 18 0 19 hhcurveto
          47 44 -2 -6 46 hvcurveto
          4 25 -22 7 -51 11 -23 3 rlinecurve
          -5 34 -7 132 121 vvcurveto
          135 7 110 92 callsubr
          -36 vlineto
          -45 -59 1 3 -32 hvcurveto
          -11 -86 -1 -132 -106 vvcurveto
          -256 -5 -28 -12 -38 vhcurveto
          endchar
        </CharString>
        <CharString name="paragraph.alt">
          72 -94 -21 739 34 hstem
          -5 245 65 77 vstem
          305 125 rmoveto
          1 -54 -8 -59 -21 -52 rrcurveto
          -32 callsubr
          107 87 134 107 14 hvcurveto
          199 vlineto
          135 7 114 92 callsubr
          vlineto
          -92 -136 9 -62 hhcurveto
          -122 -84 -42 -122 -123 120 -76 123 7 8 0 1 7 hvcurveto
          2 14 rlineto
          -17 30 -5 69 70 vvcurveto
          43 2 52 6 43 vhcurveto
          2 7 7 1 9 hhcurveto
          8 10 -1 -2 7 hvcurveto
          7 -73 2 -45 -174 vvcurveto
          endchar
        </CharString>
        <CharString name="parenleft">
          -143 -194 -21 926 -20 hstem
          48 72 vstem
          48 262 rmoveto
          -185 76 -185 126 -107 vhcurveto
          10 10 rlineto
          -93 127 -47 176 164 vvcurveto
          164 47 148 93 127 vhcurveto
          -10 10 rlineto
          -126 -107 -76 -160 -182 vvcurveto
          endchar
        </CharString>
        <CharString name="parenright">
          -143 -194 -21 926 -20 hstem
          177 72 vstem
          249 262 rmoveto
          182 -76 160 -126 107 vhcurveto
          -10 -10 rlineto
          93 -127 47 -148 -164 vvcurveto
          -164 -47 -176 -93 -127 vhcurveto
          10 -10 rlineto
          126 107 76 185 185 vvcurveto
          endchar
        </CharString>
        <CharString name="partialdiff">
          31 6 -21 681 -20 65 -20 hstem
          45 81 223 80 vstem
          429 272 rmoveto
          189 -86 220 -161 30 vhcurveto
          -90 -17 -74 -55 -84 vvcurveto
          -16 11 -14 16 -1 vhcurveto
          16 17 16 14 18 11 1 7 rcurveline
          -9 10 -1 16 13 vvcurveto
          11 2 20 3 10 vhcurveto
          8 12 23 5 17 hhcurveto
          115 55 -155 -157 25 hvcurveto
          16 callsubr
          -123 -218 7 callsubr
        </CharString>
        <CharString name="percent">
          304 44 callsubr
          vstem
          34 389 -77 callgsubr
        </CharString>
        <CharString name="period">
          -228 6 78 callgsubr
          160 46 rmoveto
          -97 callsubr
        </CharString>
        <CharString name="periodcentered">
          -228 244 78 callgsubr
          160 284 rmoveto
          -97 callsubr
        </CharString>
        <CharString name="perthousand">
          623 44 callsubr
          176 143 vstem
          744 147 rmoveto
          -107 20 63 -55 61 hhcurveto
          46 75 52 129 20 hvcurveto
          107 -20 -61 55 -60 35 callsubr
          144 -131 rmoveto
          -45 17 -27 67 57 vvcurveto
          57 27 67 45 17 vhcurveto
          46 -17 25 -67 -57 vvcurveto
          -57 -25 -67 -46 -17 vhcurveto
          -854 373 -77 callgsubr
        </CharString>
        <CharString name="pi">
          56 -84 -21 90 82 403 -20 115 -20 hstem
          111 50 122 80 vstem
          113 544 rmoveto
          -60 -7 -72 -57 -29 -53 18 -11 rcurveline
          39 29 34 15 48 hhcurveto
          10 4 0 -1 10 hvcurveto
          4 -26 2 -57 -56 vvcurveto
          -83 vlineto
          -68 -7 -209 -10 -68 vhcurveto
          9 -7 28 9 26 7 29 4 rlinecurve
          3 3 rlineto
          -13 56 -15 111 162 vvcurveto
          81 3 65 8 72 vhcurveto
          55 -5 56 -9 70 -12 rrcurveto
          -40 -93 -30 -130 -99 vvcurveto
          -79 27 -53 79 vhcurveto
          41 24 35 50 17 44 -13 7 rcurveline
          -23 -14 -18 -20 -26 hhcurveto
          -48 0 57 48 93 10 111 15 57 hvcurveto
          76 -15 32 callsubr
          18 20 vvcurveto
          24 4 24 7 25 vhcurveto
          -21 7 -7 -20 -7 -19 -9 -19 rlinecurve
          -107 7 -110 14 -106 16 rrcurveto
          endchar
        </CharString>
        <CharString name="plus">
          12 -21 231 52 211 -20 hstem
          252 47 vstem
          501 268 -14 callgsubr
          -37 -37 0 1 -37 hvcurveto
          1 vlineto
          114 3 39 2 53 vhcurveto
          -5 6 -47 -9 rlineto
          -203 61 callgsubr
          -224 hlineto
          10 -7 46 9 rlineto
          -5 53 -4 66 103 vvcurveto
          193 hlineto
          endchar
        </CharString>
        <CharString name="plusminus">
          0 49 218 52 166 -20 hstem
          252 47 vstem
          501 313 -14 callgsubr
          -37 -37 0 1 -37 hvcurveto
          1 vlineto
          64 2 44 3 53 vhcurveto
          -5 6 -47 -9 rlineto
          -158 61 callgsubr
          -179 hlineto
          10 -7 46 9 rlineto
          -5 53 -4 51 73 vvcurveto
          193 hlineto
          1 -221 -32 callgsubr
          endchar
        </CharString>
        <CharString name="product">
          249 -67 -21 702 37 15 -3 callsubr
          275 77 hintmask 11011000
          344 651 rmoveto
          hintmask 10111000
          -83 -116 2 13 -120 hvcurveto
          -4 -25 29 -9 36 -13 31 -6 rlinecurve
          5 -57 8 -107 -134 vvcurveto
          -59 vlineto
          -178 -7 -90 -4 -30 vhcurveto
          -23 -3 -51 -11 -22 -7 3 callsubr
          -70 callsubr
          46 54 -2 -4 -28 callgsubr
          -30 7 -40 7 -15 callgsubr
          -5 37 -8 113 210 vvcurveto
          141 5 119 5 34 vhcurveto
          hintmask 11011000
          3 20 55 2 52 hhcurveto
          39 55 -2 -20 34 hvcurveto
          5 -34 5 -102 -141 vvcurveto
          -210 -6 -110 -5 -37 vhcurveto
          -23 -4 -41 -8 -22 -7 3 callsubr
          4 46 42 2 46 hhcurveto
          -9 callsubr
          178 vvcurveto
          59 vlineto
          134 7 133 6 34 vhcurveto
          31 6 50 11 29 9 rrcurveto
          hintmask 10111000
          -3 24 rlineto
          hintmask 11011000
          -13 -120 -95 -2 -120 hhcurveto
          endchar
        </CharString>
        <CharString name="q">
          76 -206 -21 212 82 356 62 hstem
          43 callgsubr
          vstem
          50 176 59 callsubr
          -1 -215 -3 -42 -7 -66 -9 -9 -27 -12 -24 -8 7 -20 rcurveline
          67 18 62 11 69 4 -2 19 rcurveline
          -16 5 -20 4 -18 3 rrcurveto
          -8 64 0 73 120 vvcurveto
          156 0 82 13 104 -46 callsubr
          -29 -9 -18 -4 -30 -6 rrcurveto
          -100 callgsubr
          endchar
        </CharString>
        <CharString name="question">
          -105 9 -21 646 62 hstem
          239 96 vstem
          140 180 rmoveto
          26 2 3 65 4 56 4 49 rlinecurve
          61 61 46 51 51 73 rrcurveto
          108 -48 51 -108 vhcurveto
          -64 -19 -98 -49 callgsubr
          10 20 20 4 22 hhcurveto
          51 37 -23 -51 -60 -31 -73 -89 -89 hvcurveto
          -19 vlineto
          86 -270 rmoveto
          -97 callsubr
        </CharString>
        <CharString name="questiondown">
          -105 -215 62 639 -20 hstem
          0 96 vstem
          128 13 callsubr
          -3 -65 -4 -56 -4 -49 rlinecurve
          -61 -61 -46 -51 -51 -73 rrcurveto
          -108 48 -51 108 vhcurveto
          64 19 98 70 66 vvcurveto
          14 -10 14 -16 1 vhcurveto
          -15 -16 -14 -12 -19 -12 -1 -7 rcurveline
          8 -7 2 -6 -14 vvcurveto
          -9 -4 -20 -3 -5 vhcurveto
          -10 -20 -20 -4 -22 hhcurveto
          -51 -37 23 51 60 31 73 89 89 hvcurveto
          19 vlineto
          endchar
        </CharString>
        <CharString name="quotedbl">
          -125 453 -21 hstem
          76 432 10 callsubr
          148 -217 10 callsubr
          endchar
        </CharString>
</ttFont>
